SplineFontDB: 3.2
FontName: Chicago
FullName: Chicago
FamilyName: Chicago
Weight: Book
Copyright: (c) 1990-91 Apple Computer Inc. (c) 1990-91 Type Solutions Inc. (c) 1990-91 The Font Bureau Inc.
Version: 1.0
ItalicAngle: 0
UnderlinePosition: -167
UnderlineWidth: 171
Ascent: 1638
Descent: 410
InvalidEm: 0
sfntRevision: 0x00010000
LayerCount: 2
Layer: 0 1 "Back" 1
Layer: 1 1 "Fore" 0
XUID: [1021 2 947523207 7546008]
StyleMap: 0x0000
FSType: 0
OS2Version: 1
OS2_WeightWidthSlopeOnly: 0
OS2_UseTypoMetrics: 0
CreationTime: 649209600
ModificationTime: 1656804240
PfmFamily: 17
TTFWeight: 400
TTFWidth: 5
LineGap: 171
VLineGap: 0
Panose: 2 0 5 3 0 0 0 0 0 0
OS2TypoAscent: 1638
OS2TypoAOffset: 0
OS2TypoDescent: -410
OS2TypoDOffset: 0
OS2TypoLinegap: 184
OS2WinAscent: 2074
OS2WinAOffset: 0
OS2WinDescent: 512
OS2WinDOffset: 0
HheadAscent: 2048
HheadAOffset: 0
HheadDescent: -512
HheadDOffset: 0
OS2SubXSize: 1331
OS2SubYSize: 1433
OS2SubXOff: 0
OS2SubYOff: 286
OS2SupXSize: 1331
OS2SupYSize: 1433
OS2SupXOff: 0
OS2SupYOff: 983
OS2StrikeYSize: 102
OS2StrikeYPos: 530
OS2Vendor: 'PfEd'
OS2CodePages: 20000011.00000000
OS2UnicodeRanges: 800000af.5000204a.00000000.00000000
Lookup: 4 0 0 "'ccmp' Glyph Composition/Decomposition in Latin lookup 0" { "'ccmp' Glyph Composition/Decomposition in Latin lookup 0 subtable"  } ['ccmp' ('latn' <'dflt' > ) ]
Lookup: 4 0 0 "'ccmp' Glyph Composition/Decomposition in Latin lookup 1" { "'ccmp' Glyph Composition/Decomposition in Latin lookup 1 subtable"  } ['ccmp' ('latn' <'dflt' > ) ]
Lookup: 4 0 0 "'ccmp' Glyph Composition/Decomposition in Latin lookup 2" { "'ccmp' Glyph Composition/Decomposition in Latin lookup 2 subtable"  } ['ccmp' ('latn' <'dflt' > ) ]
Lookup: 1 0 0 "Single Substitution lookup 3" { "Single Substitution lookup 3 subtable"  } []
Lookup: 1 0 0 "Single Substitution lookup 4" { "Single Substitution lookup 4 subtable"  } []
Lookup: 1 0 0 "Single Substitution lookup 5" { "Single Substitution lookup 5 subtable"  } []

StartChar: .notdef
Encoding: 65536 -1 0
Width: 748
GlyphClass: 1
Flags: W
LayerCount: 2
Fore
SplineSet
68 0 m 1,0,-1
 68 1365 l 1,1,-1
 612 1365 l 1,2,-1
 612 0 l 1,3,-1
 68 0 l 1,0,-1
136 68 m 1,4,-1
 544 68 l 1,5,-1
 544 1297 l 1,6,-1
 136 1297 l 1,7,-1
 136 68 l 1,4,-1
EndSplineSet
Validated: 1
EndChar

StartChar: uni0001
Encoding: 1 1 4
Width: 2560
GlyphClass: 1
Flags: W
LayerCount: 2
Fore
SplineSet
171 1536 m 1,0,-1
 1195 1536 l 1,1,-1
 1877 512 l 1,2,-1
 2389 512 l 1,3,-1
 2389 0 l 1,4,-1
 1365 0 l 1,5,-1
 683 1024 l 1,6,-1
 171 1024 l 1,7,-1
 171 1536 l 1,0,-1
1707 1536 m 1,8,-1
 2389 1536 l 1,9,-1
 2389 1024 l 1,10,-1
 1707 1024 l 1,11,-1
 1707 1536 l 1,8,-1
341 1365 m 1,12,-1
 341 1195 l 1,13,-1
 853 1195 l 1,14,-1
 1536 171 l 1,15,-1
 2219 171 l 1,16,-1
 2219 341 l 1,17,-1
 1707 341 l 1,18,-1
 1024 1365 l 1,19,-1
 341 1365 l 1,12,-1
1877 1365 m 1,20,-1
 1877 1195 l 1,21,-1
 2219 1195 l 1,22,-1
 2219 1365 l 1,23,-1
 1877 1365 l 1,20,-1
EndSplineSet
Validated: 1
EndChar

StartChar: uni0002
Encoding: 2 2 5
Width: 2048
GlyphClass: 1
Flags: W
LayerCount: 2
Fore
SplineSet
59 570 m 1,0,-1
 1024 1536 l 1,1,-1
 1990 571 l 1,2,-1
 1628 209 l 1,3,-1
 1024 812 l 1,4,-1
 421 209 l 1,5,-1
 59 570 l 1,0,-1
300 570 m 1,6,-1
 421 450 l 1,7,-1
 1024 1053 l 1,8,-1
 1628 450 l 1,9,-1
 1748 570 l 1,10,-1
 1024 1295 l 1,11,-1
 300 570 l 1,6,-1
EndSplineSet
Validated: 1
EndChar

StartChar: uni0003
Encoding: 3 3 6
Width: 2389
GlyphClass: 1
Flags: W
LayerCount: 2
Fore
SplineSet
512 683 m 1,0,-1
 1195 1365 l 1,1,-1
 1877 683 l 1,2,-1
 1707 512 l 1,3,-1
 1195 1024 l 1,4,-1
 683 512 l 1,5,-1
 512 683 l 1,0,-1
171 1536 m 1,6,-1
 854 1536 l 1,7,-1
 854 1365 l 1,8,-1
 171 1365 l 1,9,-1
 171 1536 l 1,6,-1
1536 1536 m 1,10,-1
 2219 1536 l 1,11,-1
 2219 1365 l 1,12,-1
 1536 1365 l 1,13,-1
 1536 1536 l 1,10,-1
EndSplineSet
Validated: 1
EndChar

StartChar: uni0004
Encoding: 4 4 7
Width: 2389
GlyphClass: 1
Flags: W
LayerCount: 2
Fore
SplineSet
171 512 m 1,0,-1
 1195 1536 l 1,1,-1
 2219 512 l 1,2,-1
 1707 512 l 1,3,-1
 1707 0 l 1,4,-1
 683 0 l 1,5,-1
 683 512 l 1,6,-1
 171 512 l 1,0,-1
1195 1279 m 1,7,-1
 597 683 l 1,8,-1
 853 683 l 1,9,-1
 853 171 l 1,10,-1
 1536 171 l 1,11,-1
 1536 683 l 1,12,-1
 1792 683 l 1,13,-1
 1195 1279 l 1,7,-1
EndSplineSet
Validated: 1
EndChar

StartChar: uni0005
Encoding: 5 5 8
Width: 2389
GlyphClass: 1
Flags: W
LayerCount: 2
Fore
SplineSet
683 0 m 1,0,-1
 1707 0 l 1,1,-1
 1707 -512 l 1,2,-1
 683 -512 l 1,3,-1
 683 0 l 1,0,-1
853 -171 m 1,4,-1
 853 -341 l 1,5,-1
 1536 -341 l 1,6,-1
 1536 -171 l 1,7,-1
 853 -171 l 1,4,-1
171 512 m 1,8,-1
 1195 1536 l 1,9,-1
 2219 512 l 1,10,-1
 1707 512 l 1,11,-1
 1707 171 l 1,12,-1
 683 171 l 1,13,-1
 683 512 l 1,14,-1
 171 512 l 1,8,-1
939 1024 m 1,15,-1
 1451 1024 l 1,16,-1
 1195 1279 l 1,17,-1
 939 1024 l 1,15,-1
1621 853 m 1,18,-1
 768 853 l 1,19,-1
 597 683 l 1,20,-1
 853 683 l 1,21,-1
 853 341 l 1,22,-1
 1536 341 l 1,23,-1
 1536 683 l 1,24,-1
 1792 683 l 1,25,-1
 1621 853 l 1,18,-1
EndSplineSet
Validated: 1
EndChar

StartChar: uni0006
Encoding: 6 6 9
Width: 1877
GlyphClass: 1
Flags: W
LayerCount: 2
Fore
SplineSet
342 768 m 1,0,1
 359 466 359 466 544.5 318 c 128,-1,2
 730 170 730 170 939 170 c 0,3,4
 1183 170 1183 170 1359.5 346 c 128,-1,5
 1536 522 1536 522 1536 767 c 0,6,7
 1536 978 1536 978 1387.5 1163 c 128,-1,8
 1239 1348 1239 1348 939 1365 c 1,9,-1
 939 1536 l 1,10,11
 1328 1513 1328 1513 1517.5 1274.5 c 128,-1,12
 1707 1036 1707 1036 1707 767 c 0,13,14
 1707 455 1707 455 1481 227.5 c 128,-1,15
 1255 0 1255 0 939 0 c 0,16,17
 669 0 669 0 431 190.5 c 128,-1,18
 193 381 193 381 171 768 c 1,19,-1
 342 768 l 1,0,1
999 828 m 1,20,-1
 878 707 l 1,21,-1
 412 1174 l 1,22,-1
 171 933 l 1,23,-1
 171 1536 l 1,24,-1
 774 1536 l 1,25,-1
 533 1294 l 1,26,-1
 999 828 l 1,20,-1
EndSplineSet
Validated: 1
EndChar

StartChar: uni0007
Encoding: 7 7 10
Width: 1365
GlyphClass: 1
Flags: W
LayerCount: 2
Fore
SplineSet
171 -341 m 1,0,-1
 171 0 l 1,1,-1
 342 0 l 1,2,-1
 342 -171 l 1,3,-1
 1024 -171 l 1,4,-1
 1024 0 l 1,5,-1
 1195 0 l 1,6,-1
 1195 -341 l 1,7,-1
 171 -341 l 1,0,-1
EndSplineSet
Validated: 1
EndChar

StartChar: uni0008
Encoding: 8 8 11
Width: 2219
GlyphClass: 1
Flags: W
LayerCount: 2
Fore
SplineSet
1365 889 m 1,0,-1
 1606 1130 l 1,1,-1
 1727 1009 l 1,2,-1
 1486 768 l 1,3,-1
 1727 527 l 1,4,-1
 1606 406 l 1,5,-1
 1365 647 l 1,6,-1
 1124 406 l 1,7,-1
 1003 527 l 1,8,-1
 1245 768 l 1,9,-1
 1003 1009 l 1,10,-1
 1124 1130 l 1,11,-1
 1365 889 l 1,0,-1
853 0 m 1,12,-1
 85 768 l 1,13,-1
 853 1536 l 1,14,-1
 2048 1536 l 1,15,-1
 2048 0 l 1,16,-1
 853 0 l 1,12,-1
341 768 m 1,17,-1
 939 171 l 1,18,-1
 1877 171 l 1,19,-1
 1877 1365 l 1,20,-1
 939 1365 l 1,21,-1
 341 768 l 1,17,-1
EndSplineSet
Validated: 1
EndChar

StartChar: uni000A
Encoding: 10 10 13
Width: 1877
GlyphClass: 1
Flags: W
LayerCount: 2
Fore
SplineSet
171 853 m 1,0,-1
 1024 853 l 1,1,-1
 1024 1195 l 1,2,-1
 1451 768 l 1,3,-1
 1024 341 l 1,4,-1
 1024 683 l 1,5,-1
 171 683 l 1,6,-1
 171 853 l 1,0,-1
1536 1365 m 1,7,-1
 1707 1365 l 1,8,-1
 1707 171 l 1,9,-1
 1536 171 l 1,10,-1
 1536 1365 l 1,7,-1
EndSplineSet
Validated: 1
EndChar

StartChar: uni000B
Encoding: 11 11 14
Width: 2219
GlyphClass: 1
Flags: W
LayerCount: 2
Fore
SplineSet
171 512 m 1,0,-1
 171 683 l 1,1,-1
 598 683 l 1,2,-1
 598 512 l 1,3,-1
 171 512 l 1,0,-1
171 1365 m 1,4,-1
 171 1536 l 1,5,-1
 1195 1536 l 1,6,-1
 1195 1365 l 1,7,-1
 171 1365 l 1,4,-1
2048 1536 m 1,8,-1
 2048 512 l 1,9,-1
 1195 512 l 1,10,-1
 1195 171 l 1,11,-1
 768 597 l 1,12,-1
 1195 1024 l 1,13,-1
 1195 683 l 1,14,-1
 1878 683 l 1,15,-1
 1878 1365 l 1,16,-1
 1536 1365 l 1,17,-1
 1536 1536 l 1,18,-1
 2048 1536 l 1,8,-1
EndSplineSet
Validated: 1
EndChar

StartChar: uni000C
Encoding: 12 12 15
Width: 1707
GlyphClass: 1
Flags: W
LayerCount: 2
Fore
SplineSet
1024 1365 m 1,0,-1
 1024 1109 l 1,1,-1
 1280 1109 l 1,2,-1
 1024 1365 l 1,0,-1
1536 1109 m 1,3,-1
 1536 0 l 1,4,-1
 171 0 l 1,5,-1
 171 1536 l 1,6,-1
 1110 1536 l 1,7,-1
 1536 1109 l 1,3,-1
854 939 m 1,8,-1
 854 1365 l 1,9,-1
 342 1365 l 1,10,-1
 342 171 l 1,11,-1
 1366 171 l 1,12,-1
 1366 939 l 1,13,-1
 854 939 l 1,8,-1
683 768 m 1,14,-1
 1024 768 l 1,15,-1
 1024 597 l 1,16,-1
 1195 597 l 1,17,-1
 854 256 l 1,18,-1
 512 597 l 1,19,-1
 683 597 l 1,20,-1
 683 768 l 1,14,-1
EndSplineSet
Validated: 1
EndChar

StartChar: uni000E
Encoding: 14 14 16
Width: 2219
GlyphClass: 1
Flags: W
LayerCount: 2
Fore
SplineSet
2068 1536 m 1,0,-1
 1556 512 l 1,1,-1
 598 512 l 1,2,-1
 598 171 l 1,3,-1
 171 597 l 1,4,-1
 598 1024 l 1,5,-1
 598 683 l 1,6,-1
 1451 683 l 1,7,-1
 1792 1365 l 1,8,-1
 1451 1365 l 1,9,-1
 1451 1536 l 1,10,-1
 2068 1536 l 1,0,-1
EndSplineSet
Validated: 1
EndChar

StartChar: uni000F
Encoding: 15 15 17
Width: 1365
GlyphClass: 1
Flags: W
LayerCount: 2
Fore
SplineSet
171 -341 m 1,0,-1
 171 -171 l 1,1,-1
 0 -171 l 1,2,-1
 0 0 l 1,3,-1
 342 0 l 1,4,-1
 342 -171 l 1,5,-1
 1024 -171 l 1,6,-1
 1024 0 l 1,7,-1
 1366 0 l 1,8,-1
 1366 -171 l 1,9,-1
 1195 -171 l 1,10,-1
 1195 -341 l 1,11,-1
 171 -341 l 1,0,-1
EndSplineSet
Validated: 1
EndChar

StartChar: uni0010
Encoding: 16 16 18
Width: 2219
GlyphClass: 1
Flags: W
LayerCount: 2
Fore
SplineSet
1965 1380 m 1,0,1
 1859 1305 1859 1305 1814 1244.5 c 128,-1,2
 1769 1184 1769 1184 1746.5 1117.5 c 128,-1,3
 1724 1051 1724 1051 1724 972 c 0,4,5
 1724 881 1724 881 1754 807.5 c 128,-1,6
 1784 734 1784 734 1839 666 c 128,-1,7
 1894 598 1894 598 2020 533 c 1,8,9
 1970 387 1970 387 1867 237 c 128,-1,10
 1764 87 1764 87 1679 24 c 128,-1,11
 1594 -39 1594 -39 1514 -39 c 0,12,13
 1456 -39 1456 -39 1355 0 c 2,14,-1
 1322 13 l 2,15,16
 1261 37 1261 37 1239.5 41.5 c 128,-1,17
 1218 46 1218 46 1192.5 49 c 128,-1,18
 1167 52 1167 52 1145 52 c 0,19,20
 1073 52 1073 52 988 21 c 2,21,-1
 947 6 l 1,22,-1
 896 -15 l 2,23,24
 833 -39 833 -39 775 -39 c 0,25,26
 644 -39 644 -39 496 142.5 c 128,-1,27
 348 324 348 324 273 533 c 128,-1,28
 198 742 198 742 198 954 c 0,29,30
 198 1227 198 1227 354 1408.5 c 128,-1,31
 510 1590 510 1590 775 1590 c 0,32,33
 872 1590 872 1590 957 1555 c 2,34,-1
 997 1538 l 1,35,-1
 1037 1522 l 2,36,37
 1093 1499 1093 1499 1124 1499 c 0,38,39
 1170 1499 1170 1499 1220 1518 c 2,40,-1
 1274 1540 l 1,41,-1
 1313 1554 l 2,42,43
 1331 1561 1331 1561 1395 1575 c 128,-1,44
 1459 1589 1459 1589 1525 1589 c 0,45,46
 1611 1589 1611 1589 1687.5 1567.5 c 128,-1,47
 1764 1546 1764 1546 1830.5 1505.5 c 128,-1,48
 1897 1465 1897 1465 1965 1380 c 1,0,1
1703 1380 m 1,49,-1
 1687 1388 l 2,50,51
 1617 1419 1617 1419 1524 1419 c 0,52,53
 1492 1419 1492 1419 1467.5 1415 c 128,-1,54
 1443 1411 1443 1411 1411 1403.5 c 128,-1,55
 1379 1396 1379 1396 1372 1394 c 2,56,-1
 1336 1381 l 1,57,-1
 1283 1360 l 2,58,59
 1197 1328 1197 1328 1123 1328 c 0,60,61
 1057 1328 1057 1328 973 1364 c 2,62,-1
 932 1381 l 1,63,-1
 892 1397 l 2,64,65
 839 1419 839 1419 776 1419 c 0,66,67
 573 1419 573 1419 471 1283.5 c 128,-1,68
 369 1148 369 1148 369 956 c 0,69,70
 369 794 369 794 421 628.5 c 128,-1,71
 473 463 473 463 594 297.5 c 128,-1,72
 715 132 715 132 774 132 c 0,73,74
 805 132 805 132 835 145 c 2,75,-1
 889 167 l 1,76,-1
 930 181 l 2,77,78
 1043 222 1043 222 1145 222 c 0,79,80
 1178 222 1178 222 1214 218 c 128,-1,81
 1250 214 1250 214 1281 207 c 128,-1,82
 1312 200 1312 200 1384 172 c 2,83,-1
 1416 160 l 2,84,85
 1488 132 1488 132 1515 132 c 0,86,87
 1554 132 1554 132 1626 206 c 128,-1,88
 1698 280 1698 280 1761 387 c 2,89,-1
 1806 463 l 1,90,-1
 1792 473 l 2,91,92
 1708 536 1708 536 1631 670.5 c 128,-1,93
 1554 805 1554 805 1554 972 c 0,94,95
 1554 1205 1554 1205 1700 1376 c 1,96,-1
 1703 1380 l 1,49,-1
1533 2074 m 1,97,98
 1536 2037 1536 2037 1536 2018 c 0,99,100
 1536 1865 1536 1865 1414 1714 c 128,-1,101
 1292 1563 1292 1563 1096 1563 c 1,102,103
 1092 1603 1092 1603 1092 1622 c 0,104,105
 1092 1760 1092 1760 1209 1901.5 c 128,-1,106
 1326 2043 1326 2043 1498 2069 c 2,107,-1
 1533 2074 l 1,97,98
EndSplineSet
Validated: 1
EndChar

StartChar: uni0011
Encoding: 17 17 19
Width: 1877
GlyphClass: 1
Flags: W
LayerCount: 2
Fore
SplineSet
683 853 m 1,0,-1
 512 853 l 2,1,2
 371 853 371 853 271 954.5 c 128,-1,3
 171 1056 171 1056 171 1194 c 0,4,5
 171 1335 171 1335 272 1435.5 c 128,-1,6
 373 1536 373 1536 512 1536 c 0,7,8
 652 1536 652 1536 753 1435 c 128,-1,9
 854 1334 854 1334 854 1195 c 2,10,-1
 854 1024 l 1,11,-1
 1024 1024 l 1,12,-1
 1024 1195 l 2,13,14
 1024 1336 1024 1336 1125.5 1436 c 128,-1,15
 1227 1536 1227 1536 1365 1536 c 0,16,17
 1505 1536 1505 1536 1606 1435.5 c 128,-1,18
 1707 1335 1707 1335 1707 1195 c 0,19,20
 1707 1056 1707 1056 1607 954.5 c 128,-1,21
 1507 853 1507 853 1365 853 c 2,22,-1
 1195 853 l 1,23,-1
 1195 683 l 1,24,-1
 1366 683 l 2,25,26
 1505 683 1505 683 1606 582 c 128,-1,27
 1707 481 1707 481 1707 341 c 0,28,29
 1707 203 1707 203 1607 101.5 c 128,-1,30
 1507 0 1507 0 1366 0 c 0,31,32
 1226 0 1226 0 1125 100.5 c 128,-1,33
 1024 201 1024 201 1024 341 c 2,34,-1
 1024 512 l 1,35,-1
 854 512 l 1,36,-1
 854 341 l 2,37,38
 854 202 854 202 753.5 101 c 128,-1,39
 653 0 653 0 512 0 c 0,40,41
 373 0 373 0 272 100 c 128,-1,42
 171 200 171 200 171 341 c 256,43,44
 171 482 171 482 272 582.5 c 128,-1,45
 373 683 373 683 512 683 c 2,46,-1
 683 683 l 1,47,-1
 683 853 l 1,0,-1
854 683 m 1,48,-1
 1024 683 l 1,49,-1
 1024 853 l 1,50,-1
 854 853 l 1,51,-1
 854 683 l 1,48,-1
683 1024 m 1,52,-1
 683 1195 l 2,53,54
 683 1265 683 1265 632.5 1315 c 128,-1,55
 582 1365 582 1365 512 1365 c 256,56,57
 442 1365 442 1365 392 1315 c 128,-1,58
 342 1265 342 1265 342 1195 c 256,59,60
 342 1125 342 1125 392 1074.5 c 128,-1,61
 442 1024 442 1024 512 1024 c 2,62,-1
 683 1024 l 1,52,-1
1195 1024 m 1,63,-1
 1366 1024 l 2,64,65
 1437 1024 1437 1024 1486.5 1075 c 128,-1,66
 1536 1126 1536 1126 1536 1195 c 0,67,68
 1536 1265 1536 1265 1485.5 1315 c 128,-1,69
 1435 1365 1435 1365 1366 1365 c 0,70,71
 1296 1365 1296 1365 1245.5 1315 c 128,-1,72
 1195 1265 1195 1265 1195 1195 c 2,73,-1
 1195 1024 l 1,63,-1
1195 512 m 1,74,-1
 1195 341 l 2,75,76
 1195 270 1195 270 1246 220.5 c 128,-1,77
 1297 171 1297 171 1366 171 c 0,78,79
 1436 171 1436 171 1486 221.5 c 128,-1,80
 1536 272 1536 272 1536 341 c 0,81,82
 1536 411 1536 411 1485.5 461.5 c 128,-1,83
 1435 512 1435 512 1366 512 c 2,84,-1
 1195 512 l 1,74,-1
683 512 m 1,85,-1
 512 512 l 2,86,87
 441 512 441 512 391.5 460.5 c 128,-1,88
 342 409 342 409 342 341 c 0,89,90
 342 271 342 271 392.5 221 c 128,-1,91
 443 171 443 171 512 171 c 0,92,93
 582 171 582 171 632.5 221 c 128,-1,94
 683 271 683 271 683 341 c 2,95,-1
 683 512 l 1,85,-1
EndSplineSet
Validated: 1
EndChar

StartChar: uni0012
Encoding: 18 18 20
Width: 1887
GlyphClass: 1
Flags: W
LayerCount: 2
Fore
SplineSet
85 512 m 1,0,-1
 255 684 l 1,1,-1
 597 341 l 1,2,-1
 1621 1365 l 1,3,-1
 1792 1195 l 1,4,-1
 597 0 l 1,5,-1
 85 512 l 1,0,-1
EndSplineSet
Validated: 1
EndChar

StartChar: uni0013
Encoding: 19 19 21
Width: 1536
GlyphClass: 1
Flags: W
LayerCount: 2
Fore
SplineSet
768 1195 m 1,0,-1
 1366 597 l 1,1,-1
 768 0 l 1,2,-1
 171 597 l 1,3,-1
 768 1195 l 1,0,-1
EndSplineSet
Validated: 1
EndChar

StartChar: uniE01E
Encoding: 20 20 22
AltUni2: 00e01e.ffffffff.0
Width: 1877
GlyphClass: 1
Flags: W
LayerCount: 2
Fore
SplineSet
812.5 1235 m 128,-1,1
 919 1204 919 1204 954 1204 c 0,2,3
 999 1204 999 1204 1101 1239 c 128,-1,4
 1203 1274 1203 1274 1278 1274 c 0,5,6
 1401 1274 1401 1274 1497 1208 c 0,7,8
 1551 1170 1551 1170 1604 1105 c 1,9,10
 1524 1037 1524 1037 1487 984 c 0,11,12
 1420 888 1420 888 1420 772 c 0,13,14
 1420 645 1420 645 1491 543 c 128,-1,15
 1562 441 1562 441 1653 414 c 1,16,17
 1615 291 1615 291 1527 157 c 0,18,19
 1394 -44 1394 -44 1263 -44 c 0,20,21
 1211 -44 1211 -44 1119.5 -11 c 128,-1,22
 1028 22 1028 22 965 22 c 256,23,24
 902 22 902 22 818.5 -12.5 c 128,-1,25
 735 -47 735 -47 683 -47 c 0,26,27
 526 -47 526 -47 375 219 c 0,28,29
 224 482 224 482 224 735 c 0,30,31
 224 970 224 970 339.5 1118 c 128,-1,32
 455 1266 455 1266 631 1266 c 0,33,0
 706 1266 706 1266 812.5 1235 c 128,-1,1
1266 1637 m 128,-1,35
 1267 1627 1267 1627 1267 1617 c 0,36,37
 1267 1553 1267 1553 1237 1477 c 128,-1,38
 1207 1401 1207 1401 1142 1336 c 0,39,40
 1086 1281 1086 1281 1031 1262 c 0,41,42
 996 1251 996 1251 925 1245 c 1,43,44
 927 1397 927 1397 1004.5 1508 c 128,-1,45
 1082 1619 1082 1619 1261 1660 c 1,46,34
 1265 1647 1265 1647 1266 1637 c 128,-1,35
EndSplineSet
Validated: 1
EndChar

StartChar: uni0015
Encoding: 21 21 23
Width: 2219
GlyphClass: 1
Flags: W
LayerCount: 2
Fore
SplineSet
854 889 m 1,0,-1
 1096 1130 l 1,1,-1
 1216 1009 l 1,2,-1
 975 768 l 1,3,-1
 1216 527 l 1,4,-1
 1096 406 l 1,5,-1
 854 647 l 1,6,-1
 613 406 l 1,7,-1
 492 527 l 1,8,-1
 733 768 l 1,9,-1
 492 1009 l 1,10,-1
 613 1130 l 1,11,-1
 854 889 l 1,0,-1
1366 0 m 1,12,-1
 171 0 l 1,13,-1
 171 1536 l 1,14,-1
 1366 1536 l 1,15,-1
 2134 768 l 1,16,-1
 1366 0 l 1,12,-1
1878 768 m 1,17,-1
 1281 1365 l 1,18,-1
 342 1365 l 1,19,-1
 342 171 l 1,20,-1
 1281 171 l 1,21,-1
 1878 768 l 1,17,-1
EndSplineSet
Validated: 1
EndChar

StartChar: uni0016
Encoding: 22 22 24
Width: 1877
GlyphClass: 1
Flags: W
LayerCount: 2
Fore
SplineSet
1707 853 m 1,0,-1
 1707 683 l 1,1,-1
 854 683 l 1,2,-1
 854 341 l 1,3,-1
 427 768 l 1,4,-1
 854 1195 l 1,5,-1
 854 853 l 1,6,-1
 1707 853 l 1,0,-1
342 1365 m 1,7,-1
 342 171 l 1,8,-1
 171 171 l 1,9,-1
 171 1365 l 1,10,-1
 342 1365 l 1,7,-1
EndSplineSet
Validated: 1
EndChar

StartChar: uni0017
Encoding: 23 23 25
Width: 2219
GlyphClass: 1
Flags: W
LayerCount: 2
Fore
SplineSet
151 1536 m 1,0,-1
 768 1536 l 1,1,-1
 768 1365 l 1,2,-1
 427 1365 l 1,3,-1
 768 683 l 1,4,-1
 1621 683 l 1,5,-1
 1621 1024 l 1,6,-1
 2048 597 l 1,7,-1
 1621 171 l 1,8,-1
 1621 512 l 1,9,-1
 663 512 l 1,10,-1
 151 1536 l 1,0,-1
EndSplineSet
Validated: 1
EndChar

StartChar: uni0018
Encoding: 24 24 26
Width: 2219
GlyphClass: 1
Flags: W
LayerCount: 2
Fore
SplineSet
2048 512 m 1,0,-1
 1621 512 l 1,1,-1
 1621 683 l 1,2,-1
 2048 683 l 1,3,-1
 2048 512 l 1,0,-1
2048 1365 m 1,4,-1
 1024 1365 l 1,5,-1
 1024 1536 l 1,6,-1
 2048 1536 l 1,7,-1
 2048 1365 l 1,4,-1
171 1536 m 1,8,-1
 683 1536 l 1,9,-1
 683 1365 l 1,10,-1
 342 1365 l 1,11,-1
 342 683 l 1,12,-1
 1024 683 l 1,13,-1
 1024 1024 l 1,14,-1
 1451 597 l 1,15,-1
 1024 171 l 1,16,-1
 1024 512 l 1,17,-1
 171 512 l 1,18,-1
 171 1536 l 1,8,-1
EndSplineSet
Validated: 1
EndChar

StartChar: uni007F
Encoding: 25 25 27
AltUni2: 00007f.ffffffff.0 00001f.ffffffff.0 00001e.ffffffff.0 00001c.ffffffff.0 00001b.ffffffff.0 00001a.ffffffff.0
Width: 1024
GlyphClass: 1
Flags: W
LayerCount: 2
Fore
SplineSet
877 0 m 1,0,-1
 147 0 l 1,1,-1
 147 1552 l 1,2,-1
 877 1552 l 1,3,-1
 877 0 l 1,0,-1
727 1402 m 1,4,-1
 297 1402 l 1,5,-1
 297 150 l 1,6,-1
 727 150 l 1,7,-1
 727 1402 l 1,4,-1
EndSplineSet
Validated: 1
EndChar

StartChar: exclam
Encoding: 33 33 28
Width: 1024
GlyphClass: 1
Flags: W
LayerCount: 2
Fore
SplineSet
341 512 m 1,0,-1
 341 1536 l 1,1,-1
 682 1536 l 1,2,-1
 682 512 l 1,3,-1
 341 512 l 1,0,-1
341 0 m 1,4,-1
 341 341 l 1,5,-1
 682 341 l 1,6,-1
 682 0 l 1,7,-1
 341 0 l 1,4,-1
EndSplineSet
Validated: 1
EndChar

StartChar: quotedbl
Encoding: 34 34 29
Width: 1195
GlyphClass: 1
Flags: W
LayerCount: 2
Fore
SplineSet
341 1024 m 1,0,-1
 341 1536 l 1,1,-1
 512 1536 l 1,2,-1
 512 1024 l 1,3,-1
 341 1024 l 1,0,-1
682 1024 m 1,4,-1
 682 1536 l 1,5,-1
 853 1536 l 1,6,-1
 853 1024 l 1,7,-1
 682 1024 l 1,4,-1
EndSplineSet
Validated: 1
EndChar

StartChar: numbersign
Encoding: 35 35 30
Width: 1707
GlyphClass: 1
Flags: W
LayerCount: 2
Fore
SplineSet
683 1536 m 1,0,-1
 853 1536 l 1,1,-1
 768 1195 l 1,2,-1
 1109 1195 l 1,3,-1
 1195 1536 l 1,4,-1
 1365 1536 l 1,5,-1
 1280 1195 l 1,6,-1
 1536 1195 l 1,7,-1
 1536 1024 l 1,8,-1
 1237 1024 l 1,9,-1
 1152 683 l 1,10,-1
 1365 683 l 1,11,-1
 1365 512 l 1,12,-1
 1109 512 l 1,13,-1
 1024 171 l 1,14,-1
 853 171 l 1,15,-1
 939 512 l 1,16,-1
 597 512 l 1,17,-1
 512 171 l 1,18,-1
 341 171 l 1,19,-1
 427 512 l 1,20,-1
 171 512 l 1,21,-1
 171 683 l 1,22,-1
 469 683 l 1,23,-1
 555 1024 l 1,24,-1
 341 1024 l 1,25,-1
 341 1195 l 1,26,-1
 597 1195 l 1,27,-1
 683 1536 l 1,0,-1
725 1024 m 1,28,-1
 640 683 l 1,29,-1
 981 683 l 1,30,-1
 1067 1024 l 1,31,-1
 725 1024 l 1,28,-1
EndSplineSet
Validated: 1
EndChar

StartChar: dollar
Encoding: 36 36 31
Width: 1195
GlyphClass: 1
Flags: W
LayerCount: 2
Fore
SplineSet
1024 1195 m 1,0,-1
 854 1195 l 1,1,2
 832 1365 832 1365 683 1365 c 1,3,-1
 683 896 l 1,4,-1
 924 668 l 2,5,6
 1024 574 1024 574 1024 427 c 2,7,-1
 1024 341 l 2,8,9
 1024 39 1024 39 683 0 c 1,10,-1
 683 -171 l 1,11,-1
 512 -171 l 1,12,-1
 512 0 l 1,13,14
 171 28 171 28 171 341 c 1,15,-1
 342 341 l 1,16,-1
 341 312 l 1,17,18
 341 188 341 188 512 171 c 1,19,-1
 512 640 l 1,20,-1
 271 868 l 2,21,22
 171 962 171 962 171 1109 c 2,23,-1
 171 1195 l 2,24,25
 171 1497 171 1497 512 1536 c 1,26,-1
 512 1707 l 1,27,-1
 683 1707 l 1,28,-1
 683 1536 l 1,29,30
 1003 1536 1003 1536 1024 1195 c 1,0,-1
683 512 m 1,31,-1
 683 171 l 1,32,33
 788 214 788 214 788 330 c 0,34,35
 788 407 788 407 683 512 c 1,31,-1
512 1365 m 1,36,37
 407 1322 407 1322 407 1206 c 0,38,39
 407 1160 407 1160 433 1120 c 128,-1,40
 459 1080 459 1080 512 1024 c 1,41,-1
 512 1365 l 1,36,37
EndSplineSet
Validated: 1
EndChar

StartChar: percent
Encoding: 37 37 32
Width: 1877
GlyphClass: 1
Flags: W
LayerCount: 2
Fore
SplineSet
171 1194 m 0,0,1
 171 1335 171 1335 272 1435.5 c 128,-1,2
 373 1536 373 1536 512 1536 c 0,3,4
 652 1536 652 1536 753 1435.5 c 128,-1,5
 854 1335 854 1335 854 1194 c 0,6,7
 854 1056 854 1056 754 954.5 c 128,-1,8
 654 853 654 853 512 853 c 0,9,10
 371 853 371 853 271 954.5 c 128,-1,11
 171 1056 171 1056 171 1194 c 0,0,1
854 1536 m 1,12,-1
 1451 1536 l 1,13,-1
 598 0 l 1,14,-1
 427 0 l 1,15,-1
 1195 1365 l 1,16,-1
 854 1365 l 1,17,-1
 854 1536 l 1,12,-1
342 1194 m 0,18,19
 342 1125 342 1125 392 1074.5 c 128,-1,20
 442 1024 442 1024 512 1024 c 0,21,22
 583 1024 583 1024 633 1074.5 c 128,-1,23
 683 1125 683 1125 683 1194 c 0,24,25
 683 1265 683 1265 632.5 1315 c 128,-1,26
 582 1365 582 1365 512 1365 c 256,27,28
 442 1365 442 1365 392 1315 c 128,-1,29
 342 1265 342 1265 342 1194 c 0,18,19
1024 341 m 0,30,31
 1024 481 1024 481 1125 582 c 128,-1,32
 1226 683 1226 683 1366 683 c 0,33,34
 1505 683 1505 683 1606 582 c 128,-1,35
 1707 481 1707 481 1707 341 c 0,36,37
 1707 203 1707 203 1607 101.5 c 128,-1,38
 1507 0 1507 0 1366 0 c 0,39,40
 1224 0 1224 0 1124 101 c 128,-1,41
 1024 202 1024 202 1024 341 c 0,30,31
1195 341 m 0,42,43
 1195 272 1195 272 1245 221.5 c 128,-1,44
 1295 171 1295 171 1366 171 c 0,45,46
 1436 171 1436 171 1486 221.5 c 128,-1,47
 1536 272 1536 272 1536 341 c 0,48,49
 1536 411 1536 411 1485.5 461.5 c 128,-1,50
 1435 512 1435 512 1366 512 c 0,51,52
 1296 512 1296 512 1245.5 461.5 c 128,-1,53
 1195 411 1195 411 1195 341 c 0,42,43
EndSplineSet
Validated: 1
EndChar

StartChar: ampersand
Encoding: 38 38 33
Width: 1707
GlyphClass: 1
Flags: W
LayerCount: 2
Fore
SplineSet
1366 1024 m 1,0,-1
 1536 1024 l 1,1,-1
 1536 853 l 2,2,3
 1536 707 1536 707 1438.5 609.5 c 128,-1,4
 1341 512 1341 512 1210 512 c 2,5,-1
 1195 512 l 1,6,-1
 1195 341 l 2,7,8
 1195 228 1195 228 1096.5 114 c 128,-1,9
 998 0 998 0 854 0 c 2,10,-1
 512 0 l 2,11,12
 368 0 368 0 269.5 114 c 128,-1,13
 171 228 171 228 171 341 c 2,14,-1
 171 512 l 2,15,16
 171 627 171 627 256 740 c 128,-1,17
 341 853 341 853 512 853 c 1,18,19
 171 893 171 893 171 1195 c 0,20,21
 171 1334 171 1334 271.5 1435 c 128,-1,22
 372 1536 372 1536 512 1536 c 2,23,-1
 854 1536 l 2,24,25
 994 1536 994 1536 1094.5 1435 c 128,-1,26
 1195 1334 1195 1334 1195 1195 c 2,27,-1
 1195 1024 l 1,28,-1
 854 1024 l 1,29,-1
 854 1195 l 2,30,31
 854 1266 854 1266 803.5 1315.5 c 128,-1,32
 753 1365 753 1365 683 1365 c 256,33,34
 613 1365 613 1365 562.5 1315.5 c 128,-1,35
 512 1266 512 1266 512 1195 c 2,36,-1
 512 1109 l 2,37,38
 512 959 512 959 683 939 c 1,39,-1
 683 768 l 1,40,41
 512 746 512 746 512 597 c 2,42,-1
 512 341 l 2,43,44
 512 256 512 256 562.5 213.5 c 128,-1,45
 613 171 613 171 683 171 c 256,46,47
 753 171 753 171 803.5 213.5 c 128,-1,48
 854 256 854 256 854 341 c 2,49,-1
 854 683 l 1,50,-1
 1195 683 l 2,51,52
 1266 683 1266 683 1316 732.5 c 128,-1,53
 1366 782 1366 782 1366 853 c 2,54,-1
 1366 1024 l 1,0,-1
EndSplineSet
Validated: 1
EndChar

StartChar: quotesingle
Encoding: 39 39 34
Width: 512
GlyphClass: 1
Flags: W
LayerCount: 2
Fore
SplineSet
171 1024 m 1,0,-1
 171 1536 l 1,1,-1
 342 1536 l 1,2,-1
 342 1024 l 1,3,-1
 171 1024 l 1,0,-1
EndSplineSet
Validated: 1
EndChar

StartChar: parenleft
Encoding: 40 40 35
Width: 853
GlyphClass: 1
Flags: W
LayerCount: 2
Fore
SplineSet
683 -171 m 1,0,-1
 669 -171 l 2,1,2
 483 -171 483 -171 327 -15 c 128,-1,3
 171 141 171 141 171 410 c 2,4,-1
 171 1126 l 2,5,6
 171 1395 171 1395 327 1551 c 128,-1,7
 483 1707 483 1707 669 1707 c 2,8,-1
 683 1707 l 1,9,-1
 683 1536 l 1,10,11
 512 1516 512 1516 512 1365 c 2,12,-1
 512 171 l 2,13,14
 512 19 512 19 683 0 c 1,15,-1
 683 -171 l 1,0,-1
EndSplineSet
Validated: 1
EndChar

StartChar: parenright
Encoding: 41 41 36
Width: 853
GlyphClass: 1
Flags: W
LayerCount: 2
Fore
SplineSet
171 1707 m 1,0,-1
 185 1707 l 2,1,2
 371 1707 371 1707 527 1551 c 128,-1,3
 683 1395 683 1395 683 1126 c 2,4,-1
 683 410 l 2,5,6
 683 141 683 141 527 -15 c 128,-1,7
 371 -171 371 -171 185 -171 c 2,8,-1
 171 -171 l 1,9,-1
 171 0 l 1,10,11
 341 20 341 20 341 171 c 2,12,-1
 342 1365 l 2,13,14
 342 1517 342 1517 171 1536 c 1,15,-1
 171 1707 l 1,0,-1
EndSplineSet
Validated: 1
EndChar

StartChar: asterisk
Encoding: 42 42 37
Width: 1195
GlyphClass: 1
Flags: W
LayerCount: 2
Fore
SplineSet
512 1172 m 1,0,-1
 512 1479 l 1,1,-1
 683 1479 l 1,2,-1
 683 1172 l 1,3,-1
 949 1325 l 1,4,-1
 1034 1178 l 1,5,-1
 768 1024 l 1,6,-1
 1034 870 l 1,7,-1
 949 723 l 1,8,-1
 682 876 l 1,9,-1
 682 569 l 1,10,-1
 512 569 l 1,11,-1
 512 876 l 1,12,-1
 246 723 l 1,13,-1
 161 870 l 1,14,-1
 427 1024 l 1,15,-1
 161 1178 l 1,16,-1
 246 1325 l 1,17,-1
 512 1172 l 1,0,-1
EndSplineSet
Validated: 1
EndChar

StartChar: plus
Encoding: 43 43 38
Width: 1195
GlyphClass: 1
Flags: W
LayerCount: 2
Fore
SplineSet
171 512 m 1,0,-1
 171 683 l 1,1,-1
 512 683 l 1,2,-1
 512 1024 l 1,3,-1
 683 1024 l 1,4,-1
 683 683 l 1,5,-1
 1024 683 l 1,6,-1
 1024 512 l 1,7,-1
 683 512 l 1,8,-1
 683 171 l 1,9,-1
 512 171 l 1,10,-1
 512 512 l 1,11,-1
 171 512 l 1,0,-1
EndSplineSet
Validated: 1
EndChar

StartChar: comma
Encoding: 44 44 39
Width: 683
GlyphClass: 1
Flags: W
LayerCount: 2
Fore
SplineSet
171 341 m 1,0,-1
 512 341 l 1,1,-1
 512 0 l 2,2,3
 512 -303 512 -303 171 -341 c 1,4,-1
 171 -171 l 1,5,6
 336 -165 336 -165 342 0 c 1,7,-1
 171 0 l 1,8,-1
 171 341 l 1,0,-1
EndSplineSet
Validated: 1
EndChar

StartChar: hyphen
Encoding: 45 45 40
Width: 1195
GlyphClass: 1
Flags: W
LayerCount: 2
Fore
SplineSet
171 512 m 1,0,-1
 171 683 l 1,1,-1
 1024 683 l 1,2,-1
 1024 512 l 1,3,-1
 171 512 l 1,0,-1
EndSplineSet
Validated: 1
EndChar

StartChar: period
Encoding: 46 46 41
Width: 683
GlyphClass: 1
Flags: W
LayerCount: 2
Fore
SplineSet
171 0 m 1,0,-1
 171 341 l 1,1,-1
 512 341 l 1,2,-1
 512 0 l 1,3,-1
 171 0 l 1,0,-1
EndSplineSet
Validated: 1
EndChar

StartChar: slash
Encoding: 47 47 42
Width: 1195
GlyphClass: 1
Flags: W
LayerCount: 2
Fore
SplineSet
171 0 m 1,0,-1
 854 1707 l 1,1,-1
 1024 1707 l 1,2,-1
 342 0 l 1,3,-1
 171 0 l 1,0,-1
EndSplineSet
Validated: 1
EndChar

StartChar: zero
Encoding: 48 48 43
Width: 1365
GlyphClass: 1
Flags: W
LayerCount: 2
Fore
SplineSet
512 1536 m 2,0,-1
 854 1536 l 2,1,2
 994 1536 994 1536 1094.5 1435 c 128,-1,3
 1195 1334 1195 1334 1195 1195 c 2,4,-1
 1195 341 l 2,5,6
 1195 202 1195 202 1094.5 101 c 128,-1,7
 994 0 994 0 854 0 c 2,8,-1
 512 0 l 2,9,10
 372 0 372 0 271.5 100.5 c 128,-1,11
 171 201 171 201 171 341 c 2,12,-1
 171 1195 l 2,13,14
 171 1335 171 1335 271.5 1435.5 c 128,-1,15
 372 1536 372 1536 512 1536 c 2,0,-1
516 314 m 1,16,17
 529 243 529 243 571 207 c 128,-1,18
 613 171 613 171 683 171 c 0,19,20
 754 171 754 171 804 221.5 c 128,-1,21
 854 272 854 272 854 341 c 2,22,-1
 854 921 l 1,23,-1
 516 314 l 1,16,17
851 1224 m 1,24,25
 816 1365 816 1365 683 1365 c 0,26,27
 613 1365 613 1365 562.5 1315 c 128,-1,28
 512 1265 512 1265 512 1195 c 2,29,-1
 512 614 l 1,30,-1
 851 1224 l 1,24,25
EndSplineSet
Validated: 1
EndChar

StartChar: one
Encoding: 49 49 44
Width: 1365
GlyphClass: 1
Flags: W
LayerCount: 2
Fore
SplineSet
512 0 m 1,0,-1
 512 1195 l 1,1,-1
 341 1195 l 1,2,-1
 341 1365 l 1,3,-1
 682 1536 l 1,4,-1
 853 1536 l 1,5,-1
 853 0 l 1,6,-1
 512 0 l 1,0,-1
EndSplineSet
Validated: 1
EndChar

StartChar: two
Encoding: 50 50 45
Width: 1365
GlyphClass: 1
Flags: W
LayerCount: 2
Fore
SplineSet
342 1195 m 1,0,-1
 171 1195 l 1,1,2
 211 1536 211 1536 512 1536 c 2,3,-1
 854 1536 l 2,4,5
 994 1536 994 1536 1094.5 1435 c 128,-1,6
 1195 1334 1195 1334 1195 1195 c 2,7,-1
 1195 1109 l 2,8,9
 1195 932 1195 932 865 650 c 2,10,-1
 842 630 l 2,11,12
 512 348 512 348 512 186 c 2,13,-1
 512 171 l 1,14,-1
 1195 171 l 1,15,-1
 1195 0 l 1,16,-1
 171 0 l 1,17,-1
 171 171 l 2,18,19
 171 348 171 348 501 630 c 2,20,-1
 524 650 l 2,21,22
 854 932 854 932 854 1109 c 2,23,-1
 854 1195 l 2,24,25
 854 1265 854 1265 803 1315 c 128,-1,26
 752 1365 752 1365 683 1365 c 2,27,-1
 512 1365 l 2,28,29
 354 1365 354 1365 342 1195 c 1,0,-1
EndSplineSet
Validated: 1
EndChar

StartChar: three
Encoding: 51 51 46
Width: 1365
GlyphClass: 1
Flags: W
LayerCount: 2
Fore
SplineSet
171 1536 m 1,0,-1
 1195 1536 l 1,1,-1
 1194 1365 l 1,2,-1
 683 1024 l 1,3,-1
 854 1024 l 2,4,5
 1001 1024 1001 1024 1098 911.5 c 128,-1,6
 1195 799 1195 799 1195 683 c 2,7,-1
 1195 341 l 2,8,9
 1195 201 1195 201 1094 100.5 c 128,-1,10
 993 0 993 0 854 0 c 2,11,-1
 512 0 l 2,12,13
 210 0 210 0 171 341 c 1,14,-1
 342 341 l 1,15,16
 354 171 354 171 512 171 c 2,17,-1
 683 171 l 2,18,19
 753 171 753 171 803.5 221 c 128,-1,20
 854 271 854 271 854 341 c 2,21,-1
 854 683 l 2,22,23
 854 723 854 723 811.5 788 c 128,-1,24
 769 853 769 853 683 853 c 2,25,-1
 342 853 l 1,26,-1
 342 1024 l 1,27,-1
 854 1365 l 1,28,-1
 171 1365 l 1,29,-1
 171 1536 l 1,0,-1
EndSplineSet
Validated: 1
EndChar

StartChar: four
Encoding: 52 52 47
Width: 1365
GlyphClass: 1
Flags: W
LayerCount: 2
Fore
SplineSet
683 683 m 1,0,-1
 683 1323 l 1,1,-1
 171 683 l 1,2,-1
 683 683 l 1,0,-1
683 0 m 1,3,-1
 683 512 l 1,4,-1
 0 512 l 1,5,-1
 0 683 l 1,6,-1
 683 1536 l 1,7,-1
 1024 1536 l 1,8,-1
 1024 683 l 1,9,-1
 1195 683 l 1,10,-1
 1195 512 l 1,11,-1
 1024 512 l 1,12,-1
 1024 0 l 1,13,-1
 683 0 l 1,3,-1
EndSplineSet
Validated: 1
EndChar

StartChar: five
Encoding: 53 53 48
Width: 1365
GlyphClass: 1
Flags: W
LayerCount: 2
Fore
SplineSet
171 1536 m 1,0,-1
 1195 1536 l 1,1,-1
 1194 1365 l 1,2,-1
 512 1365 l 1,3,-1
 512 1024 l 1,4,-1
 854 1024 l 2,5,6
 994 1024 994 1024 1094.5 923.5 c 128,-1,7
 1195 823 1195 823 1195 683 c 2,8,-1
 1195 341 l 2,9,10
 1195 201 1195 201 1094 100.5 c 128,-1,11
 993 0 993 0 854 0 c 2,12,-1
 512 0 l 2,13,14
 210 0 210 0 171 341 c 1,15,-1
 342 341 l 1,16,17
 354 171 354 171 512 171 c 2,18,-1
 683 171 l 2,19,20
 753 171 753 171 803.5 221 c 128,-1,21
 854 271 854 271 854 341 c 2,22,-1
 854 683 l 2,23,24
 854 753 854 753 803.5 803 c 128,-1,25
 753 853 753 853 683 853 c 2,26,-1
 171 853 l 1,27,-1
 171 1536 l 1,0,-1
EndSplineSet
Validated: 1
EndChar

StartChar: six
Encoding: 54 54 49
Width: 1365
GlyphClass: 1
Flags: W
LayerCount: 2
Fore
SplineSet
854 341 m 2,0,-1
 854 683 l 2,1,2
 854 753 854 753 803.5 803 c 128,-1,3
 753 853 753 853 683 853 c 256,4,5
 613 853 613 853 562.5 803 c 128,-1,6
 512 753 512 753 512 683 c 2,7,-1
 512 341 l 2,8,9
 512 272 512 272 562 221.5 c 128,-1,10
 612 171 612 171 683 171 c 256,11,12
 754 171 754 171 804 221.5 c 128,-1,13
 854 272 854 272 854 341 c 2,0,-1
512 853 m 1,14,15
 522 939 522 939 565 981.5 c 128,-1,16
 608 1024 608 1024 683 1024 c 2,17,-1
 854 1024 l 2,18,19
 994 1024 994 1024 1094.5 923.5 c 128,-1,20
 1195 823 1195 823 1195 683 c 2,21,-1
 1195 341 l 2,22,23
 1195 202 1195 202 1094.5 101 c 128,-1,24
 994 0 994 0 854 0 c 2,25,-1
 512 0 l 2,26,27
 372 0 372 0 271.5 101 c 128,-1,28
 171 202 171 202 171 341 c 2,29,-1
 171 939 l 2,30,31
 171 1184 171 1184 347.5 1360 c 128,-1,32
 524 1536 524 1536 768 1536 c 2,33,-1
 1024 1536 l 1,34,-1
 1024 1365 l 1,35,-1
 854 1365 l 2,36,37
 713 1365 713 1365 612.5 1264 c 128,-1,38
 512 1163 512 1163 512 1024 c 2,39,-1
 512 853 l 1,14,15
EndSplineSet
Validated: 1
EndChar

StartChar: seven
Encoding: 55 55 50
Width: 1365
GlyphClass: 1
Flags: W
LayerCount: 2
Fore
SplineSet
171 1536 m 1,0,-1
 1195 1536 l 1,1,-1
 1195 1195 l 1,2,-1
 1109 1024 l 1,3,-1
 1024 853 l 1,4,5
 853 494 853 494 853 341 c 2,6,-1
 853 0 l 1,7,-1
 512 0 l 1,8,-1
 512 341 l 2,9,10
 512 512 512 512 683 853 c 2,11,-1
 853 1195 l 1,12,-1
 853 1365 l 1,13,-1
 171 1365 l 1,14,-1
 171 1536 l 1,0,-1
EndSplineSet
Validated: 1
EndChar

StartChar: eight
Encoding: 56 56 51
Width: 1365
GlyphClass: 1
Flags: W
LayerCount: 2
Fore
SplineSet
854 768 m 1,0,1
 1025 768 1025 768 1110 657.5 c 128,-1,2
 1195 547 1195 547 1195 427 c 2,3,-1
 1195 341 l 2,4,5
 1195 228 1195 228 1096.5 114 c 128,-1,6
 998 0 998 0 854 0 c 2,7,-1
 512 0 l 2,8,9
 368 0 368 0 269.5 114 c 128,-1,10
 171 228 171 228 171 341 c 2,11,-1
 171 427 l 2,12,13
 171 547 171 547 256 657.5 c 128,-1,14
 341 768 341 768 512 768 c 1,15,16
 342 788 342 788 256.5 873.5 c 128,-1,17
 171 959 171 959 171 1109 c 2,18,-1
 171 1195 l 2,19,20
 171 1334 171 1334 271.5 1435 c 128,-1,21
 372 1536 372 1536 512 1536 c 2,22,-1
 854 1536 l 2,23,24
 994 1536 994 1536 1094.5 1435 c 128,-1,25
 1195 1334 1195 1334 1195 1195 c 2,26,-1
 1195 1109 l 2,27,28
 1195 959 1195 959 1110 873.5 c 128,-1,29
 1025 788 1025 788 854 768 c 1,0,1
854 1024 m 2,30,-1
 854 1195 l 2,31,32
 854 1265 854 1265 803.5 1315 c 128,-1,33
 753 1365 753 1365 683 1365 c 256,34,35
 613 1365 613 1365 562.5 1315 c 128,-1,36
 512 1265 512 1265 512 1195 c 2,37,-1
 512 1024 l 2,38,39
 512 954 512 954 562.5 903.5 c 128,-1,40
 613 853 613 853 683 853 c 256,41,42
 753 853 753 853 803.5 903.5 c 128,-1,43
 854 954 854 954 854 1024 c 2,30,-1
854 341 m 2,44,-1
 854 512 l 2,45,46
 854 683 854 683 683 683 c 256,47,48
 512 683 512 683 512 512 c 2,49,-1
 512 341 l 2,50,51
 512 271 512 271 562.5 221 c 128,-1,52
 613 171 613 171 683 171 c 256,53,54
 753 171 753 171 803.5 221 c 128,-1,55
 854 271 854 271 854 341 c 2,44,-1
EndSplineSet
Validated: 1
EndChar

StartChar: nine
Encoding: 57 57 52
Width: 1365
GlyphClass: 1
Flags: W
LayerCount: 2
Fore
SplineSet
512 1195 m 2,0,-1
 512 853 l 2,1,2
 512 784 512 784 562 733.5 c 128,-1,3
 612 683 612 683 683 683 c 0,4,5
 753 683 753 683 803.5 733.5 c 128,-1,6
 854 784 854 784 854 853 c 2,7,-1
 854 1195 l 2,8,9
 854 1265 854 1265 803.5 1315 c 128,-1,10
 753 1365 753 1365 683 1365 c 256,11,12
 613 1365 613 1365 562.5 1314.5 c 128,-1,13
 512 1264 512 1264 512 1195 c 2,0,-1
853 683 m 1,14,15
 834 512 834 512 683 512 c 2,16,-1
 512 512 l 2,17,18
 373 512 373 512 272 612.5 c 128,-1,19
 171 713 171 713 171 853 c 2,20,-1
 171 1195 l 2,21,22
 171 1334 171 1334 271.5 1435 c 128,-1,23
 372 1536 372 1536 512 1536 c 2,24,-1
 854 1536 l 2,25,26
 994 1536 994 1536 1094.5 1435 c 128,-1,27
 1195 1334 1195 1334 1195 1195 c 2,28,-1
 1195 597 l 2,29,30
 1195 353 1195 353 1019 176.5 c 128,-1,31
 843 0 843 0 597 0 c 2,32,-1
 342 0 l 1,33,-1
 342 171 l 1,34,-1
 512 171 l 2,35,36
 653 171 653 171 753 272 c 128,-1,37
 853 373 853 373 853 512 c 2,38,-1
 853 683 l 1,14,15
EndSplineSet
Validated: 1
EndChar

StartChar: colon
Encoding: 58 58 53
Width: 683
GlyphClass: 1
Flags: W
LayerCount: 2
Fore
SplineSet
171 0 m 1,0,-1
 171 341 l 1,1,-1
 512 341 l 1,2,-1
 512 0 l 1,3,-1
 171 0 l 1,0,-1
171 853 m 1,4,-1
 171 1195 l 1,5,-1
 512 1195 l 1,6,-1
 512 853 l 1,7,-1
 171 853 l 1,4,-1
EndSplineSet
Validated: 1
EndChar

StartChar: semicolon
Encoding: 59 59 54
Width: 683
GlyphClass: 1
Flags: W
LayerCount: 2
Fore
SplineSet
171 341 m 1,0,-1
 512 341 l 1,1,-1
 512 0 l 2,2,3
 512 -303 512 -303 171 -341 c 1,4,-1
 171 -171 l 1,5,6
 336 -165 336 -165 342 0 c 1,7,-1
 171 0 l 1,8,-1
 171 341 l 1,0,-1
171 853 m 1,9,-1
 171 1195 l 1,10,-1
 512 1195 l 1,11,-1
 512 853 l 1,12,-1
 171 853 l 1,9,-1
EndSplineSet
Validated: 1
EndChar

StartChar: less
Encoding: 60 60 55
Width: 1024
GlyphClass: 1
Flags: W
LayerCount: 2
Fore
SplineSet
34 768 m 1,0,-1
 717 1365 l 1,1,-1
 973 1365 l 1,2,-1
 290 768 l 1,3,-1
 973 171 l 1,4,-1
 717 171 l 1,5,-1
 34 768 l 1,0,-1
EndSplineSet
Validated: 1
EndChar

StartChar: equal
Encoding: 61 61 56
Width: 1365
GlyphClass: 1
Flags: W
LayerCount: 2
Fore
SplineSet
171 341 m 1,0,-1
 171 512 l 1,1,-1
 1195 512 l 1,2,-1
 1195 341 l 1,3,-1
 171 341 l 1,0,-1
171 683 m 1,4,-1
 171 853 l 1,5,-1
 1195 853 l 1,6,-1
 1195 683 l 1,7,-1
 171 683 l 1,4,-1
EndSplineSet
Validated: 1
EndChar

StartChar: greater
Encoding: 62 62 57
Width: 1024
GlyphClass: 1
Flags: W
LayerCount: 2
Fore
SplineSet
990 768 m 1,0,-1
 307 171 l 1,1,-1
 51 171 l 1,2,-1
 734 768 l 1,3,-1
 51 1365 l 1,4,-1
 307 1365 l 1,5,-1
 990 768 l 1,0,-1
EndSplineSet
Validated: 1
EndChar

StartChar: question
Encoding: 63 63 58
Width: 1365
GlyphClass: 1
Flags: W
LayerCount: 2
Fore
SplineSet
512 0 m 1,0,-1
 512 341 l 1,1,-1
 853 341 l 1,2,-1
 853 0 l 1,3,-1
 512 0 l 1,0,-1
512 512 m 1,4,-1
 512 683 l 2,5,6
 512 894 512 894 734 1029 c 2,7,-1
 761 1045 l 2,8,9
 853 1100 853 1100 853 1195 c 0,10,11
 853 1264 853 1264 803 1314.5 c 128,-1,12
 753 1365 753 1365 683 1365 c 2,13,-1
 512 1365 l 2,14,15
 354 1365 354 1365 341 1195 c 1,16,-1
 171 1195 l 1,17,18
 210 1536 210 1536 512 1536 c 2,19,-1
 853 1536 l 2,20,21
 993 1536 993 1536 1094 1435.5 c 128,-1,22
 1195 1335 1195 1335 1195 1195 c 0,23,24
 1195 973 1195 973 1000 887 c 2,25,-1
 972 875 l 2,26,27
 880 834 880 834 866.5 795 c 128,-1,28
 853 756 853 756 853 683 c 2,29,-1
 853 512 l 1,30,-1
 512 512 l 1,4,-1
EndSplineSet
Validated: 1
EndChar

StartChar: at
Encoding: 64 64 59
Width: 1877
GlyphClass: 1
Flags: W
LayerCount: 2
Fore
SplineSet
1024 1024 m 1,0,-1
 854 1024 l 2,1,2
 784 1024 784 1024 733.5 973.5 c 128,-1,3
 683 923 683 923 683 853 c 2,4,-1
 683 683 l 2,5,6
 683 613 683 613 733 562.5 c 128,-1,7
 783 512 783 512 854 512 c 0,8,9
 924 512 924 512 974 562.5 c 128,-1,10
 1024 613 1024 613 1024 683 c 2,11,-1
 1024 1024 l 1,0,-1
1366 0 m 1,12,-1
 769 0 l 2,13,14
 524 0 524 0 347.5 176.5 c 128,-1,15
 171 353 171 353 171 597 c 2,16,-1
 171 939 l 2,17,18
 171 1184 171 1184 347.5 1360 c 128,-1,19
 524 1536 524 1536 768 1536 c 2,20,-1
 1110 1536 l 2,21,22
 1354 1536 1354 1536 1530.5 1359.5 c 128,-1,23
 1707 1183 1707 1183 1707 939 c 2,24,-1
 1707 512 l 2,25,26
 1707 442 1707 442 1657 391.5 c 128,-1,27
 1607 341 1607 341 1536 341 c 2,28,-1
 1195 341 l 2,29,30
 1044 341 1044 341 1024 512 c 1,31,32
 1015 427 1015 427 966 384 c 128,-1,33
 917 341 917 341 824 341 c 0,34,35
 715 341 715 341 613.5 440.5 c 128,-1,36
 512 540 512 540 512 683 c 2,37,-1
 512 853 l 2,38,39
 512 994 512 994 613.5 1094.5 c 128,-1,40
 715 1195 715 1195 854 1195 c 2,41,-1
 1195 1195 l 1,42,-1
 1195 597 l 2,43,44
 1195 512 1195 512 1280 512 c 2,45,-1
 1451 512 l 2,46,47
 1536 512 1536 512 1536 597 c 2,48,-1
 1536 939 l 2,49,50
 1536 1111 1536 1111 1411.5 1238 c 128,-1,51
 1287 1365 1287 1365 1110 1365 c 2,52,-1
 768 1365 l 2,53,54
 596 1365 596 1365 469 1241 c 128,-1,55
 342 1117 342 1117 342 939 c 2,56,-1
 342 597 l 2,57,58
 342 425 342 425 466.5 298 c 128,-1,59
 591 171 591 171 769 171 c 2,60,-1
 1366 171 l 1,61,-1
 1366 0 l 1,12,-1
EndSplineSet
Validated: 1
EndChar

StartChar: A
Encoding: 65 65 60
Width: 1365
GlyphClass: 1
Flags: W
LayerCount: 2
Fore
SplineSet
171 0 m 1,0,-1
 171 1195 l 2,1,2
 171 1335 171 1335 271.5 1435.5 c 128,-1,3
 372 1536 372 1536 512 1536 c 2,4,-1
 854 1536 l 2,5,6
 994 1536 994 1536 1094.5 1435 c 128,-1,7
 1195 1334 1195 1334 1195 1195 c 2,8,-1
 1195 0 l 1,9,-1
 854 0 l 1,10,-1
 854 683 l 1,11,-1
 512 683 l 1,12,-1
 512 0 l 1,13,-1
 171 0 l 1,0,-1
512 853 m 1,14,-1
 854 853 l 1,15,-1
 854 1195 l 2,16,17
 854 1265 854 1265 803.5 1315 c 128,-1,18
 753 1365 753 1365 683 1365 c 256,19,20
 613 1365 613 1365 562.5 1315 c 128,-1,21
 512 1265 512 1265 512 1195 c 2,22,-1
 512 853 l 1,14,-1
EndSplineSet
Validated: 1
EndChar

StartChar: B
Encoding: 66 66 61
Width: 1365
GlyphClass: 1
Flags: W
LayerCount: 2
Fore
SplineSet
171 0 m 1,0,-1
 171 1536 l 1,1,-1
 854 1536 l 2,2,3
 994 1536 994 1536 1094.5 1435 c 128,-1,4
 1195 1334 1195 1334 1195 1195 c 2,5,-1
 1195 1109 l 2,6,7
 1195 959 1195 959 1110 873.5 c 128,-1,8
 1025 788 1025 788 854 768 c 1,9,10
 1025 768 1025 768 1110 665 c 128,-1,11
 1195 562 1195 562 1195 427 c 2,12,-1
 1195 341 l 2,13,14
 1195 202 1195 202 1094 101 c 128,-1,15
 993 0 993 0 854 0 c 2,16,-1
 171 0 l 1,0,-1
512 853 m 1,17,-1
 683 853 l 2,18,19
 753 853 753 853 803.5 903.5 c 128,-1,20
 854 954 854 954 854 1024 c 2,21,-1
 854 1195 l 2,22,23
 854 1265 854 1265 803.5 1315 c 128,-1,24
 753 1365 753 1365 683 1365 c 2,25,-1
 512 1365 l 1,26,-1
 512 853 l 1,17,-1
512 171 m 1,27,-1
 683 171 l 2,28,29
 753 171 753 171 803.5 221.5 c 128,-1,30
 854 272 854 272 854 341 c 2,31,-1
 854 512 l 2,32,33
 854 683 854 683 683 683 c 2,34,-1
 512 683 l 1,35,-1
 512 171 l 1,27,-1
EndSplineSet
Validated: 1
EndChar

StartChar: C
Encoding: 67 67 62
Width: 1365
GlyphClass: 1
Flags: W
LayerCount: 2
Fore
SplineSet
1195 341 m 1,0,1
 1173 0 1173 0 854 0 c 2,2,-1
 512 0 l 2,3,4
 372 0 372 0 271.5 100.5 c 128,-1,5
 171 201 171 201 171 341 c 2,6,-1
 171 1195 l 2,7,8
 171 1333 171 1333 270 1434.5 c 128,-1,9
 369 1536 369 1536 512 1536 c 2,10,-1
 854 1536 l 2,11,12
 1176 1536 1176 1536 1195 1195 c 1,13,-1
 1024 1195 l 1,14,15
 1004 1365 1004 1365 854 1365 c 2,16,-1
 683 1365 l 2,17,18
 613 1365 613 1365 562.5 1315 c 128,-1,19
 512 1265 512 1265 512 1195 c 2,20,-1
 512 341 l 2,21,22
 512 272 512 272 562 221.5 c 128,-1,23
 612 171 612 171 683 171 c 2,24,-1
 854 171 l 2,25,26
 1005 171 1005 171 1024 341 c 1,27,-1
 1195 341 l 1,0,1
EndSplineSet
Validated: 1
EndChar

StartChar: D
Encoding: 68 68 63
Width: 1365
GlyphClass: 1
Flags: W
LayerCount: 2
Fore
SplineSet
171 0 m 1,0,-1
 171 1536 l 1,1,-1
 854 1536 l 2,2,3
 994 1536 994 1536 1094.5 1435 c 128,-1,4
 1195 1334 1195 1334 1195 1195 c 2,5,-1
 1195 341 l 2,6,7
 1195 202 1195 202 1094.5 101 c 128,-1,8
 994 0 994 0 854 0 c 2,9,-1
 171 0 l 1,0,-1
512 171 m 1,10,-1
 683 171 l 2,11,12
 754 171 754 171 804 221.5 c 128,-1,13
 854 272 854 272 854 341 c 2,14,-1
 854 1195 l 2,15,16
 854 1265 854 1265 803.5 1315 c 128,-1,17
 753 1365 753 1365 683 1365 c 2,18,-1
 512 1365 l 1,19,-1
 512 171 l 1,10,-1
EndSplineSet
Validated: 1
EndChar

StartChar: E
Encoding: 69 69 64
Width: 1195
GlyphClass: 1
Flags: W
LayerCount: 2
Fore
SplineSet
171 0 m 1,0,-1
 171 1536 l 1,1,-1
 1024 1536 l 1,2,-1
 1024 1365 l 1,3,-1
 512 1365 l 1,4,-1
 512 853 l 1,5,-1
 854 853 l 1,6,-1
 854 683 l 1,7,-1
 512 683 l 1,8,-1
 512 171 l 1,9,-1
 1024 171 l 1,10,-1
 1024 0 l 1,11,-1
 171 0 l 1,0,-1
EndSplineSet
Validated: 1
EndChar

StartChar: F
Encoding: 70 70 65
Width: 1195
GlyphClass: 1
Flags: W
LayerCount: 2
Fore
SplineSet
171 0 m 1,0,-1
 171 1536 l 1,1,-1
 1024 1536 l 1,2,-1
 1024 1365 l 1,3,-1
 512 1365 l 1,4,-1
 512 853 l 1,5,-1
 854 853 l 1,6,-1
 854 683 l 1,7,-1
 512 683 l 1,8,-1
 512 0 l 1,9,-1
 171 0 l 1,0,-1
EndSplineSet
Validated: 1
EndChar

StartChar: G
Encoding: 71 71 66
Width: 1365
GlyphClass: 1
Flags: W
LayerCount: 2
Fore
SplineSet
683 853 m 1,0,-1
 1195 853 l 1,1,-1
 1195 341 l 2,2,3
 1195 171 1195 171 1086 85.5 c 128,-1,4
 977 0 977 0 854 0 c 2,5,-1
 512 0 l 2,6,7
 372 0 372 0 271.5 100.5 c 128,-1,8
 171 201 171 201 171 341 c 2,9,-1
 171 1195 l 2,10,11
 171 1333 171 1333 270 1434.5 c 128,-1,12
 369 1536 369 1536 512 1536 c 2,13,-1
 854 1536 l 2,14,15
 1176 1536 1176 1536 1195 1195 c 1,16,-1
 1024 1195 l 1,17,18
 1004 1365 1004 1365 854 1365 c 2,19,-1
 683 1365 l 2,20,21
 613 1365 613 1365 562.5 1315 c 128,-1,22
 512 1265 512 1265 512 1195 c 2,23,-1
 512 341 l 2,24,25
 512 270 512 270 562.5 220.5 c 128,-1,26
 613 171 613 171 683 171 c 0,27,28
 846 179 846 179 854 341 c 1,29,-1
 854 683 l 1,30,-1
 683 683 l 1,31,-1
 683 853 l 1,0,-1
EndSplineSet
Validated: 1
EndChar

StartChar: H
Encoding: 72 72 67
Width: 1365
GlyphClass: 1
Flags: W
LayerCount: 2
Fore
SplineSet
171 0 m 1,0,-1
 171 1536 l 1,1,-1
 512 1536 l 1,2,-1
 512 853 l 1,3,-1
 854 853 l 1,4,-1
 854 1536 l 1,5,-1
 1195 1536 l 1,6,-1
 1195 0 l 1,7,-1
 854 0 l 1,8,-1
 854 683 l 1,9,-1
 512 683 l 1,10,-1
 512 0 l 1,11,-1
 171 0 l 1,0,-1
EndSplineSet
Validated: 1
EndChar

StartChar: I
Encoding: 73 73 68
Width: 1024
GlyphClass: 1
Flags: W
LayerCount: 2
Fore
SplineSet
341 0 m 1,0,-1
 341 1536 l 1,1,-1
 682 1536 l 1,2,-1
 682 0 l 1,3,-1
 341 0 l 1,0,-1
EndSplineSet
Validated: 1
EndChar

StartChar: J
Encoding: 74 74 69
Width: 1195
GlyphClass: 1
Flags: W
LayerCount: 2
Fore
SplineSet
1024 1536 m 1,0,-1
 1024 341 l 2,1,2
 1024 171 1024 171 938.5 85.5 c 128,-1,3
 853 0 853 0 683 0 c 2,4,-1
 341 0 l 2,5,6
 171 0 171 0 85.5 85.5 c 128,-1,7
 0 171 0 171 0 341 c 2,8,-1
 0 683 l 1,9,-1
 341 683 l 1,10,-1
 341 341 l 2,11,12
 341 271 341 271 391.5 221 c 128,-1,13
 442 171 442 171 512 171 c 256,14,15
 582 171 582 171 632.5 221 c 128,-1,16
 683 271 683 271 683 341 c 2,17,-1
 683 1536 l 1,18,-1
 1024 1536 l 1,0,-1
EndSplineSet
Validated: 1
EndChar

StartChar: K
Encoding: 75 75 70
Width: 1536
GlyphClass: 1
Flags: W
LayerCount: 2
Fore
SplineSet
171 0 m 1,0,-1
 171 1536 l 1,1,-1
 512 1536 l 1,2,-1
 512 909 l 1,3,-1
 1064 1536 l 1,4,-1
 1366 1536 l 1,5,-1
 683 768 l 1,6,-1
 1366 0 l 1,7,-1
 1024 0 l 1,8,-1
 512 597 l 1,9,-1
 512 0 l 1,10,-1
 171 0 l 1,0,-1
EndSplineSet
Validated: 1
EndChar

StartChar: L
Encoding: 76 76 71
Width: 1195
GlyphClass: 1
Flags: W
LayerCount: 2
Fore
SplineSet
171 0 m 1,0,-1
 171 1536 l 1,1,-1
 512 1536 l 1,2,-1
 512 171 l 1,3,-1
 1024 171 l 1,4,-1
 1024 0 l 1,5,-1
 171 0 l 1,0,-1
EndSplineSet
Validated: 1
EndChar

StartChar: M
Encoding: 77 77 72
Width: 2048
GlyphClass: 1
Flags: W
LayerCount: 2
Fore
SplineSet
171 0 m 1,0,-1
 171 1536 l 1,1,-1
 249 1536 l 1,2,-1
 978 808 l 1,3,-1
 1707 1536 l 1,4,-1
 1878 1536 l 1,5,-1
 1878 0 l 1,6,-1
 1536 0 l 1,7,-1
 1536 939 l 1,8,-1
 937 340 l 1,9,-1
 342 939 l 1,10,-1
 342 0 l 1,11,-1
 171 0 l 1,0,-1
EndSplineSet
Validated: 1
EndChar

StartChar: N
Encoding: 78 78 73
Width: 1536
GlyphClass: 1
Flags: W
LayerCount: 2
Fore
SplineSet
171 0 m 1,0,-1
 171 1536 l 1,1,-1
 249 1536 l 1,2,-1
 1195 683 l 1,3,-1
 1195 1536 l 1,4,-1
 1366 1536 l 1,5,-1
 1366 0 l 1,6,-1
 1288 0 l 1,7,-1
 342 853 l 1,8,-1
 342 0 l 1,9,-1
 171 0 l 1,0,-1
EndSplineSet
Validated: 1
EndChar

StartChar: O
Encoding: 79 79 74
Width: 1365
GlyphClass: 1
Flags: W
LayerCount: 2
Fore
SplineSet
512 1536 m 2,0,-1
 854 1536 l 2,1,2
 994 1536 994 1536 1094.5 1435 c 128,-1,3
 1195 1334 1195 1334 1195 1195 c 2,4,-1
 1195 341 l 2,5,6
 1195 202 1195 202 1094.5 101 c 128,-1,7
 994 0 994 0 854 0 c 2,8,-1
 512 0 l 2,9,10
 372 0 372 0 271.5 100.5 c 128,-1,11
 171 201 171 201 171 341 c 2,12,-1
 171 1195 l 2,13,14
 171 1335 171 1335 271.5 1435.5 c 128,-1,15
 372 1536 372 1536 512 1536 c 2,0,-1
512 1195 m 2,16,-1
 512 341 l 2,17,18
 512 272 512 272 562 221.5 c 128,-1,19
 612 171 612 171 683 171 c 256,20,21
 754 171 754 171 804 221.5 c 128,-1,22
 854 272 854 272 854 341 c 2,23,-1
 854 1195 l 2,24,25
 854 1265 854 1265 803.5 1315 c 128,-1,26
 753 1365 753 1365 683 1365 c 256,27,28
 613 1365 613 1365 562.5 1315 c 128,-1,29
 512 1265 512 1265 512 1195 c 2,16,-1
EndSplineSet
Validated: 1
EndChar

StartChar: P
Encoding: 80 80 75
Width: 1365
GlyphClass: 1
Flags: W
LayerCount: 2
Fore
SplineSet
171 0 m 1,0,-1
 171 1536 l 1,1,-1
 854 1536 l 2,2,3
 994 1536 994 1536 1094.5 1435 c 128,-1,4
 1195 1334 1195 1334 1195 1195 c 2,5,-1
 1195 1024 l 2,6,7
 1195 884 1195 884 1094.5 783.5 c 128,-1,8
 994 683 994 683 854 683 c 2,9,-1
 512 683 l 1,10,-1
 512 0 l 1,11,-1
 171 0 l 1,0,-1
512 853 m 1,12,-1
 683 853 l 2,13,14
 753 853 753 853 803.5 903.5 c 128,-1,15
 854 954 854 954 854 1024 c 2,16,-1
 854 1195 l 2,17,18
 854 1265 854 1265 803.5 1315 c 128,-1,19
 753 1365 753 1365 683 1365 c 2,20,-1
 512 1365 l 1,21,-1
 512 853 l 1,12,-1
EndSplineSet
Validated: 1
EndChar

StartChar: Q
Encoding: 81 81 76
Width: 1365
GlyphClass: 1
Flags: W
LayerCount: 2
Fore
SplineSet
768 0 m 1,0,-1
 512 0 l 2,1,2
 372 0 372 0 271.5 100.5 c 128,-1,3
 171 201 171 201 171 341 c 2,4,-1
 171 1195 l 2,5,6
 171 1335 171 1335 271.5 1435.5 c 128,-1,7
 372 1536 372 1536 512 1536 c 2,8,-1
 854 1536 l 2,9,10
 994 1536 994 1536 1094.5 1435 c 128,-1,11
 1195 1334 1195 1334 1195 1195 c 2,12,-1
 1195 341 l 2,13,14
 1195 39 1195 39 854 0 c 1,15,-1
 1195 0 l 1,16,-1
 1195 -171 l 1,17,-1
 939 -171 l 2,18,19
 788 -171 788 -171 768 0 c 1,0,-1
512 1195 m 2,20,-1
 512 341 l 2,21,22
 512 272 512 272 562 221.5 c 128,-1,23
 612 171 612 171 683 171 c 256,24,25
 754 171 754 171 804 221.5 c 128,-1,26
 854 272 854 272 854 341 c 2,27,-1
 854 1195 l 2,28,29
 854 1265 854 1265 803.5 1315 c 128,-1,30
 753 1365 753 1365 683 1365 c 256,31,32
 613 1365 613 1365 562.5 1315 c 128,-1,33
 512 1265 512 1265 512 1195 c 2,20,-1
EndSplineSet
Validated: 1
EndChar

StartChar: R
Encoding: 82 82 77
Width: 1365
GlyphClass: 1
Flags: W
LayerCount: 2
Fore
SplineSet
171 0 m 1,0,-1
 171 1536 l 1,1,-1
 854 1536 l 2,2,3
 994 1536 994 1536 1094.5 1435 c 128,-1,4
 1195 1334 1195 1334 1195 1195 c 2,5,-1
 1195 1102 l 2,6,7
 1195 988 1195 988 1116.5 882 c 128,-1,8
 1038 776 1038 776 854 776 c 1,9,-1
 1024 776 l 2,10,11
 1094 776 1094 776 1144.5 725.5 c 128,-1,12
 1195 675 1195 675 1195 605 c 2,13,-1
 1195 0 l 1,14,-1
 854 0 l 1,15,-1
 854 512 l 2,16,17
 854 582 854 582 803.5 632.5 c 128,-1,18
 753 683 753 683 683 683 c 2,19,-1
 512 683 l 1,20,-1
 512 0 l 1,21,-1
 171 0 l 1,0,-1
512 853 m 1,22,-1
 683 853 l 2,23,24
 753 853 753 853 803.5 903.5 c 128,-1,25
 854 954 854 954 854 1024 c 2,26,-1
 854 1195 l 2,27,28
 854 1265 854 1265 803.5 1315 c 128,-1,29
 753 1365 753 1365 683 1365 c 2,30,-1
 512 1365 l 1,31,-1
 512 853 l 1,22,-1
EndSplineSet
Validated: 1
EndChar

StartChar: S
Encoding: 83 83 78
Width: 1195
GlyphClass: 1
Flags: W
LayerCount: 2
Fore
SplineSet
1024 1195 m 1,0,-1
 854 1195 l 1,1,2
 832 1366 832 1366 693 1366 c 0,3,4
 603 1366 603 1366 557.5 1323 c 128,-1,5
 512 1280 512 1280 512 1194 c 0,6,7
 512 1130 512 1130 562 1074 c 2,8,-1
 924 668 l 2,9,10
 1024 556 1024 556 1024 427 c 2,11,-1
 1024 341 l 2,12,13
 1024 202 1024 202 924 101 c 128,-1,14
 824 0 824 0 683 0 c 2,15,-1
 512 0 l 2,16,17
 342 0 342 0 256.5 85.5 c 128,-1,18
 171 171 171 171 171 341 c 1,19,-1
 342 341 l 1,20,21
 341 323 341 323 341 313 c 0,22,23
 341 243 341 243 394.5 207 c 128,-1,24
 448 171 448 171 512 171 c 0,25,26
 603 171 603 171 643 215 c 128,-1,27
 683 259 683 259 683 343 c 0,28,29
 683 408 683 408 633 463 c 2,30,-1
 271 868 l 2,31,32
 171 979 171 979 171 1109 c 2,33,-1
 171 1195 l 2,34,35
 171 1334 171 1334 271 1435 c 128,-1,36
 371 1536 371 1536 512 1536 c 2,37,-1
 683 1536 l 2,38,39
 1003 1536 1003 1536 1024 1195 c 1,0,-1
EndSplineSet
Validated: 1
EndChar

StartChar: T
Encoding: 84 84 79
Width: 1024
GlyphClass: 1
Flags: W
LayerCount: 2
Fore
SplineSet
341 0 m 1,0,-1
 341 1365 l 1,1,-1
 0 1365 l 1,2,-1
 0 1536 l 1,3,-1
 1024 1536 l 1,4,-1
 1024 1365 l 1,5,-1
 683 1365 l 1,6,-1
 683 0 l 1,7,-1
 341 0 l 1,0,-1
EndSplineSet
Validated: 1
EndChar

StartChar: U
Encoding: 85 85 80
Width: 1365
GlyphClass: 1
Flags: W
LayerCount: 2
Fore
SplineSet
854 1536 m 1,0,-1
 1195 1536 l 1,1,-1
 1195 341 l 2,2,3
 1195 202 1195 202 1094.5 101 c 128,-1,4
 994 0 994 0 854 0 c 2,5,-1
 512 0 l 2,6,7
 372 0 372 0 271.5 100.5 c 128,-1,8
 171 201 171 201 171 341 c 2,9,-1
 171 1536 l 1,10,-1
 512 1536 l 1,11,-1
 512 341 l 2,12,13
 512 272 512 272 562 221.5 c 128,-1,14
 612 171 612 171 683 171 c 256,15,16
 754 171 754 171 804 221.5 c 128,-1,17
 854 272 854 272 854 341 c 2,18,-1
 854 1536 l 1,0,-1
EndSplineSet
Validated: 1
EndChar

StartChar: V
Encoding: 86 86 81
Width: 1365
GlyphClass: 1
Flags: W
LayerCount: 2
Fore
SplineSet
854 1536 m 1,0,-1
 1195 1536 l 1,1,-1
 1195 583 l 2,2,3
 1195 345 1195 345 1023.5 172.5 c 128,-1,4
 852 0 852 0 612 0 c 2,5,-1
 171 0 l 1,6,-1
 171 1536 l 1,7,-1
 512 1536 l 1,8,-1
 512 171 l 1,9,-1
 683 171 l 2,10,11
 754 171 754 171 804 221.5 c 128,-1,12
 854 272 854 272 854 341 c 2,13,-1
 854 1536 l 1,0,-1
EndSplineSet
Validated: 1
EndChar

StartChar: W
Encoding: 87 87 82
Width: 2048
GlyphClass: 1
Flags: W
LayerCount: 2
Fore
SplineSet
171 1536 m 1,0,-1
 512 1536 l 1,1,-1
 512 171 l 1,2,-1
 683 171 l 2,3,4
 754 171 754 171 804 221.5 c 128,-1,5
 854 272 854 272 854 341 c 2,6,-1
 854 1536 l 1,7,-1
 1195 1536 l 1,8,-1
 1195 171 l 1,9,-1
 1366 171 l 2,10,11
 1436 171 1436 171 1486 221.5 c 128,-1,12
 1536 272 1536 272 1536 341 c 2,13,-1
 1536 1536 l 1,14,-1
 1878 1536 l 1,15,-1
 1878 583 l 2,16,17
 1878 345 1878 345 1706.5 172.5 c 128,-1,18
 1535 0 1535 0 1295 0 c 2,19,-1
 854 0 l 1,20,-1
 854 54 l 1,21,22
 756 0 756 0 612 0 c 2,23,-1
 171 0 l 1,24,-1
 171 1536 l 1,0,-1
EndSplineSet
Validated: 1
EndChar

StartChar: X
Encoding: 88 88 83
Width: 1366
GlyphClass: 1
Flags: W
LayerCount: 2
Fore
SplineSet
171 0 m 1,0,-1
 171 427 l 2,1,2
 171 728 171 728 512 768 c 1,3,4
 171 808 171 808 171 1109 c 2,5,-1
 171 1536 l 1,6,-1
 512 1536 l 1,7,-1
 512 1024 l 2,8,9
 512 954 512 954 562.5 903.5 c 128,-1,10
 613 853 613 853 683 853 c 256,11,12
 753 853 753 853 803.5 903.5 c 128,-1,13
 854 954 854 954 854 1024 c 2,14,-1
 854 1536 l 1,15,-1
 1195 1536 l 1,16,-1
 1195 1109 l 2,17,18
 1195 808 1195 808 854 768 c 1,19,20
 1195 726 1195 726 1195 426 c 2,21,-1
 1195 0 l 1,22,-1
 854 0 l 1,23,-1
 854 512 l 2,24,25
 854 582 854 582 803.5 632.5 c 128,-1,26
 753 683 753 683 683 683 c 256,27,28
 613 683 613 683 562.5 632.5 c 128,-1,29
 512 582 512 582 512 512 c 2,30,-1
 512 0 l 1,31,-1
 171 0 l 1,0,-1
EndSplineSet
Validated: 1
EndChar

StartChar: Y
Encoding: 89 89 84
Width: 1365
GlyphClass: 1
Flags: W
LayerCount: 2
Fore
SplineSet
512 0 m 1,0,-1
 512 683 l 1,1,2
 171 722 171 722 171 1024 c 2,3,-1
 171 1536 l 1,4,-1
 512 1536 l 1,5,-1
 512 1024 l 2,6,7
 512 954 512 954 562.5 903.5 c 128,-1,8
 613 853 613 853 683 853 c 256,9,10
 753 853 753 853 803.5 903.5 c 128,-1,11
 854 954 854 954 854 1024 c 2,12,-1
 854 1536 l 1,13,-1
 1195 1536 l 1,14,-1
 1195 1024 l 2,15,16
 1195 722 1195 722 854 683 c 1,17,-1
 854 0 l 1,18,-1
 512 0 l 1,0,-1
EndSplineSet
Validated: 1
EndChar

StartChar: Z
Encoding: 90 90 85
Width: 1365
GlyphClass: 1
Flags: W
LayerCount: 2
Fore
SplineSet
171 1536 m 1,0,-1
 1195 1536 l 1,1,-1
 1195 1365 l 1,2,-1
 512 171 l 1,3,-1
 1195 171 l 1,4,-1
 1195 0 l 1,5,-1
 171 0 l 1,6,-1
 171 171 l 1,7,-1
 854 1365 l 1,8,-1
 171 1365 l 1,9,-1
 171 1536 l 1,0,-1
EndSplineSet
Validated: 1
EndChar

StartChar: bracketleft
Encoding: 91 91 86
Width: 853
GlyphClass: 1
Flags: W
LayerCount: 2
Fore
SplineSet
171 1707 m 1,0,-1
 683 1707 l 1,1,-1
 683 1536 l 1,2,-1
 512 1536 l 1,3,-1
 512 0 l 1,4,-1
 683 0 l 1,5,-1
 683 -171 l 1,6,-1
 171 -171 l 1,7,-1
 171 1707 l 1,0,-1
EndSplineSet
Validated: 1
EndChar

StartChar: backslash
Encoding: 92 92 87
Width: 1195
GlyphClass: 1
Flags: W
LayerCount: 2
Fore
SplineSet
1024 0 m 1,0,-1
 853 0 l 1,1,-1
 171 1707 l 1,2,-1
 342 1707 l 1,3,-1
 1024 0 l 1,0,-1
EndSplineSet
Validated: 1
EndChar

StartChar: bracketright
Encoding: 93 93 88
Width: 853
GlyphClass: 1
Flags: W
LayerCount: 2
Fore
SplineSet
683 -171 m 1,0,-1
 171 -171 l 1,1,-1
 171 0 l 1,2,-1
 342 0 l 1,3,-1
 342 1536 l 1,4,-1
 171 1536 l 1,5,-1
 171 1707 l 1,6,-1
 683 1707 l 1,7,-1
 683 -171 l 1,0,-1
EndSplineSet
Validated: 1
EndChar

StartChar: asciicircum
Encoding: 94 94 89
Width: 1365
GlyphClass: 1
Flags: W
LayerCount: 2
Fore
SplineSet
683 1536 m 1,0,-1
 1195 1024 l 1,1,-1
 1025 1024 l 1,2,-1
 683 1365 l 1,3,-1
 342 1024 l 1,4,-1
 171 1024 l 1,5,-1
 683 1536 l 1,0,-1
EndSplineSet
Validated: 1
EndChar

StartChar: underscore
Encoding: 95 95 90
Width: 1365
GlyphClass: 1
Flags: W
LayerCount: 2
Fore
SplineSet
0 -171 m 1,0,-1
 0 0 l 1,1,-1
 1365 0 l 1,2,-1
 1365 -171 l 1,3,-1
 0 -171 l 1,0,-1
EndSplineSet
Validated: 1
EndChar

StartChar: grave
Encoding: 96 96 91
Width: 1024
GlyphClass: 1
Flags: W
LayerCount: 2
Fore
SplineSet
512 1365 m 1,0,-1
 341 1707 l 1,1,-1
 512 1707 l 1,2,-1
 683 1365 l 1,3,-1
 512 1365 l 1,0,-1
EndSplineSet
Validated: 1
EndChar

StartChar: a
Encoding: 97 97 92
Width: 1365
GlyphClass: 1
Flags: W
LayerCount: 2
Fore
SplineSet
854 683 m 1,0,-1
 854 853 l 2,1,2
 854 923 854 923 803.5 973.5 c 128,-1,3
 753 1024 753 1024 683 1024 c 2,4,-1
 512 1024 l 2,5,6
 361 1024 361 1024 342 853 c 1,7,-1
 171 853 l 1,8,9
 210 1195 210 1195 512 1195 c 2,10,-1
 854 1195 l 2,11,12
 994 1195 994 1195 1094.5 1094 c 128,-1,13
 1195 993 1195 993 1195 853 c 2,14,-1
 1195 0 l 1,15,-1
 854 0 l 1,16,-1
 854 171 l 1,17,18
 834 0 834 0 683 0 c 2,19,-1
 512 0 l 2,20,21
 372 0 372 0 271.5 100.5 c 128,-1,22
 171 201 171 201 171 341 c 2,23,-1
 171 342 l 2,24,25
 171 482 171 482 272 582.5 c 128,-1,26
 373 683 373 683 512 683 c 2,27,-1
 854 683 l 1,0,-1
854 512 m 1,28,-1
 683 512 l 2,29,30
 613 512 613 512 562.5 462 c 128,-1,31
 512 412 512 412 512 342 c 2,32,-1
 512 341 l 2,33,34
 512 272 512 272 562 221.5 c 128,-1,35
 612 171 612 171 683 171 c 256,36,37
 754 171 754 171 804 221.5 c 128,-1,38
 854 272 854 272 854 341 c 2,39,-1
 854 512 l 1,28,-1
EndSplineSet
Validated: 1
EndChar

StartChar: b
Encoding: 98 98 93
Width: 1365
GlyphClass: 1
Flags: W
LayerCount: 2
Fore
SplineSet
171 0 m 1,0,-1
 171 1536 l 1,1,-1
 512 1536 l 1,2,-1
 512 1024 l 1,3,4
 522 1110 522 1110 565 1152.5 c 128,-1,5
 608 1195 608 1195 683 1195 c 2,6,-1
 854 1195 l 2,7,8
 994 1195 994 1195 1094.5 1094 c 128,-1,9
 1195 993 1195 993 1195 853 c 2,10,-1
 1195 341 l 2,11,12
 1195 202 1195 202 1094.5 101 c 128,-1,13
 994 0 994 0 854 0 c 2,14,-1
 171 0 l 1,0,-1
512 171 m 1,15,-1
 683 171 l 2,16,17
 754 171 754 171 804 221.5 c 128,-1,18
 854 272 854 272 854 341 c 2,19,-1
 854 853 l 2,20,21
 854 923 854 923 803.5 973.5 c 128,-1,22
 753 1024 753 1024 683 1024 c 256,23,24
 613 1024 613 1024 562.5 973.5 c 128,-1,25
 512 923 512 923 512 853 c 2,26,-1
 512 171 l 1,15,-1
EndSplineSet
Validated: 1
EndChar

StartChar: c
Encoding: 99 99 94
Width: 1195
GlyphClass: 1
Flags: W
LayerCount: 2
Fore
SplineSet
1024 853 m 1,0,-1
 854 853 l 1,1,2
 834 1024 834 1024 683 1024 c 0,3,4
 613 1024 613 1024 562.5 973.5 c 128,-1,5
 512 923 512 923 512 853 c 2,6,-1
 512 341 l 2,7,8
 512 272 512 272 562 221.5 c 128,-1,9
 612 171 612 171 683 171 c 0,10,11
 834 171 834 171 854 341 c 1,12,-1
 1024 341 l 1,13,14
 1003 0 1003 0 683 0 c 2,15,-1
 512 0 l 2,16,17
 372 0 372 0 271.5 100.5 c 128,-1,18
 171 201 171 201 171 341 c 2,19,-1
 171 853 l 2,20,21
 171 994 171 994 272 1094.5 c 128,-1,22
 373 1195 373 1195 512 1195 c 2,23,-1
 683 1195 l 2,24,25
 1005 1195 1005 1195 1024 853 c 1,0,-1
EndSplineSet
Validated: 1
EndChar

StartChar: d
Encoding: 100 100 95
Width: 1365
GlyphClass: 1
Flags: W
LayerCount: 2
Fore
SplineSet
1195 0 m 1,0,-1
 854 0 l 1,1,-1
 854 171 l 1,2,3
 834 0 834 0 683 0 c 2,4,-1
 512 0 l 2,5,6
 372 0 372 0 271.5 100.5 c 128,-1,7
 171 201 171 201 171 341 c 2,8,-1
 171 853 l 2,9,10
 171 994 171 994 272 1094.5 c 128,-1,11
 373 1195 373 1195 512 1195 c 2,12,-1
 854 1195 l 1,13,-1
 854 1536 l 1,14,-1
 1195 1536 l 1,15,-1
 1195 0 l 1,0,-1
854 1024 m 1,16,-1
 683 1024 l 2,17,18
 613 1024 613 1024 562.5 973.5 c 128,-1,19
 512 923 512 923 512 853 c 2,20,-1
 512 341 l 2,21,22
 512 272 512 272 562 221.5 c 128,-1,23
 612 171 612 171 683 171 c 256,24,25
 754 171 754 171 804 221.5 c 128,-1,26
 854 272 854 272 854 341 c 2,27,-1
 854 1024 l 1,16,-1
EndSplineSet
Validated: 1
EndChar

StartChar: e
Encoding: 101 101 96
Width: 1365
GlyphClass: 1
Flags: W
LayerCount: 2
Fore
SplineSet
1195 512 m 1,0,-1
 512 512 l 1,1,-1
 512 341 l 2,2,3
 512 272 512 272 562 221.5 c 128,-1,4
 612 171 612 171 683 171 c 2,5,-1
 854 171 l 2,6,7
 1024 171 1024 171 1024 341 c 1,8,-1
 1195 341 l 1,9,10
 1155 0 1155 0 854 0 c 2,11,-1
 512 0 l 2,12,13
 372 0 372 0 271.5 100.5 c 128,-1,14
 171 201 171 201 171 341 c 2,15,-1
 171 853 l 2,16,17
 171 994 171 994 272 1094.5 c 128,-1,18
 373 1195 373 1195 512 1195 c 2,19,-1
 854 1195 l 2,20,21
 994 1195 994 1195 1094.5 1094 c 128,-1,22
 1195 993 1195 993 1195 853 c 2,23,-1
 1195 512 l 1,0,-1
512 683 m 1,24,-1
 854 683 l 1,25,-1
 854 853 l 2,26,27
 854 923 854 923 803.5 973.5 c 128,-1,28
 753 1024 753 1024 683 1024 c 256,29,30
 613 1024 613 1024 562.5 973.5 c 128,-1,31
 512 923 512 923 512 853 c 2,32,-1
 512 683 l 1,24,-1
EndSplineSet
Validated: 1
EndChar

StartChar: f
Encoding: 102 102 97
Width: 1024
GlyphClass: 1
Flags: W
LayerCount: 2
Fore
SplineSet
342 0 m 1,0,-1
 342 1024 l 1,1,-1
 171 1024 l 1,2,-1
 171 1195 l 1,3,-1
 342 1195 l 1,4,-1
 342 1210 l 2,5,6
 342 1344 342 1344 438 1440 c 128,-1,7
 534 1536 534 1536 668 1536 c 2,8,-1
 1024 1536 l 1,9,-1
 1024 1365 l 1,10,-1
 838 1365 l 2,11,12
 774 1365 774 1365 728.5 1319 c 128,-1,13
 683 1273 683 1273 683 1210 c 2,14,-1
 683 1195 l 1,15,-1
 854 1195 l 1,16,-1
 854 1024 l 1,17,-1
 683 1024 l 1,18,-1
 683 0 l 1,19,-1
 342 0 l 1,0,-1
EndSplineSet
Validated: 1
EndChar

StartChar: g
Encoding: 103 103 98
Width: 1365
GlyphClass: 1
Flags: W
LayerCount: 2
Fore
SplineSet
1195 1195 m 1,0,-1
 1195 -171 l 2,1,2
 1195 -310 1195 -310 1094 -411 c 128,-1,3
 993 -512 993 -512 854 -512 c 2,4,-1
 512 -512 l 2,5,6
 210 -512 210 -512 171 -171 c 1,7,-1
 342 -171 l 1,8,9
 354 -341 354 -341 512 -341 c 2,10,-1
 683 -341 l 2,11,12
 753 -341 753 -341 803.5 -291 c 128,-1,13
 854 -241 854 -241 854 -171 c 2,14,-1
 854 171 l 1,15,16
 834 0 834 0 683 0 c 2,17,-1
 512 0 l 2,18,19
 372 0 372 0 271.5 100.5 c 128,-1,20
 171 201 171 201 171 341 c 2,21,-1
 171 853 l 2,22,23
 171 994 171 994 272 1094.5 c 128,-1,24
 373 1195 373 1195 512 1195 c 2,25,-1
 1195 1195 l 1,0,-1
854 1024 m 1,26,-1
 683 1024 l 2,27,28
 613 1024 613 1024 562.5 973.5 c 128,-1,29
 512 923 512 923 512 853 c 2,30,-1
 512 341 l 2,31,32
 512 272 512 272 562 221.5 c 128,-1,33
 612 171 612 171 683 171 c 256,34,35
 754 171 754 171 804 221.5 c 128,-1,36
 854 272 854 272 854 341 c 2,37,-1
 854 1024 l 1,26,-1
EndSplineSet
Validated: 1
EndChar

StartChar: h
Encoding: 104 104 99
Width: 1365
GlyphClass: 1
Flags: W
LayerCount: 2
Fore
SplineSet
171 0 m 1,0,-1
 171 1536 l 1,1,-1
 512 1536 l 1,2,-1
 512 1024 l 1,3,4
 522 1110 522 1110 565 1152.5 c 128,-1,5
 608 1195 608 1195 683 1195 c 2,6,-1
 854 1195 l 2,7,8
 994 1195 994 1195 1094.5 1094 c 128,-1,9
 1195 993 1195 993 1195 853 c 2,10,-1
 1195 0 l 1,11,-1
 854 0 l 1,12,-1
 854 853 l 2,13,14
 854 923 854 923 803.5 973.5 c 128,-1,15
 753 1024 753 1024 683 1024 c 256,16,17
 613 1024 613 1024 562.5 973.5 c 128,-1,18
 512 923 512 923 512 853 c 2,19,-1
 512 0 l 1,20,-1
 171 0 l 1,0,-1
EndSplineSet
Validated: 1
EndChar

StartChar: i
Encoding: 105 105 100
Width: 683
GlyphClass: 1
Flags: W
LayerCount: 2
Fore
SplineSet
171 1365 m 1,0,-1
 171 1536 l 1,1,-1
 512 1536 l 1,2,-1
 512 1365 l 1,3,-1
 171 1365 l 1,0,-1
171 0 m 1,4,-1
 171 1195 l 1,5,-1
 512 1195 l 1,6,-1
 512 0 l 1,7,-1
 171 0 l 1,4,-1
EndSplineSet
Validated: 1
EndChar

StartChar: j
Encoding: 106 106 101
Width: 1024
GlyphClass: 1
Flags: W
LayerCount: 2
Fore
SplineSet
512 1365 m 1,0,-1
 512 1536 l 1,1,-1
 853 1536 l 1,2,-1
 853 1365 l 1,3,-1
 512 1365 l 1,0,-1
512 1195 m 1,4,-1
 853 1195 l 1,5,-1
 853 0 l 2,6,7
 853 -140 853 -140 752.5 -240.5 c 128,-1,8
 652 -341 652 -341 512 -341 c 2,9,-1
 341 -341 l 2,10,11
 39 -341 39 -341 0 0 c 1,12,-1
 171 0 l 1,13,14
 186 -171 186 -171 341 -171 c 0,15,16
 411 -171 411 -171 461.5 -120.5 c 128,-1,17
 512 -70 512 -70 512 0 c 2,18,-1
 512 1195 l 1,4,-1
EndSplineSet
Validated: 1
EndChar

StartChar: k
Encoding: 107 107 102
Width: 1365
GlyphClass: 1
Flags: W
LayerCount: 2
Fore
SplineSet
171 0 m 1,0,-1
 171 1536 l 1,1,-1
 512 1536 l 1,2,-1
 512 768 l 1,3,-1
 1024 1195 l 1,4,-1
 1366 1195 l 1,5,-1
 651 597 l 1,6,-1
 1366 0 l 1,7,-1
 1024 0 l 1,8,-1
 512 427 l 1,9,-1
 512 0 l 1,10,-1
 171 0 l 1,0,-1
EndSplineSet
Validated: 1
EndChar

StartChar: l
Encoding: 108 108 103
Width: 683
GlyphClass: 1
Flags: W
LayerCount: 2
Fore
SplineSet
171 0 m 1,0,-1
 171 1536 l 1,1,-1
 512 1536 l 1,2,-1
 512 0 l 1,3,-1
 171 0 l 1,0,-1
EndSplineSet
Validated: 1
EndChar

StartChar: m
Encoding: 109 109 104
Width: 2048
GlyphClass: 1
Flags: W
LayerCount: 2
Fore
SplineSet
1195 0 m 1,0,-1
 854 0 l 1,1,-1
 854 853 l 2,2,3
 854 923 854 923 803.5 973.5 c 128,-1,4
 753 1024 753 1024 683 1024 c 256,5,6
 613 1024 613 1024 562.5 973.5 c 128,-1,7
 512 923 512 923 512 853 c 2,8,-1
 512 0 l 1,9,-1
 171 0 l 1,10,-1
 171 1195 l 1,11,-1
 512 1195 l 1,12,-1
 512 1024 l 1,13,14
 522 1110 522 1110 565 1152.5 c 128,-1,15
 608 1195 608 1195 683 1195 c 2,16,-1
 854 1195 l 2,17,18
 1028 1195 1028 1195 1110 1074 c 1,19,20
 1150 1135 1150 1135 1214 1165 c 128,-1,21
 1278 1195 1278 1195 1366 1195 c 2,22,-1
 1536 1195 l 2,23,24
 1676 1195 1676 1195 1777 1094.5 c 128,-1,25
 1878 994 1878 994 1878 853 c 2,26,-1
 1878 0 l 1,27,-1
 1536 0 l 1,28,-1
 1536 853 l 2,29,30
 1536 922 1536 922 1485.5 973 c 128,-1,31
 1435 1024 1435 1024 1366 1024 c 0,32,33
 1296 1024 1296 1024 1245.5 973.5 c 128,-1,34
 1195 923 1195 923 1195 853 c 2,35,-1
 1195 0 l 1,0,-1
EndSplineSet
Validated: 1
EndChar

StartChar: n
Encoding: 110 110 105
Width: 1365
GlyphClass: 1
Flags: W
LayerCount: 2
Fore
SplineSet
171 0 m 1,0,-1
 171 1195 l 1,1,-1
 512 1195 l 1,2,-1
 512 1024 l 1,3,4
 522 1110 522 1110 565 1152.5 c 128,-1,5
 608 1195 608 1195 683 1195 c 2,6,-1
 854 1195 l 2,7,8
 994 1195 994 1195 1094.5 1094 c 128,-1,9
 1195 993 1195 993 1195 853 c 2,10,-1
 1195 0 l 1,11,-1
 854 0 l 1,12,-1
 854 853 l 2,13,14
 854 923 854 923 803.5 973.5 c 128,-1,15
 753 1024 753 1024 683 1024 c 256,16,17
 613 1024 613 1024 562.5 973.5 c 128,-1,18
 512 923 512 923 512 853 c 2,19,-1
 512 0 l 1,20,-1
 171 0 l 1,0,-1
EndSplineSet
Validated: 1
EndChar

StartChar: o
Encoding: 111 111 106
Width: 1365
GlyphClass: 1
Flags: W
LayerCount: 2
Fore
SplineSet
512 1195 m 2,0,-1
 854 1195 l 2,1,2
 994 1195 994 1195 1094.5 1094 c 128,-1,3
 1195 993 1195 993 1195 853 c 2,4,-1
 1195 341 l 2,5,6
 1195 202 1195 202 1094.5 101 c 128,-1,7
 994 0 994 0 854 0 c 2,8,-1
 512 0 l 2,9,10
 372 0 372 0 271.5 100.5 c 128,-1,11
 171 201 171 201 171 341 c 2,12,-1
 171 853 l 2,13,14
 171 994 171 994 272 1094.5 c 128,-1,15
 373 1195 373 1195 512 1195 c 2,0,-1
512 853 m 2,16,-1
 512 341 l 2,17,18
 512 272 512 272 562 221.5 c 128,-1,19
 612 171 612 171 683 171 c 256,20,21
 754 171 754 171 804 221.5 c 128,-1,22
 854 272 854 272 854 341 c 2,23,-1
 854 853 l 2,24,25
 854 923 854 923 803.5 973.5 c 128,-1,26
 753 1024 753 1024 683 1024 c 256,27,28
 613 1024 613 1024 562.5 973.5 c 128,-1,29
 512 923 512 923 512 853 c 2,16,-1
EndSplineSet
Validated: 1
EndChar

StartChar: p
Encoding: 112 112 107
Width: 1365
GlyphClass: 1
Flags: W
LayerCount: 2
Fore
SplineSet
171 1195 m 1,0,-1
 512 1195 l 1,1,-1
 512 1024 l 1,2,3
 512 1110 512 1110 555 1152.5 c 128,-1,4
 598 1195 598 1195 683 1195 c 2,5,-1
 854 1195 l 2,6,7
 994 1195 994 1195 1094.5 1094 c 128,-1,8
 1195 993 1195 993 1195 853 c 2,9,-1
 1195 341 l 2,10,11
 1195 201 1195 201 1094.5 100.5 c 128,-1,12
 994 0 994 0 854 0 c 2,13,-1
 512 0 l 1,14,-1
 512 -341 l 1,15,-1
 171 -341 l 1,16,-1
 171 1195 l 1,0,-1
512 171 m 1,17,-1
 683 171 l 2,18,19
 753 171 753 171 803.5 221 c 128,-1,20
 854 271 854 271 854 341 c 2,21,-1
 854 853 l 2,22,23
 854 923 854 923 803.5 973 c 128,-1,24
 753 1023 753 1023 683 1023 c 0,25,26
 613 1024 613 1024 562.5 973.5 c 128,-1,27
 512 923 512 923 512 853 c 2,28,-1
 512 171 l 1,17,-1
EndSplineSet
Validated: 33
EndChar

StartChar: q
Encoding: 113 113 108
Width: 1365
GlyphClass: 1
Flags: W
LayerCount: 2
Fore
SplineSet
1195 1195 m 1,0,-1
 1195 -341 l 1,1,-1
 853 -341 l 1,2,-1
 854 171 l 1,3,4
 834 0 834 0 683 0 c 2,5,-1
 512 0 l 2,6,7
 372 0 372 0 271.5 101 c 128,-1,8
 171 202 171 202 171 342 c 2,9,-1
 171 854 l 2,10,11
 171 993 171 993 271 1094 c 128,-1,12
 371 1195 371 1195 512 1195 c 2,13,-1
 1195 1195 l 1,0,-1
854 1024 m 1,14,-1
 683 1024 l 2,15,16
 613 1024 613 1024 562.5 974 c 128,-1,17
 512 924 512 924 512 854 c 2,18,-1
 512 342 l 2,19,20
 512 273 512 273 562 222 c 128,-1,21
 612 171 612 171 683 171 c 256,22,23
 754 171 754 171 804 221.5 c 128,-1,24
 854 272 854 272 854 341 c 2,25,-1
 854 1024 l 1,14,-1
EndSplineSet
Validated: 1
EndChar

StartChar: r
Encoding: 114 114 109
Width: 1024
GlyphClass: 1
Flags: W
LayerCount: 2
Fore
SplineSet
512 0 m 1,0,-1
 171 0 l 1,1,-1
 171 1195 l 1,2,-1
 512 1195 l 1,3,-1
 512 853 l 1,4,5
 532 1024 532 1024 617.5 1109.5 c 128,-1,6
 703 1195 703 1195 854 1195 c 2,7,-1
 1024 1195 l 1,8,-1
 1024 853 l 1,9,-1
 683 853 l 2,10,11
 613 853 613 853 562.5 803 c 128,-1,12
 512 753 512 753 512 683 c 2,13,-1
 512 0 l 1,0,-1
EndSplineSet
Validated: 1
EndChar

StartChar: s
Encoding: 115 115 110
Width: 1195
GlyphClass: 1
Flags: W
LayerCount: 2
Fore
SplineSet
1024 853 m 1,0,-1
 854 853 l 1,1,2
 832 1024 832 1024 693 1024 c 0,3,4
 602 1024 602 1024 556.5 988.5 c 128,-1,5
 511 953 511 953 511 882 c 0,6,7
 511 809 511 809 760 676 c 0,8,9
 962 567 962 567 993 495.5 c 128,-1,10
 1024 424 1024 424 1024 343 c 0,11,12
 1024 201 1024 201 923.5 100.5 c 128,-1,13
 823 0 823 0 683 0 c 2,14,-1
 512 0 l 2,15,16
 171 0 171 0 171 341 c 1,17,-1
 342 341 l 1,18,19
 362 170 362 170 502 170 c 0,20,21
 593 170 593 170 638.5 206 c 128,-1,22
 684 242 684 242 684 313 c 0,23,24
 684 385 684 385 436 519 c 0,25,26
 233 627 233 627 202 699 c 128,-1,27
 171 771 171 771 171 851 c 0,28,29
 171 994 171 994 272 1094.5 c 128,-1,30
 373 1195 373 1195 512 1195 c 2,31,-1
 683 1195 l 2,32,33
 1003 1195 1003 1195 1024 853 c 1,0,-1
EndSplineSet
Validated: 1
EndChar

StartChar: t
Encoding: 116 116 111
Width: 1024
GlyphClass: 1
Flags: W
LayerCount: 2
Fore
SplineSet
342 1536 m 1,0,-1
 683 1536 l 1,1,-1
 683 1195 l 1,2,-1
 854 1195 l 1,3,-1
 854 1024 l 1,4,-1
 683 1024 l 1,5,-1
 683 341 l 2,6,7
 683 258 683 258 737.5 214.5 c 128,-1,8
 792 171 792 171 838 171 c 2,9,-1
 854 171 l 1,10,-1
 854 0 l 1,11,-1
 683 0 l 2,12,13
 542 0 542 0 442 100.5 c 128,-1,14
 342 201 342 201 342 341 c 2,15,-1
 342 1024 l 1,16,-1
 171 1024 l 1,17,-1
 171 1195 l 1,18,-1
 342 1195 l 1,19,-1
 342 1536 l 1,0,-1
EndSplineSet
Validated: 1
EndChar

StartChar: u
Encoding: 117 117 112
Width: 1365
GlyphClass: 1
Flags: W
LayerCount: 2
Fore
SplineSet
1195 1195 m 1,0,-1
 1195 0 l 1,1,-1
 854 0 l 1,2,-1
 854 171 l 1,3,4
 834 0 834 0 683 0 c 2,5,-1
 512 0 l 2,6,7
 372 0 372 0 271.5 100.5 c 128,-1,8
 171 201 171 201 171 341 c 2,9,-1
 171 1195 l 1,10,-1
 512 1195 l 1,11,-1
 512 341 l 2,12,13
 512 272 512 272 562 221.5 c 128,-1,14
 612 171 612 171 683 171 c 256,15,16
 754 171 754 171 804 221.5 c 128,-1,17
 854 272 854 272 854 341 c 2,18,-1
 854 1195 l 1,19,-1
 1195 1195 l 1,0,-1
EndSplineSet
Validated: 1
EndChar

StartChar: v
Encoding: 118 118 113
Width: 1365
GlyphClass: 1
Flags: W
LayerCount: 2
Fore
SplineSet
854 1195 m 1,0,-1
 1195 1195 l 1,1,-1
 1195 583 l 2,2,3
 1195 345 1195 345 1023.5 172.5 c 128,-1,4
 852 0 852 0 612 0 c 2,5,-1
 171 0 l 1,6,-1
 171 1195 l 1,7,-1
 512 1195 l 1,8,-1
 512 171 l 1,9,-1
 683 171 l 2,10,11
 754 171 754 171 804 221.5 c 128,-1,12
 854 272 854 272 854 341 c 2,13,-1
 854 1195 l 1,0,-1
EndSplineSet
Validated: 1
EndChar

StartChar: w
Encoding: 119 119 114
Width: 2048
GlyphClass: 1
Flags: W
LayerCount: 2
Fore
SplineSet
171 1195 m 1,0,-1
 512 1195 l 1,1,-1
 512 171 l 1,2,-1
 683 171 l 2,3,4
 754 171 754 171 804 221.5 c 128,-1,5
 854 272 854 272 854 341 c 2,6,-1
 854 1195 l 1,7,-1
 1195 1195 l 1,8,-1
 1195 171 l 1,9,-1
 1366 171 l 2,10,11
 1436 171 1436 171 1486 221.5 c 128,-1,12
 1536 272 1536 272 1536 341 c 2,13,-1
 1536 1195 l 1,14,-1
 1878 1195 l 1,15,-1
 1878 583 l 2,16,17
 1878 345 1878 345 1706.5 172.5 c 128,-1,18
 1535 0 1535 0 1295 0 c 2,19,-1
 854 0 l 1,20,-1
 854 54 l 1,21,22
 756 0 756 0 612 0 c 2,23,-1
 171 0 l 1,24,-1
 171 1195 l 1,0,-1
EndSplineSet
Validated: 1
EndChar

StartChar: x
Encoding: 120 120 115
Width: 1365
GlyphClass: 1
Flags: W
LayerCount: 2
Fore
SplineSet
171 0 m 1,0,-1
 171 256 l 2,1,2
 171 407 171 407 256.5 492 c 128,-1,3
 342 577 342 577 512 597 c 1,4,5
 342 617 342 617 256.5 702.5 c 128,-1,6
 171 788 171 788 171 939 c 2,7,-1
 171 1195 l 1,8,-1
 512 1195 l 1,9,-1
 512 853 l 2,10,11
 512 783 512 783 562.5 733 c 128,-1,12
 613 683 613 683 683 683 c 256,13,14
 753 683 753 683 803.5 733 c 128,-1,15
 854 783 854 783 854 853 c 2,16,-1
 854 1195 l 1,17,-1
 1195 1195 l 1,18,-1
 1195 939 l 2,19,20
 1195 788 1195 788 1110 702.5 c 128,-1,21
 1025 617 1025 617 854 597 c 1,22,23
 1025 577 1025 577 1110 491.5 c 128,-1,24
 1195 406 1195 406 1195 256 c 2,25,-1
 1195 0 l 1,26,-1
 854 0 l 1,27,-1
 854 341 l 2,28,29
 854 411 854 411 803.5 461.5 c 128,-1,30
 753 512 753 512 683 512 c 256,31,32
 613 512 613 512 562.5 461.5 c 128,-1,33
 512 411 512 411 512 341 c 2,34,-1
 512 0 l 1,35,-1
 171 0 l 1,0,-1
EndSplineSet
Validated: 1
EndChar

StartChar: y
Encoding: 121 121 116
Width: 1365
GlyphClass: 1
Flags: W
LayerCount: 2
Fore
SplineSet
342 -171 m 1,0,1
 354 -341 354 -341 512 -341 c 2,2,-1
 683 -341 l 2,3,4
 753 -341 753 -341 803.5 -291 c 128,-1,5
 854 -241 854 -241 854 -171 c 2,6,-1
 854 171 l 1,7,8
 834 0 834 0 683 0 c 2,9,-1
 512 0 l 2,10,11
 372 0 372 0 271.5 100.5 c 128,-1,12
 171 201 171 201 171 341 c 2,13,-1
 171 1195 l 1,14,-1
 512 1195 l 1,15,-1
 512 341 l 2,16,17
 512 272 512 272 562 221.5 c 128,-1,18
 612 171 612 171 683 171 c 256,19,20
 754 171 754 171 804 221.5 c 128,-1,21
 854 272 854 272 854 341 c 2,22,-1
 854 1195 l 1,23,-1
 1195 1195 l 1,24,-1
 1195 -171 l 2,25,26
 1195 -310 1195 -310 1094 -411 c 128,-1,27
 993 -512 993 -512 854 -512 c 2,28,-1
 512 -512 l 2,29,30
 210 -512 210 -512 171 -171 c 1,31,-1
 342 -171 l 1,0,1
EndSplineSet
Validated: 1
EndChar

StartChar: z
Encoding: 122 122 117
Width: 1365
GlyphClass: 1
Flags: W
LayerCount: 2
Fore
SplineSet
171 1195 m 1,0,-1
 1195 1195 l 1,1,-1
 1195 1024 l 1,2,-1
 512 171 l 1,3,-1
 1195 171 l 1,4,-1
 1195 0 l 1,5,-1
 171 0 l 1,6,-1
 171 171 l 1,7,-1
 854 1024 l 1,8,-1
 171 1024 l 1,9,-1
 171 1195 l 1,0,-1
EndSplineSet
Validated: 1
EndChar

StartChar: braceleft
Encoding: 123 123 118
Width: 853
GlyphClass: 1
Flags: W
LayerCount: 2
Fore
SplineSet
171 683 m 1,0,-1
 171 853 l 1,1,-1
 186 853 l 2,2,3
 342 853 342 853 342 1024 c 2,4,-1
 342 1365 l 2,5,6
 342 1666 342 1666 683 1707 c 1,7,-1
 683 1536 l 1,8,9
 512 1522 512 1522 512 1365 c 2,10,-1
 512 1024 l 2,11,12
 512 875 512 875 396 768 c 1,13,14
 512 660 512 660 512 512 c 2,15,-1
 512 171 l 2,16,17
 512 12 512 12 683 0 c 1,18,-1
 683 -171 l 1,19,20
 342 -132 342 -132 342 171 c 2,21,-1
 342 512 l 2,22,23
 342 683 342 683 186 683 c 2,24,-1
 171 683 l 1,0,-1
EndSplineSet
Validated: 1
EndChar

StartChar: bar
Encoding: 124 124 119
Width: 853
GlyphClass: 1
Flags: W
LayerCount: 2
Fore
SplineSet
341 1707 m 1,0,-1
 511 1707 l 1,1,-1
 511 -171 l 1,2,-1
 341 -171 l 1,3,-1
 341 1707 l 1,0,-1
EndSplineSet
Validated: 1
EndChar

StartChar: braceright
Encoding: 125 125 120
Width: 853
GlyphClass: 1
Flags: W
LayerCount: 2
Fore
SplineSet
683 853 m 1,0,-1
 683 683 l 1,1,-1
 668 683 l 2,2,3
 512 683 512 683 512 512 c 2,4,-1
 512 171 l 2,5,6
 512 -131 512 -131 171 -171 c 1,7,-1
 171 0 l 1,8,9
 342 14 342 14 342 171 c 2,10,-1
 342 512 l 2,11,12
 342 660 342 660 457 768 c 1,13,14
 342 876 342 876 342 1024 c 2,15,-1
 342 1365 l 2,16,17
 342 1523 342 1523 171 1536 c 1,18,-1
 171 1707 l 1,19,20
 512 1668 512 1668 512 1365 c 2,21,-1
 512 1024 l 2,22,23
 512 853 512 853 668 853 c 2,24,-1
 683 853 l 1,0,-1
EndSplineSet
Validated: 1
EndChar

StartChar: asciitilde
Encoding: 126 126 121
Width: 1365
GlyphClass: 1
Flags: W
LayerCount: 2
Fore
SplineSet
342 853 m 1,0,-1
 171 853 l 1,1,2
 211 1195 211 1195 512 1195 c 0,3,4
 611 1195 611 1195 724 1095 c 2,5,-1
 748 1074 l 2,6,7
 805 1024 805 1024 854 1024 c 0,8,9
 1004 1024 1004 1024 1024 1195 c 1,10,-1
 1195 1195 l 1,11,12
 1155 853 1155 853 854 853 c 0,13,14
 755 853 755 853 641 953 c 2,15,-1
 618 974 l 2,16,17
 561 1024 561 1024 512 1024 c 0,18,19
 362 1024 362 1024 342 853 c 1,0,-1
EndSplineSet
Validated: 1
EndChar

StartChar: exclamdown
Encoding: 161 161 123
Width: 1024
GlyphClass: 1
Flags: W
LayerCount: 2
Fore
SplineSet
682 1024 m 1,0,-1
 682 0 l 1,1,-1
 341 0 l 1,2,-1
 341 1024 l 1,3,-1
 682 1024 l 1,0,-1
682 1536 m 1,4,-1
 682 1195 l 1,5,-1
 341 1195 l 1,6,-1
 341 1536 l 1,7,-1
 682 1536 l 1,4,-1
EndSplineSet
Validated: 1
EndChar

StartChar: cent
Encoding: 162 162 124
Width: 1195
GlyphClass: 1
Flags: W
LayerCount: 2
Fore
SplineSet
512 1365 m 1,0,1
 342 1345 342 1345 342 1195 c 2,2,-1
 342 853 l 2,3,4
 342 702 342 702 512 683 c 1,5,-1
 512 1365 l 1,0,1
854 853 m 1,6,-1
 1024 853 l 1,7,8
 1005 545 1005 545 683 512 c 1,9,-1
 683 341 l 1,10,-1
 512 341 l 1,11,-1
 512 512 l 1,12,13
 171 551 171 551 171 853 c 2,14,-1
 171 1195 l 2,15,16
 171 1496 171 1496 512 1536 c 1,17,-1
 512 1707 l 1,18,-1
 683 1707 l 1,19,-1
 683 1536 l 1,20,21
 1006 1515 1006 1515 1024 1195 c 1,22,-1
 854 1195 l 1,23,24
 836 1348 836 1348 683 1365 c 1,25,-1
 683 683 l 1,26,27
 836 700 836 700 854 853 c 1,6,-1
EndSplineSet
Validated: 1
EndChar

StartChar: sterling
Encoding: 163 163 125
Width: 1536
GlyphClass: 1
Flags: W
LayerCount: 2
Fore
SplineSet
1195 341 m 1,0,-1
 1366 341 l 1,1,2
 1327 0 1327 0 1024 0 c 2,3,-1
 171 0 l 1,4,-1
 171 171 l 1,5,-1
 342 171 l 1,6,-1
 342 683 l 1,7,-1
 171 683 l 1,8,-1
 171 853 l 1,9,-1
 342 853 l 1,10,-1
 342 1195 l 2,11,12
 342 1334 342 1334 443 1435 c 128,-1,13
 544 1536 544 1536 683 1536 c 2,14,-1
 854 1536 l 2,15,16
 1156 1536 1156 1536 1195 1194 c 1,17,-1
 1025 1194 l 1,18,19
 1012 1365 1012 1365 863 1365 c 0,20,21
 773 1365 773 1365 728 1322.5 c 128,-1,22
 683 1280 683 1280 683 1195 c 2,23,-1
 683 853 l 1,24,-1
 854 853 l 1,25,-1
 854 683 l 1,26,-1
 683 683 l 1,27,-1
 683 171 l 1,28,-1
 1025 171 l 2,29,30
 1183 171 1183 171 1195 341 c 1,0,-1
EndSplineSet
Validated: 1
EndChar

StartChar: currency
Encoding: 164 164 126
Width: 1365
GlyphClass: 2
Flags: W
LayerCount: 2
Fore
SplineSet
292 1365 m 1,0,-1
 510 1147 l 1,1,2
 554 1171 554 1171 597.5 1183 c 128,-1,3
 641 1195 641 1195 683 1195 c 0,4,5
 726 1195 726 1195 769 1183 c 128,-1,6
 812 1171 812 1171 856 1147 c 1,7,-1
 1074 1365 l 1,8,-1
 1195 1244 l 1,9,-1
 977 1026 l 1,10,11
 1024 938 1024 938 1024 853 c 0,12,13
 1024 811 1024 811 1012.5 768 c 128,-1,14
 1001 725 1001 725 977 680 c 1,15,-1
 1195 462 l 1,16,-1
 1074 341 l 1,17,-1
 856 559 l 1,18,19
 813 536 813 536 769.5 524 c 128,-1,20
 726 512 726 512 683 512 c 256,21,22
 640 512 640 512 596.5 524 c 128,-1,23
 553 536 553 536 509 560 c 1,24,-1
 292 341 l 1,25,-1
 171 462 l 1,26,-1
 389 680 l 1,27,28
 366 725 366 725 354 768.5 c 128,-1,29
 342 812 342 812 342 854 c 0,30,31
 342 939 342 939 389 1026 c 1,32,-1
 171 1244 l 1,33,-1
 292 1365 l 1,0,-1
512 853 m 0,34,35
 512 783 512 783 563 733 c 128,-1,36
 614 683 614 683 683 683 c 256,37,38
 752 683 752 683 803 732.5 c 128,-1,39
 854 782 854 782 854 853 c 256,40,41
 854 924 854 924 803.5 974 c 128,-1,42
 753 1024 753 1024 683 1024 c 0,43,44
 614 1024 614 1024 563 974 c 128,-1,45
 512 924 512 924 512 853 c 0,34,35
EndSplineSet
Validated: 1
EndChar

StartChar: yen
Encoding: 165 165 127
Width: 1365
GlyphClass: 1
Flags: W
LayerCount: 2
Fore
SplineSet
512 0 m 1,0,-1
 512 341 l 1,1,-1
 171 341 l 1,2,-1
 171 512 l 1,3,-1
 512 512 l 1,4,-1
 512 683 l 1,5,-1
 171 683 l 1,6,-1
 171 853 l 1,7,-1
 512 853 l 1,8,9
 342 873 342 873 256.5 958.5 c 128,-1,10
 171 1044 171 1044 171 1195 c 2,11,-1
 171 1536 l 1,12,-1
 512 1536 l 1,13,-1
 512 1195 l 2,14,15
 512 1124 512 1124 562.5 1074 c 128,-1,16
 613 1024 613 1024 683 1024 c 256,17,18
 753 1024 753 1024 803.5 1074 c 128,-1,19
 854 1124 854 1124 854 1195 c 2,20,-1
 854 1536 l 1,21,-1
 1195 1536 l 1,22,-1
 1195 1195 l 2,23,24
 1195 1044 1195 1044 1110 958.5 c 128,-1,25
 1025 873 1025 873 854 853 c 1,26,-1
 1195 853 l 1,27,-1
 1195 683 l 1,28,-1
 854 683 l 1,29,-1
 854 512 l 1,30,-1
 1195 512 l 1,31,-1
 1195 341 l 1,32,-1
 854 341 l 1,33,-1
 854 0 l 1,34,-1
 512 0 l 1,0,-1
EndSplineSet
Validated: 1
EndChar

StartChar: brokenbar
Encoding: 166 166 128
Width: 853
GlyphClass: 1
Flags: W
LayerCount: 2
Fore
SplineSet
511 683 m 1,0,-1
 511 -171 l 1,1,-1
 341 -171 l 1,2,-1
 341 683 l 1,3,-1
 511 683 l 1,0,-1
341 853 m 1,4,-1
 341 1707 l 1,5,-1
 511 1707 l 1,6,-1
 511 853 l 1,7,-1
 341 853 l 1,4,-1
EndSplineSet
Validated: 1
EndChar

StartChar: section
Encoding: 167 167 129
Width: 1195
GlyphClass: 1
Flags: W
LayerCount: 2
Fore
SplineSet
1024 1195 m 1,0,-1
 854 1195 l 1,1,2
 832 1365 832 1365 683 1365 c 2,3,-1
 512 1365 l 2,4,5
 441 1365 441 1365 391.5 1314.5 c 128,-1,6
 342 1264 342 1264 342 1195 c 0,7,8
 342 1120 342 1120 392 1074 c 2,9,-1
 924 583 l 2,10,11
 1024 491 1024 491 1024 341 c 0,12,13
 1024 187 1024 187 908 86 c 1,14,-1
 925 71 l 2,15,16
 1024 -19 1024 -19 1024 -171 c 0,17,18
 1024 -309 1024 -309 924.5 -410.5 c 128,-1,19
 825 -512 825 -512 683 -512 c 2,20,-1
 512 -512 l 2,21,22
 192 -512 192 -512 171 -171 c 1,23,-1
 342 -171 l 1,24,25
 363 -341 363 -341 512 -341 c 2,26,-1
 683 -341 l 2,27,28
 754 -341 754 -341 804 -290.5 c 128,-1,29
 854 -240 854 -240 854 -171 c 0,30,31
 854 -96 854 -96 804 -50 c 2,32,-1
 271 441 l 2,33,34
 171 533 171 533 171 683 c 0,35,36
 171 840 171 840 287 938 c 1,37,-1
 271 953 l 2,38,39
 171 1046 171 1046 171 1195 c 0,40,41
 171 1334 171 1334 271 1435 c 128,-1,42
 371 1536 371 1536 512 1536 c 2,43,-1
 683 1536 l 2,44,45
 1003 1536 1003 1536 1024 1195 c 1,0,-1
782 202 m 1,46,47
 854 266 854 266 854 342 c 256,48,49
 854 418 854 418 804 463 c 2,50,-1
 413 822 l 1,51,52
 342 760 342 760 342 682 c 0,53,54
 342 606 342 606 392 561 c 2,55,-1
 782 202 l 1,46,47
EndSplineSet
Validated: 1
EndChar

StartChar: dieresis
Encoding: 168 168 130
Width: 1024
GlyphClass: 1
Flags: W
LayerCount: 2
Fore
SplineSet
171 1365 m 1,0,-1
 171 1576 l 1,1,-1
 371 1576 l 1,2,-1
 371 1365 l 1,3,-1
 171 1365 l 1,0,-1
653 1365 m 1,4,-1
 653 1576 l 1,5,-1
 853 1576 l 1,6,-1
 853 1365 l 1,7,-1
 653 1365 l 1,4,-1
EndSplineSet
Validated: 1
EndChar

StartChar: copyright
Encoding: 169 169 131
Width: 1707
GlyphClass: 1
Flags: W
LayerCount: 2
Fore
SplineSet
683 1536 m 2,0,-1
 1024 1536 l 2,1,2
 1234 1536 1234 1536 1385 1385 c 128,-1,3
 1536 1234 1536 1234 1536 1024 c 2,4,-1
 1536 512 l 2,5,6
 1536 303 1536 303 1385 151.5 c 128,-1,7
 1234 0 1234 0 1024 0 c 2,8,-1
 683 0 l 2,9,10
 473 0 473 0 322 151 c 128,-1,11
 171 302 171 302 171 512 c 2,12,-1
 171 1024 l 2,13,14
 171 1235 171 1235 322.5 1385.5 c 128,-1,15
 474 1536 474 1536 683 1536 c 2,0,-1
342 1024 m 2,16,-1
 342 512 l 2,17,18
 342 373 342 373 442.5 272 c 128,-1,19
 543 171 543 171 683 171 c 2,20,-1
 1024 171 l 2,21,22
 1164 171 1164 171 1264.5 272 c 128,-1,23
 1365 373 1365 373 1365 512 c 2,24,-1
 1365 1024 l 2,25,26
 1365 1164 1365 1164 1264.5 1264.5 c 128,-1,27
 1164 1365 1164 1365 1024 1365 c 2,28,-1
 683 1365 l 2,29,30
 543 1365 543 1365 442.5 1264.5 c 128,-1,31
 342 1164 342 1164 342 1024 c 2,16,-1
1195 853 m 1,32,-1
 1025 853 l 1,33,34
 1005 1024 1005 1024 854 1024 c 0,35,36
 784 1024 784 1024 733.5 973.5 c 128,-1,37
 683 923 683 923 683 853 c 2,38,-1
 683 683 l 2,39,40
 683 613 683 613 733 562.5 c 128,-1,41
 783 512 783 512 854 512 c 0,42,43
 1005 512 1005 512 1025 683 c 1,44,-1
 1195 683 l 1,45,46
 1174 341 1174 341 857 341 c 0,47,48
 712 341 712 341 612.5 442.5 c 128,-1,49
 513 544 513 544 513 683 c 2,50,-1
 513 853 l 2,51,52
 513 988 513 988 611 1091.5 c 128,-1,53
 709 1195 709 1195 865 1195 c 0,54,55
 1176 1195 1176 1195 1195 853 c 1,32,-1
EndSplineSet
Validated: 1
EndChar

StartChar: ordfeminine
Encoding: 170 170 132
Width: 1195
GlyphClass: 1
Flags: W
LayerCount: 2
Fore
SplineSet
740 1147 m 1,0,-1
 740 1243 l 2,1,2
 740 1389 740 1389 598 1389 c 2,3,-1
 484 1389 l 2,4,5
 358 1389 358 1389 342 1243 c 1,6,-1
 171 1243 l 1,7,8
 203 1536 203 1536 455 1536 c 2,9,-1
 740 1536 l 2,10,11
 856 1536 856 1536 940 1450 c 128,-1,12
 1024 1364 1024 1364 1024 1243 c 2,13,-1
 1024 512 l 1,14,-1
 740 512 l 1,15,-1
 740 658 l 1,16,17
 723 512 723 512 598 512 c 2,18,-1
 455 512 l 2,19,20
 339 512 339 512 255 598 c 128,-1,21
 171 684 171 684 171 804 c 2,22,-1
 171 854 l 2,23,24
 171 976 171 976 256 1061.5 c 128,-1,25
 341 1147 341 1147 455 1147 c 2,26,-1
 740 1147 l 1,0,-1
740 976 m 1,27,-1
 598 976 l 2,28,29
 455 976 455 976 455 830 c 2,30,-1
 455 829 l 2,31,32
 455 756 455 756 491 719.5 c 128,-1,33
 527 683 527 683 598 683 c 0,34,35
 740 683 740 683 740 829 c 2,36,-1
 740 976 l 1,27,-1
171 341 m 1,37,-1
 1024 341 l 1,38,-1
 1024 171 l 1,39,-1
 171 171 l 1,40,-1
 171 341 l 1,37,-1
EndSplineSet
Validated: 1
EndChar

StartChar: guillemotleft
Encoding: 171 171 133
Width: 1536
GlyphClass: 1
Flags: W
LayerCount: 2
Fore
SplineSet
171 597 m 1,0,-1
 768 1194 l 1,1,-1
 768 1023 l 1,2,-1
 342 597 l 1,3,-1
 768 170 l 1,4,-1
 768 0 l 1,5,-1
 171 597 l 1,0,-1
683 597 m 1,6,-1
 1280 1194 l 1,7,-1
 1280 1023 l 1,8,-1
 854 597 l 1,9,-1
 1280 170 l 1,10,-1
 1280 0 l 1,11,-1
 683 597 l 1,6,-1
EndSplineSet
Validated: 1
EndChar

StartChar: logicalnot
Encoding: 172 172 134
Width: 1195
GlyphClass: 1
Flags: W
LayerCount: 2
Fore
SplineSet
171 512 m 1,0,-1
 171 683 l 1,1,-1
 1024 683 l 1,2,-1
 1024 171 l 1,3,-1
 854 171 l 1,4,-1
 854 512 l 1,5,-1
 171 512 l 1,0,-1
EndSplineSet
Validated: 1
EndChar

StartChar: uni00AD
Encoding: 173 173 135
Width: 1166
GlyphClass: 1
Flags: W
LayerCount: 2
Fore
SplineSet
166 500 m 1,0,-1
 166 666 l 1,1,-1
 1000 666 l 1,2,-1
 1000 500 l 1,3,-1
 166 500 l 1,0,-1
EndSplineSet
Validated: 1
EndChar

StartChar: registered
Encoding: 174 174 136
Width: 1707
GlyphClass: 1
Flags: W
LayerCount: 2
Fore
SplineSet
683 1536 m 2,0,-1
 1024 1536 l 2,1,2
 1234 1536 1234 1536 1385 1385 c 128,-1,3
 1536 1234 1536 1234 1536 1024 c 2,4,-1
 1536 512 l 2,5,6
 1536 303 1536 303 1385 151.5 c 128,-1,7
 1234 0 1234 0 1024 0 c 2,8,-1
 683 0 l 2,9,10
 473 0 473 0 322 151 c 128,-1,11
 171 302 171 302 171 512 c 2,12,-1
 171 1024 l 2,13,14
 171 1235 171 1235 322.5 1385.5 c 128,-1,15
 474 1536 474 1536 683 1536 c 2,0,-1
1365 512 m 2,16,-1
 1365 1024 l 2,17,18
 1365 1164 1365 1164 1264.5 1264.5 c 128,-1,19
 1164 1365 1164 1365 1024 1365 c 2,20,-1
 683 1365 l 2,21,22
 543 1365 543 1365 442.5 1264.5 c 128,-1,23
 342 1164 342 1164 342 1024 c 2,24,-1
 342 512 l 2,25,26
 342 373 342 373 442 272 c 128,-1,27
 542 171 542 171 683 171 c 2,28,-1
 1024 171 l 2,29,30
 1164 171 1164 171 1264.5 272 c 128,-1,31
 1365 373 1365 373 1365 512 c 2,16,-1
1195 341 m 1,32,-1
 1025 341 l 1,33,-1
 1025 512 l 2,34,35
 1025 582 1025 582 974.5 632.5 c 128,-1,36
 924 683 924 683 854 683 c 2,37,-1
 683 683 l 1,38,-1
 683 341 l 1,39,-1
 513 341 l 1,40,-1
 513 1195 l 1,41,-1
 1025 1195 l 2,42,43
 1094 1195 1094 1195 1144.5 1144.5 c 128,-1,44
 1195 1094 1195 1094 1195 1024 c 2,45,-1
 1195 939 l 2,46,47
 1195 864 1195 864 1152.5 821 c 128,-1,48
 1110 778 1110 778 1025 768 c 1,49,50
 1110 768 1110 768 1152.5 727.5 c 128,-1,51
 1195 687 1195 687 1195 605 c 2,52,-1
 1195 341 l 1,32,-1
683 1024 m 1,53,-1
 683 853 l 1,54,-1
 939 853 l 2,55,56
 982 853 982 853 1003.5 874.5 c 128,-1,57
 1025 896 1025 896 1025 939 c 0,58,59
 1025 1024 1025 1024 939 1024 c 2,60,-1
 683 1024 l 1,53,-1
EndSplineSet
Validated: 1
EndChar

StartChar: macron
Encoding: 175 175 137
Width: 1024
GlyphClass: 1
Flags: W
LayerCount: 2
Fore
SplineSet
171 1365 m 1,0,-1
 171 1536 l 1,1,-1
 853 1536 l 1,2,-1
 853 1365 l 1,3,-1
 171 1365 l 1,0,-1
EndSplineSet
Validated: 1
EndChar

StartChar: degree
Encoding: 176 176 138
Width: 1024
GlyphClass: 1
Flags: W
LayerCount: 2
Fore
SplineSet
171 1195 m 0,0,1
 171 1335 171 1335 272 1435.5 c 128,-1,2
 373 1536 373 1536 512 1536 c 0,3,4
 652 1536 652 1536 753 1435.5 c 128,-1,5
 854 1335 854 1335 854 1194 c 0,6,7
 854 1056 854 1056 754 954.5 c 128,-1,8
 654 853 654 853 512 853 c 0,9,10
 371 853 371 853 271 954.5 c 128,-1,11
 171 1056 171 1056 171 1195 c 0,0,1
342 1195 m 256,12,13
 342 1125 342 1125 392 1074.5 c 128,-1,14
 442 1024 442 1024 512 1024 c 0,15,16
 583 1024 583 1024 633 1074.5 c 128,-1,17
 683 1125 683 1125 683 1195 c 256,18,19
 683 1265 683 1265 632.5 1315 c 128,-1,20
 582 1365 582 1365 512 1365 c 256,21,22
 442 1365 442 1365 392 1315 c 128,-1,23
 342 1265 342 1265 342 1195 c 256,12,13
EndSplineSet
Validated: 1
EndChar

StartChar: plusminus
Encoding: 177 177 139
Width: 1195
GlyphClass: 1
Flags: W
LayerCount: 2
Fore
SplineSet
171 683 m 1,0,-1
 171 853 l 1,1,-1
 512 853 l 1,2,-1
 512 1195 l 1,3,-1
 683 1195 l 1,4,-1
 683 853 l 1,5,-1
 1024 853 l 1,6,-1
 1024 683 l 1,7,-1
 683 683 l 1,8,-1
 683 341 l 1,9,-1
 512 341 l 1,10,-1
 512 683 l 1,11,-1
 171 683 l 1,0,-1
171 0 m 1,12,-1
 171 171 l 1,13,-1
 1024 171 l 1,14,-1
 1024 0 l 1,15,-1
 171 0 l 1,12,-1
EndSplineSet
Validated: 1
EndChar

StartChar: twosuperior
Encoding: 178 178 140
Width: 1195
GlyphClass: 1
Flags: W
LayerCount: 2
Fore
SplineSet
313 1233 m 1,0,-1
 171 1233 l 1,1,2
 171 1400 171 1400 262.5 1468 c 128,-1,3
 354 1536 354 1536 455 1536 c 2,4,-1
 740 1536 l 2,5,6
 857 1536 857 1536 940.5 1457 c 128,-1,7
 1024 1378 1024 1378 1024 1270 c 2,8,-1
 1024 1204 l 2,9,10
 1024 1065 1024 1065 749 847 c 1,11,-1
 730 831 l 1,12,13
 455 613 455 613 455 519 c 2,14,-1
 455 512 l 1,15,-1
 1024 512 l 1,16,-1
 1024 341 l 1,17,-1
 171 341 l 1,18,-1
 171 512 l 2,19,20
 171 611 171 611 446 831 c 1,21,-1
 465 847 l 1,22,23
 740 1067 740 1067 740 1204 c 2,24,-1
 740 1233 l 2,25,26
 740 1365 740 1365 598 1365 c 2,27,-1
 455 1365 l 2,28,29
 324 1365 324 1365 313 1233 c 1,0,-1
EndSplineSet
Validated: 1
EndChar

StartChar: threesuperior
Encoding: 179 179 141
Width: 1195
GlyphClass: 1
Flags: W
LayerCount: 2
Fore
SplineSet
171 1536 m 1,0,-1
 1024 1536 l 1,1,-1
 1024 1365 l 1,2,-1
 683 1109 l 1,3,-1
 740 1109 l 2,4,5
 863 1109 863 1109 943.5 1021 c 128,-1,6
 1024 933 1024 933 1024 844 c 2,7,-1
 1024 607 l 2,8,9
 1024 498 1024 498 940.5 419.5 c 128,-1,10
 857 341 857 341 740 341 c 2,11,-1
 455 341 l 2,12,13
 355 341 355 341 263 408.5 c 128,-1,14
 171 476 171 476 171 645 c 1,15,-1
 342 645 l 1,16,17
 353 512 353 512 484 512 c 2,18,-1
 598 512 l 2,19,20
 740 512 740 512 740 645 c 2,21,-1
 740 806 l 2,22,23
 740 836 740 836 705.5 887.5 c 128,-1,24
 671 939 671 939 598 939 c 2,25,-1
 427 939 l 1,26,-1
 427 1109 l 1,27,-1
 768 1365 l 1,28,-1
 171 1365 l 1,29,-1
 171 1536 l 1,0,-1
EndSplineSet
Validated: 1
EndChar

StartChar: acute
Encoding: 180 180 142
Width: 1024
GlyphClass: 1
Flags: W
LayerCount: 2
Fore
SplineSet
341 1365 m 1,0,-1
 512 1707 l 1,1,-1
 683 1707 l 1,2,-1
 512 1365 l 1,3,-1
 341 1365 l 1,0,-1
EndSplineSet
Validated: 1
EndChar

StartChar: mu
Encoding: 181 181 143
Width: 1707
GlyphClass: 1
Flags: W
LayerCount: 2
Fore
SplineSet
187 -341 m 1,0,-1
 494 1195 l 1,1,-1
 835 1195 l 1,2,-1
 665 341 l 2,3,4
 661 324 661 324 661 307 c 0,5,6
 661 171 661 171 800 171 c 0,7,8
 972 171 972 171 1006 341 c 2,9,-1
 1176 1195 l 1,10,-1
 1518 1195 l 1,11,-1
 1347 341 l 2,12,13
 1344 324 1344 324 1344 307 c 0,14,15
 1344 186 1344 186 1484 171 c 1,16,-1
 1450 0 l 1,17,-1
 1279 0 l 2,18,19
 1141 0 1141 0 1141 131 c 0,20,21
 1141 144 1141 144 1142 171 c 1,22,23
 1088 0 1088 0 938 0 c 2,24,-1
 767 0 l 2,25,26
 629 0 629 0 629 131 c 0,27,28
 629 144 629 144 630 171 c 1,29,-1
 528 -341 l 1,30,-1
 187 -341 l 1,0,-1
EndSplineSet
Validated: 1
EndChar

StartChar: paragraph
Encoding: 182 182 144
Width: 1536
GlyphClass: 1
Flags: W
LayerCount: 2
Fore
SplineSet
853 1365 m 1,0,-1
 511 1365 l 1,1,-1
 511 853 l 1,2,-1
 853 853 l 1,3,-1
 853 1365 l 1,0,-1
1365 0 m 1,4,-1
 1194 0 l 1,5,-1
 1194 1365 l 1,6,-1
 1023 1365 l 1,7,-1
 1023 0 l 1,8,-1
 853 0 l 1,9,-1
 853 683 l 1,10,-1
 511 683 l 2,11,12
 335 683 335 683 210 809 c 128,-1,13
 85 935 85 935 85 1109 c 0,14,15
 85 1285 85 1285 211 1410.5 c 128,-1,16
 337 1536 337 1536 511 1536 c 2,17,-1
 1365 1536 l 1,18,-1
 1365 0 l 1,4,-1
EndSplineSet
Validated: 1
EndChar

StartChar: periodcentered
Encoding: 183 183 145
Width: 683
GlyphClass: 1
Flags: W
LayerCount: 2
Fore
SplineSet
171 512 m 1,0,-1
 171 853 l 1,1,-1
 512 853 l 1,2,-1
 512 512 l 1,3,-1
 171 512 l 1,0,-1
EndSplineSet
Validated: 1
EndChar

StartChar: cedilla
Encoding: 184 184 146
Width: 1024
GlyphClass: 1
Flags: W
LayerCount: 2
Fore
SplineSet
388 -171 m 1,0,-1
 388 0 l 1,1,-1
 474 0 l 2,2,3
 579 0 579 0 654.5 -75.5 c 128,-1,4
 730 -151 730 -151 730 -256 c 0,5,6
 730 -367 730 -367 650 -439.5 c 128,-1,7
 570 -512 570 -512 484 -512 c 0,8,9
 446 -512 446 -512 376 -493 c 1,10,-1
 441 -335 l 1,11,12
 464 -341 464 -341 477 -341 c 0,13,14
 518 -341 518 -341 538.5 -319.5 c 128,-1,15
 559 -298 559 -298 559 -256 c 0,16,17
 559 -213 559 -213 538 -192 c 128,-1,18
 517 -171 517 -171 474 -171 c 2,19,-1
 388 -171 l 1,0,-1
EndSplineSet
Validated: 1
EndChar

StartChar: onesuperior
Encoding: 185 185 147
Width: 1195
GlyphClass: 1
Flags: W
LayerCount: 2
Fore
SplineSet
487 341 m 1,0,-1
 487 1212 l 1,1,-1
 316 1212 l 1,2,-1
 316 1365 l 1,3,-1
 629 1536 l 1,4,-1
 771 1536 l 1,5,-1
 771 341 l 1,6,-1
 487 341 l 1,0,-1
EndSplineSet
Validated: 1
EndChar

StartChar: ordmasculine
Encoding: 186 186 148
Width: 1195
GlyphClass: 1
Flags: W
LayerCount: 2
Fore
SplineSet
171 171 m 1,0,-1
 171 341 l 1,1,-1
 1024 341 l 1,2,-1
 1024 171 l 1,3,-1
 171 171 l 1,0,-1
455 1536 m 2,4,-1
 740 1536 l 2,5,6
 856 1536 856 1536 940 1450 c 128,-1,7
 1024 1364 1024 1364 1024 1243 c 2,8,-1
 1024 805 l 2,9,10
 1024 685 1024 685 940.5 598.5 c 128,-1,11
 857 512 857 512 740 512 c 2,12,-1
 455 512 l 2,13,14
 339 512 339 512 255 598 c 128,-1,15
 171 684 171 684 171 805 c 2,16,-1
 171 1243 l 2,17,18
 171 1364 171 1364 255 1450 c 128,-1,19
 339 1536 339 1536 455 1536 c 2,4,-1
455 1219 m 2,20,-1
 455 829 l 2,21,22
 455 683 455 683 598 683 c 0,23,24
 740 683 740 683 740 829 c 2,25,-1
 740 1219 l 2,26,27
 740 1365 740 1365 598 1365 c 0,28,29
 455 1365 455 1365 455 1219 c 2,20,-1
EndSplineSet
Validated: 1
EndChar

StartChar: guillemotright
Encoding: 187 187 149
Width: 1536
GlyphClass: 1
Flags: W
LayerCount: 2
Fore
SplineSet
1365 597 m 1,0,-1
 768 0 l 1,1,-1
 768 170 l 1,2,-1
 1194 597 l 1,3,-1
 768 1023 l 1,4,-1
 768 1194 l 1,5,-1
 1365 597 l 1,0,-1
853 597 m 1,6,-1
 256 0 l 1,7,-1
 256 170 l 1,8,-1
 682 597 l 1,9,-1
 256 1023 l 1,10,-1
 256 1194 l 1,11,-1
 853 597 l 1,6,-1
EndSplineSet
Validated: 1
EndChar

StartChar: onequarter
Encoding: 188 188 150
Width: 2389
GlyphClass: 1
Flags: W
LayerCount: 2
Fore
SplineSet
683 0 m 1,0,-1
 1195 1536 l 1,1,-1
 1365 1536 l 1,2,-1
 853 0 l 1,3,-1
 683 0 l 1,0,-1
341 341 m 1,4,-1
 341 1212 l 1,5,-1
 171 1212 l 1,6,-1
 171 1365 l 1,7,-1
 484 1536 l 1,8,-1
 626 1536 l 1,9,-1
 626 341 l 1,10,-1
 341 341 l 1,4,-1
1764 512 m 1,11,-1
 1764 956 l 1,12,-1
 1393 512 l 1,13,-1
 1764 512 l 1,11,-1
1764 0 m 1,14,-1
 1764 341 l 1,15,-1
 1195 341 l 1,16,-1
 1195 512 l 1,17,-1
 1764 1195 l 1,18,-1
 2048 1195 l 1,19,-1
 2048 512 l 1,20,-1
 2219 512 l 1,21,-1
 2219 341 l 1,22,-1
 2048 341 l 1,23,-1
 2048 0 l 1,24,-1
 1764 0 l 1,14,-1
EndSplineSet
Validated: 1
EndChar

StartChar: onehalf
Encoding: 189 189 151
Width: 2389
GlyphClass: 1
Flags: W
LayerCount: 2
Fore
SplineSet
683 0 m 1,0,-1
 1195 1536 l 1,1,-1
 1365 1536 l 1,2,-1
 853 0 l 1,3,-1
 683 0 l 1,0,-1
341 341 m 1,4,-1
 341 1212 l 1,5,-1
 171 1212 l 1,6,-1
 171 1365 l 1,7,-1
 484 1536 l 1,8,-1
 626 1536 l 1,9,-1
 626 341 l 1,10,-1
 341 341 l 1,4,-1
1507 891 m 1,11,-1
 1365 891 l 1,12,13
 1365 1059 1365 1059 1457 1127 c 128,-1,14
 1549 1195 1549 1195 1650 1195 c 2,15,-1
 1934 1195 l 2,16,17
 2052 1195 2052 1195 2135 1116 c 128,-1,18
 2218 1037 2218 1037 2218 929 c 2,19,-1
 2218 863 l 2,20,21
 2218 724 2218 724 1944 506 c 2,22,-1
 1924 490 l 2,23,24
 1650 272 1650 272 1650 177 c 2,25,-1
 1650 171 l 1,26,-1
 2218 171 l 1,27,-1
 2218 0 l 1,28,-1
 1365 0 l 1,29,-1
 1365 171 l 2,30,31
 1365 270 1365 270 1640 490 c 1,32,-1
 1659 506 l 1,33,34
 1934 726 1934 726 1934 863 c 2,35,-1
 1934 891 l 2,36,37
 1934 1024 1934 1024 1792 1024 c 2,38,-1
 1650 1024 l 2,39,40
 1518 1024 1518 1024 1507 891 c 1,11,-1
EndSplineSet
Validated: 1
EndChar

StartChar: threequarters
Encoding: 190 190 152
Width: 2731
GlyphClass: 1
Flags: W
LayerCount: 2
Fore
SplineSet
1024 0 m 1,0,-1
 1536 1536 l 1,1,-1
 1707 1536 l 1,2,-1
 1195 0 l 1,3,-1
 1024 0 l 1,0,-1
2105 512 m 1,4,-1
 2105 956 l 1,5,-1
 1735 512 l 1,6,-1
 2105 512 l 1,4,-1
2105 0 m 1,7,-1
 2105 341 l 1,8,-1
 1536 341 l 1,9,-1
 1536 512 l 1,10,-1
 2105 1195 l 1,11,-1
 2390 1195 l 1,12,-1
 2390 512 l 1,13,-1
 2560 512 l 1,14,-1
 2560 341 l 1,15,-1
 2390 341 l 1,16,-1
 2390 0 l 1,17,-1
 2105 0 l 1,7,-1
171 1536 m 1,18,-1
 1024 1536 l 1,19,-1
 1024 1365 l 1,20,-1
 683 1109 l 1,21,-1
 740 1109 l 2,22,23
 863 1109 863 1109 943.5 1021 c 128,-1,24
 1024 933 1024 933 1024 844 c 2,25,-1
 1024 607 l 2,26,27
 1024 498 1024 498 940.5 419.5 c 128,-1,28
 857 341 857 341 740 341 c 2,29,-1
 455 341 l 2,30,31
 355 341 355 341 263 408.5 c 128,-1,32
 171 476 171 476 171 645 c 1,33,-1
 342 645 l 1,34,35
 353 512 353 512 484 512 c 2,36,-1
 598 512 l 2,37,38
 740 512 740 512 740 645 c 2,39,-1
 740 806 l 2,40,41
 740 836 740 836 705.5 887.5 c 128,-1,42
 671 939 671 939 598 939 c 2,43,-1
 427 939 l 1,44,-1
 427 1109 l 1,45,-1
 768 1365 l 1,46,-1
 171 1365 l 1,47,-1
 171 1536 l 1,18,-1
EndSplineSet
Validated: 1
EndChar

StartChar: questiondown
Encoding: 191 191 153
Width: 1365
GlyphClass: 1
Flags: W
LayerCount: 2
Fore
SplineSet
853 1536 m 1,0,-1
 853 1195 l 1,1,-1
 512 1195 l 1,2,-1
 512 1536 l 1,3,-1
 853 1536 l 1,0,-1
853 1024 m 1,4,-1
 853 853 l 2,5,6
 853 642 853 642 631 508 c 2,7,-1
 604 492 l 2,8,9
 512 436 512 436 512 341 c 0,10,11
 512 271 512 271 562.5 221 c 128,-1,12
 613 171 613 171 683 171 c 2,13,-1
 853 171 l 2,14,15
 1011 171 1011 171 1024 341 c 1,16,-1
 1195 341 l 1,17,18
 1155 0 1155 0 853 0 c 2,19,-1
 512 0 l 2,20,21
 372 0 372 0 271.5 100.5 c 128,-1,22
 171 201 171 201 171 341 c 0,23,24
 171 563 171 563 365 649 c 2,25,-1
 393 661 l 2,26,27
 485 702 485 702 498.5 741 c 128,-1,28
 512 780 512 780 512 853 c 2,29,-1
 512 1024 l 1,30,-1
 853 1024 l 1,4,-1
EndSplineSet
Validated: 1
EndChar

StartChar: Aring
Encoding: 197 197 159
Width: 1365
GlyphClass: 1
Flags: W
LayerCount: 2
Fore
SplineSet
512 853 m 1,0,-1
 854 853 l 1,1,-1
 854 1195 l 2,2,3
 854 1265 854 1265 803.5 1315 c 128,-1,4
 753 1365 753 1365 683 1365 c 256,5,6
 613 1365 613 1365 562.5 1315 c 128,-1,7
 512 1265 512 1265 512 1195 c 2,8,-1
 512 853 l 1,0,-1
171 0 m 1,9,-1
 171 1195 l 2,10,11
 171 1433 171 1433 399 1517 c 1,12,13
 371 1568 371 1568 356.5 1615 c 128,-1,14
 342 1662 342 1662 342 1704 c 0,15,16
 342 1848 342 1848 443 1948 c 128,-1,17
 544 2048 544 2048 683 2048 c 256,18,19
 822 2048 822 2048 923 1948 c 128,-1,20
 1024 1848 1024 1848 1024 1705 c 0,21,22
 1024 1661 1024 1661 1010 1614 c 128,-1,23
 996 1567 996 1567 967 1517 c 1,24,25
 1195 1434 1195 1434 1195 1195 c 2,26,-1
 1195 0 l 1,27,-1
 854 0 l 1,28,-1
 854 683 l 1,29,-1
 512 683 l 1,30,-1
 512 0 l 1,31,-1
 171 0 l 1,9,-1
683 1536 m 256,32,33
 754 1536 754 1536 804 1586.5 c 128,-1,34
 854 1637 854 1637 854 1706 c 0,35,36
 854 1777 854 1777 803.5 1827 c 128,-1,37
 753 1877 753 1877 683 1877 c 256,38,39
 613 1877 613 1877 562.5 1827 c 128,-1,40
 512 1777 512 1777 512 1706 c 0,41,42
 512 1637 512 1637 562 1586.5 c 128,-1,43
 612 1536 612 1536 683 1536 c 256,32,33
EndSplineSet
Validated: 1
EndChar

StartChar: AE
Encoding: 198 198 160
Width: 1877
GlyphClass: 1
Flags: W
LayerCount: 2
Fore
SplineSet
171 0 m 1,0,-1
 171 1195 l 2,1,2
 171 1335 171 1335 271.5 1435.5 c 128,-1,3
 372 1536 372 1536 512 1536 c 2,4,-1
 1707 1536 l 1,5,-1
 1707 1365 l 1,6,-1
 1195 1365 l 1,7,-1
 1195 853 l 1,8,-1
 1536 853 l 1,9,-1
 1536 683 l 1,10,-1
 1195 683 l 1,11,-1
 1195 171 l 1,12,-1
 1707 171 l 1,13,-1
 1707 0 l 1,14,-1
 854 0 l 1,15,-1
 854 683 l 1,16,-1
 512 683 l 1,17,-1
 512 0 l 1,18,-1
 171 0 l 1,0,-1
512 853 m 1,19,-1
 854 853 l 1,20,-1
 854 1195 l 2,21,22
 854 1265 854 1265 803.5 1315 c 128,-1,23
 753 1365 753 1365 683 1365 c 256,24,25
 613 1365 613 1365 562.5 1315 c 128,-1,26
 512 1265 512 1265 512 1195 c 2,27,-1
 512 853 l 1,19,-1
EndSplineSet
Validated: 1
EndChar

StartChar: Ccedilla
Encoding: 199 199 161
Width: 1365
GlyphClass: 1
Flags: W
LayerCount: 2
Fore
SplineSet
585 -493 m 1,0,-1
 650 -335 l 1,1,2
 674 -341 674 -341 686 -341 c 0,3,4
 728 -341 728 -341 748.5 -319.5 c 128,-1,5
 769 -298 769 -298 769 -256 c 0,6,7
 769 -213 769 -213 747.5 -192 c 128,-1,8
 726 -171 726 -171 683 -171 c 2,9,-1
 598 -171 l 1,10,-1
 598 0 l 1,11,-1
 512 0 l 2,12,13
 372 0 372 0 271.5 100.5 c 128,-1,14
 171 201 171 201 171 341 c 2,15,-1
 171 1195 l 2,16,17
 171 1333 171 1333 270 1434.5 c 128,-1,18
 369 1536 369 1536 512 1536 c 2,19,-1
 854 1536 l 2,20,21
 1176 1536 1176 1536 1195 1195 c 1,22,-1
 1024 1195 l 1,23,24
 1004 1365 1004 1365 854 1365 c 2,25,-1
 683 1365 l 2,26,27
 613 1365 613 1365 562.5 1315 c 128,-1,28
 512 1265 512 1265 512 1195 c 2,29,-1
 512 341 l 2,30,31
 512 272 512 272 562 221.5 c 128,-1,32
 612 171 612 171 683 171 c 2,33,-1
 854 171 l 2,34,35
 1005 171 1005 171 1024 341 c 1,36,-1
 1195 341 l 1,37,38
 1173 0 1173 0 854 0 c 2,39,-1
 683 0 l 1,40,41
 788 0 788 0 863.5 -75.5 c 128,-1,42
 939 -151 939 -151 939 -256 c 256,43,44
 939 -361 939 -361 868.5 -436.5 c 128,-1,45
 798 -512 798 -512 693 -512 c 0,46,47
 655 -512 655 -512 585 -493 c 1,0,-1
EndSplineSet
Validated: 1
EndChar

StartChar: Eth
Encoding: 208 208 170
Width: 1365
GlyphClass: 1
Flags: W
LayerCount: 2
Fore
SplineSet
171 0 m 1,0,-1
 171 683 l 1,1,-1
 0 683 l 1,2,-1
 0 853 l 1,3,-1
 171 853 l 1,4,-1
 171 1536 l 1,5,-1
 854 1536 l 2,6,7
 994 1536 994 1536 1094.5 1435 c 128,-1,8
 1195 1334 1195 1334 1195 1195 c 2,9,-1
 1195 341 l 2,10,11
 1195 202 1195 202 1094.5 101 c 128,-1,12
 994 0 994 0 854 0 c 2,13,-1
 171 0 l 1,0,-1
512 171 m 1,14,-1
 683 171 l 2,15,16
 754 171 754 171 804 221.5 c 128,-1,17
 854 272 854 272 854 341 c 2,18,-1
 854 1195 l 2,19,20
 854 1265 854 1265 803.5 1315 c 128,-1,21
 753 1365 753 1365 683 1365 c 2,22,-1
 512 1365 l 1,23,-1
 512 853 l 1,24,-1
 683 853 l 1,25,-1
 683 683 l 1,26,-1
 512 683 l 1,27,-1
 512 171 l 1,14,-1
EndSplineSet
Validated: 1
EndChar

StartChar: multiply
Encoding: 215 215 177
Width: 1365
GlyphClass: 1
Flags: W
LayerCount: 2
Fore
SplineSet
171 988 m 1,0,-1
 292 1109 l 1,1,-1
 683 718 l 1,2,-1
 1074 1109 l 1,3,-1
 1195 988 l 1,4,-1
 804 597 l 1,5,-1
 1195 206 l 1,6,-1
 1074 85 l 1,7,-1
 683 476 l 1,8,-1
 292 85 l 1,9,-1
 171 206 l 1,10,-1
 562 597 l 1,11,-1
 171 988 l 1,0,-1
EndSplineSet
Validated: 1
EndChar

StartChar: Oslash
Encoding: 216 216 178
Width: 1365
GlyphClass: 1
Flags: W
LayerCount: 2
Fore
SplineSet
171 0 m 1,0,-1
 244 130 l 1,1,2
 171 241 171 241 171 341 c 2,3,-1
 171 1195 l 2,4,5
 171 1335 171 1335 271.5 1435.5 c 128,-1,6
 372 1536 372 1536 512 1536 c 2,7,-1
 854 1536 l 2,8,9
 930 1536 930 1536 1005 1501 c 1,10,-1
 1024 1536 l 1,11,-1
 1195 1536 l 1,12,-1
 1122 1405 l 1,13,14
 1195 1295 1195 1295 1195 1195 c 2,15,-1
 1195 341 l 2,16,17
 1195 202 1195 202 1094.5 101 c 128,-1,18
 994 0 994 0 854 0 c 2,19,-1
 512 0 l 2,20,21
 438 0 438 0 361 35 c 1,22,-1
 342 0 l 1,23,-1
 171 0 l 1,0,-1
516 314 m 1,24,25
 542 171 542 171 683 171 c 0,26,27
 754 171 754 171 804 221.5 c 128,-1,28
 854 272 854 272 854 341 c 2,29,-1
 854 921 l 1,30,-1
 516 314 l 1,24,25
851 1224 m 1,31,32
 816 1365 816 1365 683 1365 c 0,33,34
 613 1365 613 1365 562.5 1315 c 128,-1,35
 512 1265 512 1265 512 1195 c 2,36,-1
 512 614 l 1,37,-1
 851 1224 l 1,31,32
EndSplineSet
Validated: 1
EndChar

StartChar: Thorn
Encoding: 222 222 184
Width: 1365
GlyphClass: 1
Flags: W
LayerCount: 2
Fore
SplineSet
171 0 m 1,0,-1
 171 1536 l 1,1,-1
 512 1536 l 1,2,-1
 512 1195 l 1,3,-1
 854 1195 l 2,4,5
 994 1195 994 1195 1094.5 1094 c 128,-1,6
 1195 993 1195 993 1195 853 c 2,7,-1
 1195 683 l 2,8,9
 1195 543 1195 543 1094.5 442 c 128,-1,10
 994 341 994 341 854 341 c 2,11,-1
 512 341 l 1,12,-1
 512 0 l 1,13,-1
 171 0 l 1,0,-1
512 512 m 1,14,-1
 683 512 l 2,15,16
 753 512 753 512 803.5 562.5 c 128,-1,17
 854 613 854 613 854 683 c 2,18,-1
 854 853 l 2,19,20
 854 923 854 923 803.5 973.5 c 128,-1,21
 753 1024 753 1024 683 1024 c 2,22,-1
 512 1024 l 1,23,-1
 512 512 l 1,14,-1
EndSplineSet
Validated: 1
EndChar

StartChar: germandbls
Encoding: 223 223 185
Width: 1365
GlyphClass: 1
Flags: W
LayerCount: 2
Fore
SplineSet
171 0 m 1,0,-1
 171 1195 l 2,1,2
 171 1334 171 1334 271.5 1435 c 128,-1,3
 372 1536 372 1536 512 1536 c 2,4,-1
 854 1536 l 2,5,6
 994 1536 994 1536 1094.5 1435 c 128,-1,7
 1195 1334 1195 1334 1195 1195 c 0,8,9
 1195 1044 1195 1044 1110 958.5 c 128,-1,10
 1025 873 1025 873 854 853 c 1,11,12
 1025 853 1025 853 1110 742.5 c 128,-1,13
 1195 632 1195 632 1195 512 c 2,14,-1
 1195 341 l 2,15,16
 1195 228 1195 228 1096.5 114 c 128,-1,17
 998 0 998 0 854 0 c 2,18,-1
 683 0 l 1,19,-1
 683 171 l 1,20,-1
 698 171 l 2,21,22
 719 171 719 171 768.5 192 c 128,-1,23
 818 213 818 213 836 251 c 128,-1,24
 854 289 854 289 854 341 c 2,25,-1
 854 597 l 2,26,27
 854 685 854 685 798.5 726.5 c 128,-1,28
 743 768 743 768 698 768 c 2,29,-1
 683 768 l 1,30,-1
 683 939 l 1,31,-1
 698 939 l 2,32,33
 740 939 740 939 797 983 c 128,-1,34
 854 1027 854 1027 854 1109 c 2,35,-1
 854 1195 l 2,36,37
 854 1265 854 1265 803.5 1315 c 128,-1,38
 753 1365 753 1365 683 1365 c 256,39,40
 613 1365 613 1365 562.5 1315 c 128,-1,41
 512 1265 512 1265 512 1195 c 2,42,-1
 512 0 l 1,43,-1
 171 0 l 1,0,-1
EndSplineSet
Validated: 1
EndChar

StartChar: ae
Encoding: 230 230 192
Width: 2048
GlyphClass: 1
Flags: W
LayerCount: 2
Fore
SplineSet
854 512 m 1,0,-1
 683 512 l 2,1,2
 613 512 613 512 562.5 462 c 128,-1,3
 512 412 512 412 512 342 c 2,4,-1
 512 341 l 2,5,6
 512 272 512 272 562 221.5 c 128,-1,7
 612 171 612 171 683 171 c 256,8,9
 754 171 754 171 804 221.5 c 128,-1,10
 854 272 854 272 854 341 c 2,11,-1
 854 512 l 1,0,-1
1195 683 m 1,12,-1
 1536 683 l 1,13,-1
 1536 853 l 2,14,15
 1536 922 1536 922 1485.5 973 c 128,-1,16
 1435 1024 1435 1024 1366 1024 c 0,17,18
 1296 1024 1296 1024 1245.5 973.5 c 128,-1,19
 1195 923 1195 923 1195 853 c 2,20,-1
 1195 683 l 1,12,-1
342 853 m 1,21,-1
 171 853 l 1,22,23
 210 1195 210 1195 512 1195 c 2,24,-1
 854 1195 l 2,25,26
 937 1195 937 1195 1024 1149 c 1,27,28
 1111 1195 1111 1195 1195 1195 c 2,29,-1
 1536 1195 l 2,30,31
 1676 1195 1676 1195 1777 1094 c 128,-1,32
 1878 993 1878 993 1878 853 c 2,33,-1
 1878 512 l 1,34,-1
 1195 512 l 1,35,-1
 1195 341 l 2,36,37
 1195 272 1195 272 1245 221.5 c 128,-1,38
 1295 171 1295 171 1366 171 c 2,39,-1
 1536 171 l 2,40,41
 1707 171 1707 171 1707 341 c 1,42,-1
 1878 341 l 1,43,44
 1838 0 1838 0 1536 0 c 2,45,-1
 1195 0 l 2,46,47
 1111 0 1111 0 1024 46 c 1,48,49
 937 0 937 0 854 0 c 2,50,-1
 512 0 l 2,51,52
 372 0 372 0 271.5 100.5 c 128,-1,53
 171 201 171 201 171 341 c 2,54,-1
 171 342 l 2,55,56
 171 482 171 482 272 582.5 c 128,-1,57
 373 683 373 683 512 683 c 2,58,-1
 854 683 l 1,59,-1
 854 853 l 2,60,61
 854 923 854 923 803.5 973.5 c 128,-1,62
 753 1024 753 1024 683 1024 c 2,63,-1
 512 1024 l 2,64,65
 361 1024 361 1024 342 853 c 1,21,-1
EndSplineSet
Validated: 1
EndChar

StartChar: ccedilla
Encoding: 231 231 193
Width: 1195
GlyphClass: 1
Flags: W
LayerCount: 2
Fore
SplineSet
512 0 m 1,0,1
 171 39 171 39 171 341 c 2,2,-1
 171 853 l 2,3,4
 171 994 171 994 272 1094.5 c 128,-1,5
 373 1195 373 1195 512 1195 c 2,6,-1
 683 1195 l 2,7,8
 1005 1195 1005 1195 1024 853 c 1,9,-1
 854 853 l 1,10,11
 834 1024 834 1024 683 1024 c 0,12,13
 613 1024 613 1024 562.5 973.5 c 128,-1,14
 512 923 512 923 512 853 c 2,15,-1
 512 341 l 2,16,17
 512 272 512 272 562 221.5 c 128,-1,18
 612 171 612 171 683 171 c 0,19,20
 834 171 834 171 854 341 c 1,21,-1
 1024 341 l 1,22,23
 1003 0 1003 0 683 0 c 2,24,-1
 598 0 l 1,25,26
 704 0 704 0 779 -76.5 c 128,-1,27
 854 -153 854 -153 854 -256 c 0,28,29
 854 -361 854 -361 783.5 -436.5 c 128,-1,30
 713 -512 713 -512 608 -512 c 0,31,32
 570 -512 570 -512 500 -493 c 1,33,-1
 565 -335 l 1,34,35
 588 -341 588 -341 601 -341 c 0,36,37
 642 -341 642 -341 662.5 -319.5 c 128,-1,38
 683 -298 683 -298 683 -256 c 0,39,40
 683 -213 683 -213 662 -192 c 128,-1,41
 641 -171 641 -171 598 -171 c 2,42,-1
 512 -171 l 1,43,-1
 512 0 l 1,0,1
EndSplineSet
Validated: 1
EndChar

StartChar: eth
Encoding: 240 240 202
Width: 1365
GlyphClass: 1
Flags: W
LayerCount: 2
Fore
SplineSet
342 1365 m 1,0,-1
 342 1536 l 1,1,-1
 427 1536 l 2,2,3
 606 1536 606 1536 783 1465 c 1,4,-1
 854 1536 l 1,5,-1
 1025 1536 l 1,6,-1
 890 1401 l 1,7,8
 1195 1150 1195 1150 1195 683 c 2,9,-1
 1195 341 l 2,10,11
 1195 203 1195 203 1095 101.5 c 128,-1,12
 995 0 995 0 854 0 c 2,13,-1
 512 0 l 2,14,15
 373 0 373 0 272 100 c 128,-1,16
 171 200 171 200 171 341 c 2,17,-1
 171 683 l 2,18,19
 171 825 171 825 272.5 924.5 c 128,-1,20
 374 1024 374 1024 512 1024 c 2,21,-1
 854 1024 l 1,22,23
 831 1183 831 1183 754 1265 c 1,24,-1
 683 1195 l 1,25,-1
 513 1195 l 1,26,-1
 653 1335 l 1,27,28
 582 1365 582 1365 502 1365 c 2,29,-1
 342 1365 l 1,0,-1
512 683 m 2,30,-1
 512 341 l 2,31,32
 512 272 512 272 562 221.5 c 128,-1,33
 612 171 612 171 683 171 c 256,34,35
 754 171 754 171 804 221.5 c 128,-1,36
 854 272 854 272 854 341 c 2,37,-1
 854 683 l 2,38,39
 854 753 854 753 803.5 803 c 128,-1,40
 753 853 753 853 683 853 c 256,41,42
 613 853 613 853 562.5 803 c 128,-1,43
 512 753 512 753 512 683 c 2,30,-1
EndSplineSet
Validated: 1
EndChar

StartChar: divide
Encoding: 247 247 209
Width: 1195
GlyphClass: 1
Flags: W
LayerCount: 2
Fore
SplineSet
512 853 m 1,0,-1
 512 1024 l 1,1,-1
 683 1024 l 1,2,-1
 683 853 l 1,3,-1
 512 853 l 1,0,-1
512 171 m 1,4,-1
 512 341 l 1,5,-1
 683 341 l 1,6,-1
 683 171 l 1,7,-1
 512 171 l 1,4,-1
171 512 m 1,8,-1
 171 683 l 1,9,-1
 1024 683 l 1,10,-1
 1024 512 l 1,11,-1
 171 512 l 1,8,-1
EndSplineSet
Validated: 1
EndChar

StartChar: oslash
Encoding: 248 248 210
Width: 1365
GlyphClass: 1
Flags: W
LayerCount: 2
Fore
SplineSet
1195 1195 m 1,0,-1
 1111 1077 l 1,1,2
 1195 960 1195 960 1195 853 c 2,3,-1
 1195 341 l 2,4,5
 1195 202 1195 202 1094.5 101 c 128,-1,6
 994 0 994 0 854 0 c 2,7,-1
 512 0 l 2,8,9
 439 0 439 0 365 33 c 1,10,-1
 342 0 l 1,11,-1
 171 0 l 1,12,-1
 255 117 l 1,13,14
 171 234 171 234 171 341 c 2,15,-1
 171 853 l 2,16,17
 171 994 171 994 272 1094.5 c 128,-1,18
 373 1195 373 1195 512 1195 c 2,19,-1
 854 1195 l 2,20,21
 927 1195 927 1195 1001 1161 c 1,22,-1
 1024 1195 l 1,23,-1
 1195 1195 l 1,0,-1
512 477 m 1,24,-1
 835 930 l 1,25,26
 777 1024 777 1024 683 1024 c 0,27,28
 613 1024 613 1024 562.5 973.5 c 128,-1,29
 512 923 512 923 512 853 c 2,30,-1
 512 477 l 1,24,-1
854 717 m 1,31,-1
 530 264 l 1,32,33
 590 171 590 171 683 171 c 0,34,35
 753 171 753 171 803.5 221.5 c 128,-1,36
 854 272 854 272 854 341 c 2,37,-1
 854 717 l 1,31,-1
EndSplineSet
Validated: 1
EndChar

StartChar: thorn
Encoding: 254 254 216
Width: 1365
GlyphClass: 1
Flags: W
LayerCount: 2
Fore
SplineSet
171 -341 m 1,0,-1
 171 1536 l 1,1,-1
 512 1536 l 1,2,-1
 512 1024 l 1,3,4
 522 1110 522 1110 565 1152.5 c 128,-1,5
 608 1195 608 1195 683 1195 c 2,6,-1
 854 1195 l 2,7,8
 994 1195 994 1195 1094.5 1094 c 128,-1,9
 1195 993 1195 993 1195 853 c 2,10,-1
 1195 341 l 2,11,12
 1195 202 1195 202 1094.5 101 c 128,-1,13
 994 0 994 0 854 0 c 2,14,-1
 512 0 l 1,15,-1
 512 -341 l 1,16,-1
 171 -341 l 1,0,-1
512 171 m 1,17,-1
 683 171 l 2,18,19
 754 171 754 171 804 221.5 c 128,-1,20
 854 272 854 272 854 341 c 2,21,-1
 854 853 l 2,22,23
 854 923 854 923 803.5 973.5 c 128,-1,24
 753 1024 753 1024 683 1024 c 256,25,26
 613 1024 613 1024 562.5 973.5 c 128,-1,27
 512 923 512 923 512 853 c 2,28,-1
 512 171 l 1,17,-1
EndSplineSet
Validated: 1
EndChar

StartChar: Amacron
Encoding: 256 256 218
Width: 1334
GlyphClass: 1
Flags: W
LayerCount: 2
Fore
SplineSet
166 0 m 1,0,-1
 166 1166 l 2,1,2
 166 1304 166 1304 265 1402 c 128,-1,3
 364 1500 364 1500 500 1500 c 2,4,-1
 834 1500 l 2,5,6
 970 1500 970 1500 1068 1401 c 128,-1,7
 1166 1302 1166 1302 1166 1166 c 2,8,-1
 1166 0 l 1,9,-1
 834 0 l 1,10,-1
 834 666 l 1,11,-1
 500 666 l 1,12,-1
 500 0 l 1,13,-1
 166 0 l 1,0,-1
500 834 m 1,14,-1
 834 834 l 1,15,-1
 834 1166 l 2,16,17
 834 1236 834 1236 785 1285 c 128,-1,18
 736 1334 736 1334 666 1334 c 0,19,20
 598 1334 598 1334 549 1285 c 128,-1,21
 500 1236 500 1236 500 1166 c 2,22,-1
 500 834 l 1,14,-1
334 1600 m 1,23,-1
 334 1766 l 1,24,-1
 1000 1766 l 1,25,-1
 1000 1600 l 1,26,-1
 334 1600 l 1,23,-1
EndSplineSet
Validated: 1
Ligature2: "'ccmp' Glyph Composition/Decomposition in Latin lookup 1 subtable" A macroncmb
EndChar

StartChar: amacron
Encoding: 257 257 219
Width: 1334
GlyphClass: 1
Flags: W
LayerCount: 2
Fore
SplineSet
834 666 m 1,0,-1
 834 834 l 2,1,2
 834 902 834 902 785 951 c 128,-1,3
 736 1000 736 1000 666 1000 c 2,4,-1
 500 1000 l 2,5,6
 352 1000 352 1000 334 834 c 1,7,-1
 166 834 l 1,8,9
 206 1166 206 1166 500 1166 c 2,10,-1
 834 1166 l 2,11,12
 970 1166 970 1166 1068 1068 c 128,-1,13
 1166 970 1166 970 1166 834 c 2,14,-1
 1166 0 l 1,15,-1
 834 0 l 1,16,-1
 834 166 l 1,17,18
 814 0 814 0 666 0 c 2,19,-1
 500 0 l 2,20,21
 364 0 364 0 265 98 c 128,-1,22
 166 196 166 196 166 334 c 1,23,-1
 166 334 l 1,24,25
 166 470 166 470 265 568 c 128,-1,26
 364 666 364 666 500 666 c 2,27,-1
 834 666 l 1,0,-1
834 500 m 1,28,-1
 666 500 l 2,29,30
 598 500 598 500 549 451 c 128,-1,31
 500 402 500 402 500 334 c 1,32,-1
 500 334 l 1,33,34
 500 266 500 266 549 216 c 128,-1,35
 598 166 598 166 666 166 c 0,36,37
 736 166 736 166 785 216 c 128,-1,38
 834 266 834 266 834 334 c 2,39,-1
 834 500 l 1,28,-1
334 1266 m 1,40,-1
 334 1434 l 1,41,-1
 1000 1434 l 1,42,-1
 1000 1266 l 1,43,-1
 334 1266 l 1,40,-1
EndSplineSet
Validated: 5
Ligature2: "'ccmp' Glyph Composition/Decomposition in Latin lookup 1 subtable" a macroncmb
EndChar

StartChar: Abreve
Encoding: 258 258 220
Width: 1334
GlyphClass: 1
Flags: W
LayerCount: 2
Fore
SplineSet
166 0 m 1,0,-1
 166 1166 l 2,1,2
 166 1304 166 1304 265 1402 c 128,-1,3
 364 1500 364 1500 500 1500 c 2,4,-1
 834 1500 l 2,5,6
 970 1500 970 1500 1068 1401 c 128,-1,7
 1166 1302 1166 1302 1166 1166 c 2,8,-1
 1166 0 l 1,9,-1
 834 0 l 1,10,-1
 834 666 l 1,11,-1
 500 666 l 1,12,-1
 500 0 l 1,13,-1
 166 0 l 1,0,-1
500 834 m 1,14,-1
 834 834 l 1,15,-1
 834 1166 l 2,16,17
 834 1236 834 1236 785 1285 c 128,-1,18
 736 1334 736 1334 666 1334 c 0,19,20
 598 1334 598 1334 549 1285 c 128,-1,21
 500 1236 500 1236 500 1166 c 2,22,-1
 500 834 l 1,14,-1
834 1934 m 1,23,-1
 1000 1934 l 1,24,25
 962 1600 962 1600 666 1600 c 0,26,27
 374 1600 374 1600 334 1934 c 1,28,-1
 500 1934 l 1,29,30
 520 1766 520 1766 666 1766 c 0,31,32
 814 1766 814 1766 834 1934 c 1,23,-1
EndSplineSet
Validated: 1
Ligature2: "'ccmp' Glyph Composition/Decomposition in Latin lookup 1 subtable" A brevecmb
EndChar

StartChar: abreve
Encoding: 259 259 221
Width: 1334
GlyphClass: 1
Flags: W
LayerCount: 2
Fore
SplineSet
834 666 m 1,0,-1
 834 834 l 2,1,2
 834 902 834 902 785 951 c 128,-1,3
 736 1000 736 1000 666 1000 c 2,4,-1
 500 1000 l 2,5,6
 352 1000 352 1000 334 834 c 1,7,-1
 166 834 l 1,8,9
 206 1166 206 1166 500 1166 c 2,10,-1
 834 1166 l 2,11,12
 970 1166 970 1166 1068 1068 c 128,-1,13
 1166 970 1166 970 1166 834 c 2,14,-1
 1166 0 l 1,15,-1
 834 0 l 1,16,-1
 834 166 l 1,17,18
 814 0 814 0 666 0 c 2,19,-1
 500 0 l 2,20,21
 364 0 364 0 265 98 c 128,-1,22
 166 196 166 196 166 334 c 1,23,-1
 166 334 l 1,24,25
 166 470 166 470 265 568 c 128,-1,26
 364 666 364 666 500 666 c 2,27,-1
 834 666 l 1,0,-1
834 500 m 1,28,-1
 666 500 l 2,29,30
 598 500 598 500 549 451 c 128,-1,31
 500 402 500 402 500 334 c 1,32,-1
 500 334 l 1,33,34
 500 266 500 266 549 216 c 128,-1,35
 598 166 598 166 666 166 c 0,36,37
 736 166 736 166 785 216 c 128,-1,38
 834 266 834 266 834 334 c 2,39,-1
 834 500 l 1,28,-1
834 1600 m 1,40,-1
 1000 1600 l 1,41,42
 962 1266 962 1266 666 1266 c 0,43,44
 374 1266 374 1266 334 1600 c 1,45,-1
 500 1600 l 1,46,47
 520 1434 520 1434 666 1434 c 0,48,49
 814 1434 814 1434 834 1600 c 1,40,-1
EndSplineSet
Validated: 5
Ligature2: "'ccmp' Glyph Composition/Decomposition in Latin lookup 1 subtable" a brevecmb
EndChar

StartChar: Aogonek
Encoding: 260 260 222
Width: 1334
GlyphClass: 1
Flags: W
LayerCount: 2
Fore
SplineSet
166 0 m 1,0,-1
 166 1166 l 2,1,2
 166 1304 166 1304 265 1402 c 128,-1,3
 364 1500 364 1500 500 1500 c 2,4,-1
 834 1500 l 2,5,6
 970 1500 970 1500 1068 1401 c 128,-1,7
 1166 1302 1166 1302 1166 1166 c 2,8,-1
 1166 0 l 1,9,-1
 834 0 l 1,10,-1
 834 666 l 1,11,-1
 500 666 l 1,12,-1
 500 0 l 1,13,-1
 166 0 l 1,0,-1
500 834 m 1,14,-1
 834 834 l 1,15,-1
 834 1166 l 2,16,17
 834 1236 834 1236 785 1285 c 128,-1,18
 736 1334 736 1334 666 1334 c 0,19,20
 598 1334 598 1334 549 1285 c 128,-1,21
 500 1236 500 1236 500 1166 c 2,22,-1
 500 834 l 1,14,-1
1156 -166 m 1,23,-1
 1072 -166 l 2,24,25
 1030 -166 1030 -166 1009 -187 c 128,-1,26
 988 -208 988 -208 988 -250 c 256,27,28
 988 -292 988 -292 1008 -313 c 128,-1,29
 1028 -334 1028 -334 1068 -334 c 0,30,31
 1082 -334 1082 -334 1104 -328 c 1,32,-1
 1166 -482 l 1,33,34
 1098 -500 1098 -500 1062 -500 c 0,35,36
 978 -500 978 -500 900 -429 c 128,-1,37
 822 -358 822 -358 822 -250 c 0,38,39
 822 -148 822 -148 896 -74 c 128,-1,40
 970 0 970 0 1072 0 c 2,41,-1
 1156 0 l 1,42,-1
 1156 -166 l 1,23,-1
EndSplineSet
Validated: 5
Ligature2: "'ccmp' Glyph Composition/Decomposition in Latin lookup 1 subtable" A ogonekcmb
EndChar

StartChar: aogonek
Encoding: 261 261 223
Width: 1334
GlyphClass: 1
Flags: W
LayerCount: 2
Fore
SplineSet
834 666 m 1,0,-1
 834 834 l 2,1,2
 834 902 834 902 785 951 c 128,-1,3
 736 1000 736 1000 666 1000 c 2,4,-1
 500 1000 l 2,5,6
 352 1000 352 1000 334 834 c 1,7,-1
 166 834 l 1,8,9
 206 1166 206 1166 500 1166 c 2,10,-1
 834 1166 l 2,11,12
 970 1166 970 1166 1068 1068 c 128,-1,13
 1166 970 1166 970 1166 834 c 2,14,-1
 1166 0 l 1,15,-1
 834 0 l 1,16,-1
 834 166 l 1,17,18
 814 0 814 0 666 0 c 2,19,-1
 500 0 l 2,20,21
 364 0 364 0 265 98 c 128,-1,22
 166 196 166 196 166 334 c 1,23,-1
 166 334 l 1,24,25
 166 470 166 470 265 568 c 128,-1,26
 364 666 364 666 500 666 c 2,27,-1
 834 666 l 1,0,-1
834 500 m 1,28,-1
 666 500 l 2,29,30
 598 500 598 500 549 451 c 128,-1,31
 500 402 500 402 500 334 c 1,32,-1
 500 334 l 1,33,34
 500 266 500 266 549 216 c 128,-1,35
 598 166 598 166 666 166 c 0,36,37
 736 166 736 166 785 216 c 128,-1,38
 834 266 834 266 834 334 c 2,39,-1
 834 500 l 1,28,-1
1156 -166 m 1,40,-1
 1072 -166 l 2,41,42
 1030 -166 1030 -166 1009 -187 c 128,-1,43
 988 -208 988 -208 988 -250 c 256,44,45
 988 -292 988 -292 1008 -313 c 128,-1,46
 1028 -334 1028 -334 1068 -334 c 0,47,48
 1082 -334 1082 -334 1104 -328 c 1,49,-1
 1166 -482 l 1,50,51
 1098 -500 1098 -500 1062 -500 c 0,52,53
 978 -500 978 -500 900 -429 c 128,-1,54
 822 -358 822 -358 822 -250 c 0,55,56
 822 -148 822 -148 896 -74 c 128,-1,57
 970 0 970 0 1072 0 c 2,58,-1
 1156 0 l 1,59,-1
 1156 -166 l 1,40,-1
EndSplineSet
Validated: 5
Ligature2: "'ccmp' Glyph Composition/Decomposition in Latin lookup 1 subtable" a ogonekcmb
EndChar

StartChar: Ccircumflex
Encoding: 264 264 226
Width: 1334
GlyphClass: 1
Flags: W
LayerCount: 2
Fore
SplineSet
1166 334 m 1,0,1
 1146 0 1146 0 834 0 c 2,2,-1
 500 0 l 2,3,4
 364 0 364 0 265 98 c 128,-1,5
 166 196 166 196 166 334 c 2,6,-1
 166 1166 l 2,7,8
 166 1302 166 1302 263 1401 c 128,-1,9
 360 1500 360 1500 500 1500 c 2,10,-1
 834 1500 l 2,11,12
 1148 1500 1148 1500 1166 1166 c 1,13,-1
 1000 1166 l 1,14,15
 980 1334 980 1334 834 1334 c 2,16,-1
 666 1334 l 2,17,18
 598 1334 598 1334 549 1285 c 128,-1,19
 500 1236 500 1236 500 1166 c 2,20,-1
 500 334 l 2,21,22
 500 266 500 266 549 216 c 128,-1,23
 598 166 598 166 666 166 c 2,24,-1
 834 166 l 2,25,26
 982 166 982 166 1000 334 c 1,27,-1
 1166 334 l 1,0,1
334 1600 m 1,28,-1
 584 1934 l 1,29,-1
 750 1934 l 1,30,-1
 1000 1600 l 1,31,-1
 834 1600 l 1,32,-1
 666 1766 l 1,33,-1
 500 1600 l 1,34,-1
 334 1600 l 1,28,-1
EndSplineSet
Validated: 1
Ligature2: "'ccmp' Glyph Composition/Decomposition in Latin lookup 1 subtable" C circumflexcmb
EndChar

StartChar: ccircumflex
Encoding: 265 265 227
Width: 1166
GlyphClass: 1
Flags: W
LayerCount: 2
Fore
SplineSet
1000 834 m 1,0,-1
 834 834 l 1,1,2
 814 1000 814 1000 666 1000 c 0,3,4
 598 1000 598 1000 549 951 c 128,-1,5
 500 902 500 902 500 834 c 2,6,-1
 500 334 l 2,7,8
 500 266 500 266 549 216 c 128,-1,9
 598 166 598 166 666 166 c 0,10,11
 814 166 814 166 834 334 c 1,12,-1
 1000 334 l 1,13,14
 980 0 980 0 666 0 c 2,15,-1
 500 0 l 2,16,17
 364 0 364 0 265 98 c 128,-1,18
 166 196 166 196 166 334 c 2,19,-1
 166 834 l 2,20,21
 166 970 166 970 265 1068 c 128,-1,22
 364 1166 364 1166 500 1166 c 2,23,-1
 666 1166 l 2,24,25
 982 1166 982 1166 1000 834 c 1,0,-1
250 1266 m 1,26,-1
 500 1600 l 1,27,-1
 666 1600 l 1,28,-1
 916 1266 l 1,29,-1
 750 1266 l 1,30,-1
 584 1434 l 1,31,-1
 416 1266 l 1,32,-1
 250 1266 l 1,26,-1
EndSplineSet
Validated: 1
Ligature2: "'ccmp' Glyph Composition/Decomposition in Latin lookup 1 subtable" c circumflexcmb
EndChar

StartChar: Cdotaccent
Encoding: 266 266 228
Width: 1334
GlyphClass: 1
Flags: W
LayerCount: 2
Fore
SplineSet
1166 334 m 1,0,1
 1146 0 1146 0 834 0 c 2,2,-1
 500 0 l 2,3,4
 364 0 364 0 265 98 c 128,-1,5
 166 196 166 196 166 334 c 2,6,-1
 166 1166 l 2,7,8
 166 1302 166 1302 263 1401 c 128,-1,9
 360 1500 360 1500 500 1500 c 2,10,-1
 834 1500 l 2,11,12
 1148 1500 1148 1500 1166 1166 c 1,13,-1
 1000 1166 l 1,14,15
 980 1334 980 1334 834 1334 c 2,16,-1
 666 1334 l 2,17,18
 598 1334 598 1334 549 1285 c 128,-1,19
 500 1236 500 1236 500 1166 c 2,20,-1
 500 334 l 2,21,22
 500 266 500 266 549 216 c 128,-1,23
 598 166 598 166 666 166 c 2,24,-1
 834 166 l 2,25,26
 982 166 982 166 1000 334 c 1,27,-1
 1166 334 l 1,0,1
588 1600 m 1,28,-1
 588 1806 l 1,29,-1
 786 1806 l 1,30,-1
 786 1600 l 1,31,-1
 588 1600 l 1,28,-1
EndSplineSet
Validated: 1
Ligature2: "'ccmp' Glyph Composition/Decomposition in Latin lookup 1 subtable" C dotaccentcmb
EndChar

StartChar: cdotaccent
Encoding: 267 267 229
Width: 1166
GlyphClass: 1
Flags: W
LayerCount: 2
Fore
SplineSet
1000 834 m 1,0,-1
 834 834 l 1,1,2
 814 1000 814 1000 666 1000 c 0,3,4
 598 1000 598 1000 549 951 c 128,-1,5
 500 902 500 902 500 834 c 2,6,-1
 500 334 l 2,7,8
 500 266 500 266 549 216 c 128,-1,9
 598 166 598 166 666 166 c 0,10,11
 814 166 814 166 834 334 c 1,12,-1
 1000 334 l 1,13,14
 980 0 980 0 666 0 c 2,15,-1
 500 0 l 2,16,17
 364 0 364 0 265 98 c 128,-1,18
 166 196 166 196 166 334 c 2,19,-1
 166 834 l 2,20,21
 166 970 166 970 265 1068 c 128,-1,22
 364 1166 364 1166 500 1166 c 2,23,-1
 666 1166 l 2,24,25
 982 1166 982 1166 1000 834 c 1,0,-1
504 1266 m 1,26,-1
 504 1472 l 1,27,-1
 702 1472 l 1,28,-1
 702 1266 l 1,29,-1
 504 1266 l 1,26,-1
EndSplineSet
Validated: 1
Ligature2: "'ccmp' Glyph Composition/Decomposition in Latin lookup 1 subtable" c dotaccentcmb
EndChar

StartChar: Dcaron
Encoding: 270 270 232
Width: 1334
GlyphClass: 1
Flags: W
LayerCount: 2
Fore
SplineSet
166 0 m 1,0,-1
 166 1500 l 1,1,-1
 834 1500 l 2,2,3
 970 1500 970 1500 1068 1401 c 128,-1,4
 1166 1302 1166 1302 1166 1166 c 2,5,-1
 1166 334 l 2,6,7
 1166 198 1166 198 1068 99 c 128,-1,8
 970 0 970 0 834 0 c 2,9,-1
 166 0 l 1,0,-1
500 166 m 1,10,-1
 666 166 l 2,11,12
 736 166 736 166 785 216 c 128,-1,13
 834 266 834 266 834 334 c 2,14,-1
 834 1166 l 2,15,16
 834 1236 834 1236 785 1285 c 128,-1,17
 736 1334 736 1334 666 1334 c 2,18,-1
 500 1334 l 1,19,-1
 500 166 l 1,10,-1
1000 1932 m 1,20,-1
 750 1600 l 1,21,-1
 584 1600 l 1,22,-1
 334 1934 l 1,23,-1
 500 1934 l 1,24,-1
 666 1766 l 1,25,-1
 834 1932 l 1,26,-1
 1000 1932 l 1,20,-1
EndSplineSet
Validated: 1
Ligature2: "'ccmp' Glyph Composition/Decomposition in Latin lookup 1 subtable" D caroncmb
EndChar

StartChar: dcaron
Encoding: 271 271 233
Width: 1334
GlyphClass: 1
Flags: W
LayerCount: 2
Fore
SplineSet
1166 0 m 1,0,-1
 834 0 l 1,1,-1
 834 166 l 1,2,3
 814 0 814 0 666 0 c 2,4,-1
 500 0 l 2,5,6
 364 0 364 0 265 98 c 128,-1,7
 166 196 166 196 166 334 c 2,8,-1
 166 834 l 2,9,10
 166 970 166 970 265 1068 c 128,-1,11
 364 1166 364 1166 500 1166 c 2,12,-1
 834 1166 l 1,13,-1
 834 1500 l 1,14,-1
 1166 1500 l 1,15,-1
 1166 0 l 1,0,-1
834 1000 m 1,16,-1
 666 1000 l 2,17,18
 598 1000 598 1000 549 951 c 128,-1,19
 500 902 500 902 500 834 c 2,20,-1
 500 334 l 2,21,22
 500 266 500 266 549 216 c 128,-1,23
 598 166 598 166 666 166 c 0,24,25
 736 166 736 166 785 216 c 128,-1,26
 834 266 834 266 834 334 c 2,27,-1
 834 1000 l 1,16,-1
1266 1882 m 1,28,-1
 1600 1882 l 1,29,-1
 1600 1550 l 2,30,31
 1600 1254 1600 1254 1266 1216 c 1,32,-1
 1266 1382 l 1,33,34
 1428 1388 1428 1388 1434 1550 c 1,35,-1
 1266 1550 l 1,36,-1
 1266 1882 l 1,28,-1
EndSplineSet
Validated: 1
Ligature2: "'ccmp' Glyph Composition/Decomposition in Latin lookup 1 subtable" d caroncmb
EndChar

StartChar: Dcroat
Encoding: 272 272 234
Width: 1334
GlyphClass: 1
Flags: W
LayerCount: 2
Fore
SplineSet
166 0 m 1,0,-1
 166 666 l 1,1,-1
 0 666 l 1,2,-1
 0 834 l 1,3,-1
 166 834 l 1,4,-1
 166 1500 l 1,5,-1
 834 1500 l 2,6,7
 970 1500 970 1500 1068 1401 c 128,-1,8
 1166 1302 1166 1302 1166 1166 c 2,9,-1
 1166 334 l 2,10,11
 1166 198 1166 198 1068 99 c 128,-1,12
 970 0 970 0 834 0 c 2,13,-1
 166 0 l 1,0,-1
500 166 m 1,14,-1
 666 166 l 2,15,16
 736 166 736 166 785 216 c 128,-1,17
 834 266 834 266 834 334 c 2,18,-1
 834 1166 l 2,19,20
 834 1236 834 1236 785 1285 c 128,-1,21
 736 1334 736 1334 666 1334 c 2,22,-1
 500 1334 l 1,23,-1
 500 834 l 1,24,-1
 666 834 l 1,25,-1
 666 666 l 1,26,-1
 500 666 l 1,27,-1
 500 166 l 1,14,-1
EndSplineSet
Validated: 1
EndChar

StartChar: dcroat
Encoding: 273 273 235
Width: 1365
GlyphClass: 1
Flags: W
LayerCount: 2
Fore
SplineSet
1195 0 m 1,0,-1
 854 0 l 1,1,-1
 854 171 l 1,2,3
 834 0 834 0 683 0 c 2,4,-1
 512 0 l 2,5,6
 372 0 372 0 271.5 100.5 c 128,-1,7
 171 201 171 201 171 341 c 2,8,-1
 171 853 l 2,9,10
 171 994 171 994 272 1094.5 c 128,-1,11
 373 1195 373 1195 512 1195 c 2,12,-1
 854 1195 l 1,13,-1
 854 1365 l 1,14,-1
 683 1365 l 1,15,-1
 683 1536 l 1,16,-1
 854 1536 l 1,17,-1
 854 1707 l 1,18,-1
 1195 1707 l 1,19,-1
 1195 1536 l 1,20,-1
 1366 1536 l 1,21,-1
 1366 1365 l 1,22,-1
 1195 1365 l 1,23,-1
 1195 0 l 1,0,-1
854 1024 m 1,24,-1
 683 1024 l 2,25,26
 613 1024 613 1024 562.5 973.5 c 128,-1,27
 512 923 512 923 512 853 c 2,28,-1
 512 341 l 2,29,30
 512 272 512 272 562 221.5 c 128,-1,31
 612 171 612 171 683 171 c 256,32,33
 754 171 754 171 804 221.5 c 128,-1,34
 854 272 854 272 854 341 c 2,35,-1
 854 1024 l 1,24,-1
EndSplineSet
Validated: 1
EndChar

StartChar: Emacron
Encoding: 274 274 236
Width: 1166
GlyphClass: 1
Flags: W
LayerCount: 2
Fore
SplineSet
166 0 m 1,0,-1
 166 1500 l 1,1,-1
 1000 1500 l 1,2,-1
 1000 1334 l 1,3,-1
 500 1334 l 1,4,-1
 500 834 l 1,5,-1
 834 834 l 1,6,-1
 834 666 l 1,7,-1
 500 666 l 1,8,-1
 500 166 l 1,9,-1
 1000 166 l 1,10,-1
 1000 0 l 1,11,-1
 166 0 l 1,0,-1
250 1600 m 1,12,-1
 250 1766 l 1,13,-1
 916 1766 l 1,14,-1
 916 1600 l 1,15,-1
 250 1600 l 1,12,-1
EndSplineSet
Validated: 1
Ligature2: "'ccmp' Glyph Composition/Decomposition in Latin lookup 1 subtable" E macroncmb
EndChar

StartChar: emacron
Encoding: 275 275 237
Width: 1334
GlyphClass: 1
Flags: W
LayerCount: 2
Fore
SplineSet
1166 500 m 1,0,-1
 500 500 l 1,1,-1
 500 334 l 2,2,3
 500 266 500 266 549 216 c 128,-1,4
 598 166 598 166 666 166 c 2,5,-1
 834 166 l 2,6,7
 1000 166 1000 166 1000 334 c 1,8,-1
 1166 334 l 1,9,10
 1128 0 1128 0 834 0 c 2,11,-1
 500 0 l 2,12,13
 364 0 364 0 265 98 c 128,-1,14
 166 196 166 196 166 334 c 2,15,-1
 166 834 l 2,16,17
 166 970 166 970 265 1068 c 128,-1,18
 364 1166 364 1166 500 1166 c 2,19,-1
 834 1166 l 2,20,21
 970 1166 970 1166 1068 1068 c 128,-1,22
 1166 970 1166 970 1166 834 c 2,23,-1
 1166 500 l 1,0,-1
500 666 m 1,24,-1
 834 666 l 1,25,-1
 834 834 l 2,26,27
 834 902 834 902 785 951 c 128,-1,28
 736 1000 736 1000 666 1000 c 0,29,30
 598 1000 598 1000 549 951 c 128,-1,31
 500 902 500 902 500 834 c 2,32,-1
 500 666 l 1,24,-1
334 1266 m 1,33,-1
 334 1434 l 1,34,-1
 1000 1434 l 1,35,-1
 1000 1266 l 1,36,-1
 334 1266 l 1,33,-1
EndSplineSet
Validated: 1
Ligature2: "'ccmp' Glyph Composition/Decomposition in Latin lookup 1 subtable" e macroncmb
EndChar

StartChar: Ebreve
Encoding: 276 276 238
Width: 1166
GlyphClass: 1
Flags: W
LayerCount: 2
Fore
SplineSet
166 0 m 1,0,-1
 166 1500 l 1,1,-1
 1000 1500 l 1,2,-1
 1000 1334 l 1,3,-1
 500 1334 l 1,4,-1
 500 834 l 1,5,-1
 834 834 l 1,6,-1
 834 666 l 1,7,-1
 500 666 l 1,8,-1
 500 166 l 1,9,-1
 1000 166 l 1,10,-1
 1000 0 l 1,11,-1
 166 0 l 1,0,-1
750 1934 m 1,12,-1
 916 1934 l 1,13,14
 878 1600 878 1600 584 1600 c 256,15,16
 290 1600 290 1600 250 1934 c 1,17,-1
 416 1934 l 1,18,19
 436 1766 436 1766 584 1766 c 0,20,21
 730 1766 730 1766 750 1934 c 1,12,-1
EndSplineSet
Validated: 1
Ligature2: "'ccmp' Glyph Composition/Decomposition in Latin lookup 1 subtable" E brevecmb
EndChar

StartChar: ebreve
Encoding: 277 277 239
Width: 1334
GlyphClass: 1
Flags: W
LayerCount: 2
Fore
SplineSet
1166 500 m 1,0,-1
 500 500 l 1,1,-1
 500 334 l 2,2,3
 500 266 500 266 549 216 c 128,-1,4
 598 166 598 166 666 166 c 2,5,-1
 834 166 l 2,6,7
 1000 166 1000 166 1000 334 c 1,8,-1
 1166 334 l 1,9,10
 1128 0 1128 0 834 0 c 2,11,-1
 500 0 l 2,12,13
 364 0 364 0 265 98 c 128,-1,14
 166 196 166 196 166 334 c 2,15,-1
 166 834 l 2,16,17
 166 970 166 970 265 1068 c 128,-1,18
 364 1166 364 1166 500 1166 c 2,19,-1
 834 1166 l 2,20,21
 970 1166 970 1166 1068 1068 c 128,-1,22
 1166 970 1166 970 1166 834 c 2,23,-1
 1166 500 l 1,0,-1
500 666 m 1,24,-1
 834 666 l 1,25,-1
 834 834 l 2,26,27
 834 902 834 902 785 951 c 128,-1,28
 736 1000 736 1000 666 1000 c 0,29,30
 598 1000 598 1000 549 951 c 128,-1,31
 500 902 500 902 500 834 c 2,32,-1
 500 666 l 1,24,-1
834 1600 m 1,33,-1
 1000 1600 l 1,34,35
 962 1266 962 1266 666 1266 c 0,36,37
 374 1266 374 1266 334 1600 c 1,38,-1
 500 1600 l 1,39,40
 520 1434 520 1434 666 1434 c 0,41,42
 814 1434 814 1434 834 1600 c 1,33,-1
EndSplineSet
Validated: 1
Ligature2: "'ccmp' Glyph Composition/Decomposition in Latin lookup 1 subtable" e brevecmb
EndChar

StartChar: Edotaccent
Encoding: 278 278 240
Width: 1166
GlyphClass: 1
Flags: W
LayerCount: 2
Fore
SplineSet
166 0 m 1,0,-1
 166 1500 l 1,1,-1
 1000 1500 l 1,2,-1
 1000 1334 l 1,3,-1
 500 1334 l 1,4,-1
 500 834 l 1,5,-1
 834 834 l 1,6,-1
 834 666 l 1,7,-1
 500 666 l 1,8,-1
 500 166 l 1,9,-1
 1000 166 l 1,10,-1
 1000 0 l 1,11,-1
 166 0 l 1,0,-1
504 1600 m 1,12,-1
 504 1806 l 1,13,-1
 702 1806 l 1,14,-1
 702 1600 l 1,15,-1
 504 1600 l 1,12,-1
EndSplineSet
Validated: 1
Ligature2: "'ccmp' Glyph Composition/Decomposition in Latin lookup 1 subtable" E dotaccentcmb
EndChar

StartChar: edotaccent
Encoding: 279 279 241
Width: 1334
GlyphClass: 1
Flags: W
LayerCount: 2
Fore
SplineSet
1166 500 m 1,0,-1
 500 500 l 1,1,-1
 500 334 l 2,2,3
 500 266 500 266 549 216 c 128,-1,4
 598 166 598 166 666 166 c 2,5,-1
 834 166 l 2,6,7
 1000 166 1000 166 1000 334 c 1,8,-1
 1166 334 l 1,9,10
 1128 0 1128 0 834 0 c 2,11,-1
 500 0 l 2,12,13
 364 0 364 0 265 98 c 128,-1,14
 166 196 166 196 166 334 c 2,15,-1
 166 834 l 2,16,17
 166 970 166 970 265 1068 c 128,-1,18
 364 1166 364 1166 500 1166 c 2,19,-1
 834 1166 l 2,20,21
 970 1166 970 1166 1068 1068 c 128,-1,22
 1166 970 1166 970 1166 834 c 2,23,-1
 1166 500 l 1,0,-1
500 666 m 1,24,-1
 834 666 l 1,25,-1
 834 834 l 2,26,27
 834 902 834 902 785 951 c 128,-1,28
 736 1000 736 1000 666 1000 c 0,29,30
 598 1000 598 1000 549 951 c 128,-1,31
 500 902 500 902 500 834 c 2,32,-1
 500 666 l 1,24,-1
588 1266 m 1,33,-1
 588 1472 l 1,34,-1
 786 1472 l 1,35,-1
 786 1266 l 1,36,-1
 588 1266 l 1,33,-1
EndSplineSet
Validated: 1
Ligature2: "'ccmp' Glyph Composition/Decomposition in Latin lookup 1 subtable" e dotaccentcmb
EndChar

StartChar: Eogonek
Encoding: 280 280 242
Width: 1166
GlyphClass: 1
Flags: W
LayerCount: 2
Fore
SplineSet
166 0 m 1,0,-1
 166 1500 l 1,1,-1
 1000 1500 l 1,2,-1
 1000 1334 l 1,3,-1
 500 1334 l 1,4,-1
 500 834 l 1,5,-1
 834 834 l 1,6,-1
 834 666 l 1,7,-1
 500 666 l 1,8,-1
 500 166 l 1,9,-1
 1000 166 l 1,10,-1
 1000 0 l 1,11,-1
 166 0 l 1,0,-1
744 -166 m 1,12,-1
 660 -166 l 2,13,14
 620 -166 620 -166 599 -187 c 128,-1,15
 578 -208 578 -208 578 -250 c 256,16,17
 578 -292 578 -292 598 -313 c 128,-1,18
 618 -334 618 -334 658 -334 c 0,19,20
 670 -334 670 -334 692 -328 c 1,21,-1
 756 -482 l 1,22,23
 688 -500 688 -500 650 -500 c 0,24,25
 566 -500 566 -500 488 -429 c 128,-1,26
 410 -358 410 -358 410 -250 c 0,27,28
 410 -148 410 -148 484 -74 c 128,-1,29
 558 0 558 0 660 0 c 2,30,-1
 744 0 l 1,31,-1
 744 -166 l 1,12,-1
EndSplineSet
Validated: 5
Ligature2: "'ccmp' Glyph Composition/Decomposition in Latin lookup 1 subtable" E ogonekcmb
EndChar

StartChar: eogonek
Encoding: 281 281 243
Width: 1334
GlyphClass: 1
Flags: W
LayerCount: 2
Fore
SplineSet
1166 500 m 1,0,-1
 500 500 l 1,1,-1
 500 334 l 2,2,3
 500 266 500 266 549 216 c 128,-1,4
 598 166 598 166 666 166 c 2,5,-1
 834 166 l 2,6,7
 1000 166 1000 166 1000 334 c 1,8,-1
 1166 334 l 1,9,10
 1128 0 1128 0 834 0 c 2,11,-1
 500 0 l 2,12,13
 364 0 364 0 265 98 c 128,-1,14
 166 196 166 196 166 334 c 2,15,-1
 166 834 l 2,16,17
 166 970 166 970 265 1068 c 128,-1,18
 364 1166 364 1166 500 1166 c 2,19,-1
 834 1166 l 2,20,21
 970 1166 970 1166 1068 1068 c 128,-1,22
 1166 970 1166 970 1166 834 c 2,23,-1
 1166 500 l 1,0,-1
500 666 m 1,24,-1
 834 666 l 1,25,-1
 834 834 l 2,26,27
 834 902 834 902 785 951 c 128,-1,28
 736 1000 736 1000 666 1000 c 0,29,30
 598 1000 598 1000 549 951 c 128,-1,31
 500 902 500 902 500 834 c 2,32,-1
 500 666 l 1,24,-1
804 -160 m 1,33,-1
 720 -160 l 2,34,35
 678 -160 678 -160 657 -180 c 128,-1,36
 636 -200 636 -200 636 -242 c 256,37,38
 636 -284 636 -284 656 -305 c 128,-1,39
 676 -326 676 -326 716 -326 c 0,40,41
 730 -326 730 -326 752 -320 c 1,42,-1
 816 -474 l 1,43,44
 748 -492 748 -492 710 -492 c 0,45,46
 626 -492 626 -492 548 -421 c 128,-1,47
 470 -350 470 -350 470 -242 c 0,48,49
 470 -140 470 -140 544 -66 c 128,-1,50
 618 8 618 8 720 8 c 2,51,-1
 804 8 l 1,52,-1
 804 -160 l 1,33,-1
EndSplineSet
Validated: 5
Ligature2: "'ccmp' Glyph Composition/Decomposition in Latin lookup 1 subtable" e ogonekcmb
EndChar

StartChar: Ecaron
Encoding: 282 282 244
Width: 1166
GlyphClass: 1
Flags: W
LayerCount: 2
Fore
SplineSet
166 0 m 1,0,-1
 166 1500 l 1,1,-1
 1000 1500 l 1,2,-1
 1000 1334 l 1,3,-1
 500 1334 l 1,4,-1
 500 834 l 1,5,-1
 834 834 l 1,6,-1
 834 666 l 1,7,-1
 500 666 l 1,8,-1
 500 166 l 1,9,-1
 1000 166 l 1,10,-1
 1000 0 l 1,11,-1
 166 0 l 1,0,-1
916 1932 m 1,12,-1
 666 1600 l 1,13,-1
 500 1600 l 1,14,-1
 250 1934 l 1,15,-1
 416 1934 l 1,16,-1
 584 1766 l 1,17,-1
 750 1932 l 1,18,-1
 916 1932 l 1,12,-1
EndSplineSet
Validated: 1
Ligature2: "'ccmp' Glyph Composition/Decomposition in Latin lookup 1 subtable" E caroncmb
EndChar

StartChar: ecaron
Encoding: 283 283 245
Width: 1334
GlyphClass: 1
Flags: W
LayerCount: 2
Fore
SplineSet
1166 500 m 1,0,-1
 500 500 l 1,1,-1
 500 334 l 2,2,3
 500 266 500 266 549 216 c 128,-1,4
 598 166 598 166 666 166 c 2,5,-1
 834 166 l 2,6,7
 1000 166 1000 166 1000 334 c 1,8,-1
 1166 334 l 1,9,10
 1128 0 1128 0 834 0 c 2,11,-1
 500 0 l 2,12,13
 364 0 364 0 265 98 c 128,-1,14
 166 196 166 196 166 334 c 2,15,-1
 166 834 l 2,16,17
 166 970 166 970 265 1068 c 128,-1,18
 364 1166 364 1166 500 1166 c 2,19,-1
 834 1166 l 2,20,21
 970 1166 970 1166 1068 1068 c 128,-1,22
 1166 970 1166 970 1166 834 c 2,23,-1
 1166 500 l 1,0,-1
500 666 m 1,24,-1
 834 666 l 1,25,-1
 834 834 l 2,26,27
 834 902 834 902 785 951 c 128,-1,28
 736 1000 736 1000 666 1000 c 0,29,30
 598 1000 598 1000 549 951 c 128,-1,31
 500 902 500 902 500 834 c 2,32,-1
 500 666 l 1,24,-1
1000 1600 m 1,33,-1
 750 1266 l 1,34,-1
 584 1266 l 1,35,-1
 334 1600 l 1,36,-1
 500 1600 l 1,37,-1
 666 1434 l 1,38,-1
 834 1600 l 1,39,-1
 1000 1600 l 1,33,-1
EndSplineSet
Validated: 1
Ligature2: "'ccmp' Glyph Composition/Decomposition in Latin lookup 1 subtable" e caroncmb
EndChar

StartChar: Gcircumflex
Encoding: 284 284 246
Width: 1334
GlyphClass: 1
Flags: W
LayerCount: 2
Fore
SplineSet
666 834 m 1,0,-1
 1166 834 l 1,1,-1
 1166 334 l 2,2,3
 1166 166 1166 166 1060 83 c 128,-1,4
 954 0 954 0 834 0 c 2,5,-1
 500 0 l 2,6,7
 364 0 364 0 265 98 c 128,-1,8
 166 196 166 196 166 334 c 2,9,-1
 166 1166 l 2,10,11
 166 1302 166 1302 263 1401 c 128,-1,12
 360 1500 360 1500 500 1500 c 2,13,-1
 834 1500 l 2,14,15
 1148 1500 1148 1500 1166 1166 c 1,16,-1
 1000 1166 l 1,17,18
 980 1334 980 1334 834 1334 c 2,19,-1
 666 1334 l 2,20,21
 598 1334 598 1334 549 1285 c 128,-1,22
 500 1236 500 1236 500 1166 c 2,23,-1
 500 334 l 2,24,25
 500 264 500 264 549 215 c 128,-1,26
 598 166 598 166 666 166 c 0,27,28
 826 174 826 174 834 334 c 1,29,-1
 834 666 l 1,30,-1
 666 666 l 1,31,-1
 666 834 l 1,0,-1
334 1600 m 1,32,-1
 584 1934 l 1,33,-1
 750 1934 l 1,34,-1
 1000 1600 l 1,35,-1
 834 1600 l 1,36,-1
 666 1766 l 1,37,-1
 500 1600 l 1,38,-1
 334 1600 l 1,32,-1
EndSplineSet
Validated: 1
Ligature2: "'ccmp' Glyph Composition/Decomposition in Latin lookup 1 subtable" G circumflexcmb
EndChar

StartChar: gcircumflex
Encoding: 285 285 247
Width: 1334
GlyphClass: 1
Flags: W
LayerCount: 2
Fore
SplineSet
1166 1166 m 1,0,-1
 1166 -166 l 2,1,2
 1166 -302 1166 -302 1068 -401 c 128,-1,3
 970 -500 970 -500 834 -500 c 2,4,-1
 500 -500 l 2,5,6
 206 -500 206 -500 166 -166 c 1,7,-1
 334 -166 l 1,8,9
 346 -334 346 -334 500 -334 c 2,10,-1
 666 -334 l 2,11,12
 736 -334 736 -334 785 -285 c 128,-1,13
 834 -236 834 -236 834 -166 c 2,14,-1
 834 166 l 1,15,16
 814 0 814 0 666 0 c 2,17,-1
 500 0 l 2,18,19
 364 0 364 0 265 98 c 128,-1,20
 166 196 166 196 166 334 c 2,21,-1
 166 834 l 2,22,23
 166 970 166 970 265 1068 c 128,-1,24
 364 1166 364 1166 500 1166 c 2,25,-1
 1166 1166 l 1,0,-1
834 1000 m 1,26,-1
 666 1000 l 2,27,28
 598 1000 598 1000 549 951 c 128,-1,29
 500 902 500 902 500 834 c 2,30,-1
 500 334 l 2,31,32
 500 266 500 266 549 216 c 128,-1,33
 598 166 598 166 666 166 c 0,34,35
 736 166 736 166 785 216 c 128,-1,36
 834 266 834 266 834 334 c 2,37,-1
 834 1000 l 1,26,-1
334 1266 m 1,38,-1
 584 1600 l 1,39,-1
 750 1600 l 1,40,-1
 1000 1266 l 1,41,-1
 834 1266 l 1,42,-1
 666 1434 l 1,43,-1
 500 1266 l 1,44,-1
 334 1266 l 1,38,-1
EndSplineSet
Validated: 1
Ligature2: "'ccmp' Glyph Composition/Decomposition in Latin lookup 1 subtable" g circumflexcmb
EndChar

StartChar: Gdotaccent
Encoding: 288 288 250
Width: 1334
GlyphClass: 1
Flags: W
LayerCount: 2
Fore
SplineSet
666 834 m 1,0,-1
 1166 834 l 1,1,-1
 1166 334 l 2,2,3
 1166 166 1166 166 1060 83 c 128,-1,4
 954 0 954 0 834 0 c 2,5,-1
 500 0 l 2,6,7
 364 0 364 0 265 98 c 128,-1,8
 166 196 166 196 166 334 c 2,9,-1
 166 1166 l 2,10,11
 166 1302 166 1302 263 1401 c 128,-1,12
 360 1500 360 1500 500 1500 c 2,13,-1
 834 1500 l 2,14,15
 1148 1500 1148 1500 1166 1166 c 1,16,-1
 1000 1166 l 1,17,18
 980 1334 980 1334 834 1334 c 2,19,-1
 666 1334 l 2,20,21
 598 1334 598 1334 549 1285 c 128,-1,22
 500 1236 500 1236 500 1166 c 2,23,-1
 500 334 l 2,24,25
 500 264 500 264 549 215 c 128,-1,26
 598 166 598 166 666 166 c 0,27,28
 826 174 826 174 834 334 c 1,29,-1
 834 666 l 1,30,-1
 666 666 l 1,31,-1
 666 834 l 1,0,-1
588 1600 m 1,32,-1
 588 1806 l 1,33,-1
 786 1806 l 1,34,-1
 786 1600 l 1,35,-1
 588 1600 l 1,32,-1
EndSplineSet
Validated: 1
Ligature2: "'ccmp' Glyph Composition/Decomposition in Latin lookup 1 subtable" G dotaccentcmb
EndChar

StartChar: gdotaccent
Encoding: 289 289 251
Width: 1334
GlyphClass: 1
Flags: W
LayerCount: 2
Fore
SplineSet
1166 1166 m 1,0,-1
 1166 -166 l 2,1,2
 1166 -302 1166 -302 1068 -401 c 128,-1,3
 970 -500 970 -500 834 -500 c 2,4,-1
 500 -500 l 2,5,6
 206 -500 206 -500 166 -166 c 1,7,-1
 334 -166 l 1,8,9
 346 -334 346 -334 500 -334 c 2,10,-1
 666 -334 l 2,11,12
 736 -334 736 -334 785 -285 c 128,-1,13
 834 -236 834 -236 834 -166 c 2,14,-1
 834 166 l 1,15,16
 814 0 814 0 666 0 c 2,17,-1
 500 0 l 2,18,19
 364 0 364 0 265 98 c 128,-1,20
 166 196 166 196 166 334 c 2,21,-1
 166 834 l 2,22,23
 166 970 166 970 265 1068 c 128,-1,24
 364 1166 364 1166 500 1166 c 2,25,-1
 1166 1166 l 1,0,-1
834 1000 m 1,26,-1
 666 1000 l 2,27,28
 598 1000 598 1000 549 951 c 128,-1,29
 500 902 500 902 500 834 c 2,30,-1
 500 334 l 2,31,32
 500 266 500 266 549 216 c 128,-1,33
 598 166 598 166 666 166 c 0,34,35
 736 166 736 166 785 216 c 128,-1,36
 834 266 834 266 834 334 c 2,37,-1
 834 1000 l 1,26,-1
588 1266 m 1,38,-1
 588 1472 l 1,39,-1
 786 1472 l 1,40,-1
 786 1266 l 1,41,-1
 588 1266 l 1,38,-1
EndSplineSet
Validated: 1
Ligature2: "'ccmp' Glyph Composition/Decomposition in Latin lookup 1 subtable" g dotaccentcmb
EndChar

StartChar: Gcommaaccent
Encoding: 290 290 252
Width: 1334
GlyphClass: 1
Flags: W
LayerCount: 2
Fore
SplineSet
666 834 m 1,0,-1
 1166 834 l 1,1,-1
 1166 334 l 2,2,3
 1166 166 1166 166 1060 83 c 128,-1,4
 954 0 954 0 834 0 c 2,5,-1
 500 0 l 2,6,7
 364 0 364 0 265 98 c 128,-1,8
 166 196 166 196 166 334 c 2,9,-1
 166 1166 l 2,10,11
 166 1302 166 1302 263 1401 c 128,-1,12
 360 1500 360 1500 500 1500 c 2,13,-1
 834 1500 l 2,14,15
 1148 1500 1148 1500 1166 1166 c 1,16,-1
 1000 1166 l 1,17,18
 980 1334 980 1334 834 1334 c 2,19,-1
 666 1334 l 2,20,21
 598 1334 598 1334 549 1285 c 128,-1,22
 500 1236 500 1236 500 1166 c 2,23,-1
 500 334 l 2,24,25
 500 264 500 264 549 215 c 128,-1,26
 598 166 598 166 666 166 c 0,27,28
 826 174 826 174 834 334 c 1,29,-1
 834 666 l 1,30,-1
 666 666 l 1,31,-1
 666 834 l 1,0,-1
826 -232 m 1,32,-1
 1024 -232 l 1,33,-1
 1024 -432 l 2,34,35
 1024 -610 1024 -610 826 -632 c 1,36,-1
 826 -534 l 1,37,38
 922 -530 922 -530 924 -432 c 1,39,-1
 826 -432 l 1,40,-1
 826 -232 l 1,32,-1
EndSplineSet
Validated: 1
Ligature2: "'ccmp' Glyph Composition/Decomposition in Latin lookup 1 subtable" G cedillacmb
EndChar

StartChar: gcommaaccent
Encoding: 291 291 253
Width: 1334
GlyphClass: 1
Flags: W
LayerCount: 2
Fore
SplineSet
1166 1166 m 1,0,-1
 1166 -166 l 2,1,2
 1166 -302 1166 -302 1068 -401 c 128,-1,3
 970 -500 970 -500 834 -500 c 2,4,-1
 500 -500 l 2,5,6
 206 -500 206 -500 166 -166 c 1,7,-1
 334 -166 l 1,8,9
 346 -334 346 -334 500 -334 c 2,10,-1
 666 -334 l 2,11,12
 736 -334 736 -334 785 -285 c 128,-1,13
 834 -236 834 -236 834 -166 c 2,14,-1
 834 166 l 1,15,16
 814 0 814 0 666 0 c 2,17,-1
 500 0 l 2,18,19
 364 0 364 0 265 98 c 128,-1,20
 166 196 166 196 166 334 c 2,21,-1
 166 834 l 2,22,23
 166 970 166 970 265 1068 c 128,-1,24
 364 1166 364 1166 500 1166 c 2,25,-1
 1166 1166 l 1,0,-1
834 1000 m 1,26,-1
 666 1000 l 2,27,28
 598 1000 598 1000 549 951 c 128,-1,29
 500 902 500 902 500 834 c 2,30,-1
 500 334 l 2,31,32
 500 266 500 266 549 216 c 128,-1,33
 598 166 598 166 666 166 c 0,34,35
 736 166 736 166 785 216 c 128,-1,36
 834 266 834 266 834 334 c 2,37,-1
 834 1000 l 1,26,-1
834 1340 m 1,38,-1
 500 1340 l 1,39,-1
 500 1674 l 2,40,41
 500 1970 500 1970 834 2008 c 1,42,-1
 834 1840 l 1,43,44
 672 1834 672 1834 666 1674 c 1,45,-1
 834 1674 l 1,46,-1
 834 1340 l 1,38,-1
EndSplineSet
Validated: 1
Ligature2: "'ccmp' Glyph Composition/Decomposition in Latin lookup 1 subtable" g cedillacmb
EndChar

StartChar: Hcircumflex
Encoding: 292 292 254
Width: 1334
GlyphClass: 1
Flags: W
LayerCount: 2
Fore
SplineSet
166 0 m 1,0,-1
 166 1500 l 1,1,-1
 500 1500 l 1,2,-1
 500 834 l 1,3,-1
 834 834 l 1,4,-1
 834 1500 l 1,5,-1
 1166 1500 l 1,6,-1
 1166 0 l 1,7,-1
 834 0 l 1,8,-1
 834 666 l 1,9,-1
 500 666 l 1,10,-1
 500 0 l 1,11,-1
 166 0 l 1,0,-1
334 1600 m 1,12,-1
 584 1934 l 1,13,-1
 750 1934 l 1,14,-1
 1000 1600 l 1,15,-1
 834 1600 l 1,16,-1
 666 1766 l 1,17,-1
 500 1600 l 1,18,-1
 334 1600 l 1,12,-1
EndSplineSet
Validated: 1
Ligature2: "'ccmp' Glyph Composition/Decomposition in Latin lookup 1 subtable" H circumflexcmb
EndChar

StartChar: hcircumflex
Encoding: 293 293 255
Width: 1334
GlyphClass: 1
Flags: W
LayerCount: 2
Fore
SplineSet
166 0 m 1,0,-1
 166 1500 l 1,1,-1
 500 1500 l 1,2,-1
 500 1000 l 1,3,4
 510 1084 510 1084 552 1125 c 128,-1,5
 594 1166 594 1166 666 1166 c 2,6,-1
 834 1166 l 2,7,8
 970 1166 970 1166 1068 1068 c 128,-1,9
 1166 970 1166 970 1166 834 c 2,10,-1
 1166 0 l 1,11,-1
 834 0 l 1,12,-1
 834 834 l 2,13,14
 834 902 834 902 785 951 c 128,-1,15
 736 1000 736 1000 666 1000 c 0,16,17
 598 1000 598 1000 549 951 c 128,-1,18
 500 902 500 902 500 834 c 2,19,-1
 500 0 l 1,20,-1
 166 0 l 1,0,-1
250 1600 m 1,21,-1
 500 1934 l 1,22,-1
 666 1934 l 1,23,-1
 916 1600 l 1,24,-1
 750 1600 l 1,25,-1
 584 1766 l 1,26,-1
 416 1600 l 1,27,-1
 250 1600 l 1,21,-1
EndSplineSet
Validated: 1
Ligature2: "'ccmp' Glyph Composition/Decomposition in Latin lookup 1 subtable" h circumflexcmb
EndChar

StartChar: Hbar
Encoding: 294 294 256
Width: 1334
GlyphClass: 1
Flags: W
LayerCount: 2
Fore
SplineSet
166 0 m 1,0,-1
 166 1500 l 1,1,-1
 500 1500 l 1,2,-1
 500 834 l 1,3,-1
 834 834 l 1,4,-1
 834 1500 l 1,5,-1
 1166 1500 l 1,6,-1
 1166 0 l 1,7,-1
 834 0 l 1,8,-1
 834 666 l 1,9,-1
 500 666 l 1,10,-1
 500 0 l 1,11,-1
 166 0 l 1,0,-1
334 1000 m 1,12,-1
 334 1166 l 1,13,-1
 1000 1166 l 1,14,-1
 1000 1000 l 1,15,-1
 334 1000 l 1,12,-1
EndSplineSet
Validated: 5
EndChar

StartChar: hbar
Encoding: 295 295 257
Width: 1334
GlyphClass: 1
Flags: W
LayerCount: 2
Fore
SplineSet
166 0 m 1,0,-1
 166 1500 l 1,1,-1
 500 1500 l 1,2,-1
 500 1000 l 1,3,4
 510 1084 510 1084 552 1125 c 128,-1,5
 594 1166 594 1166 666 1166 c 2,6,-1
 834 1166 l 2,7,8
 970 1166 970 1166 1068 1068 c 128,-1,9
 1166 970 1166 970 1166 834 c 2,10,-1
 1166 0 l 1,11,-1
 834 0 l 1,12,-1
 834 834 l 2,13,14
 834 902 834 902 785 951 c 128,-1,15
 736 1000 736 1000 666 1000 c 0,16,17
 598 1000 598 1000 549 951 c 128,-1,18
 500 902 500 902 500 834 c 2,19,-1
 500 0 l 1,20,-1
 166 0 l 1,0,-1
80 1214 m 1,21,-1
 80 1382 l 1,22,-1
 746 1382 l 1,23,-1
 746 1214 l 1,24,-1
 80 1214 l 1,21,-1
EndSplineSet
Validated: 5
EndChar

StartChar: Itilde
Encoding: 296 296 258
Width: 1000
GlyphClass: 1
Flags: W
LayerCount: 2
Fore
SplineSet
334 0 m 1,0,-1
 334 1500 l 1,1,-1
 666 1500 l 1,2,-1
 666 0 l 1,3,-1
 334 0 l 1,0,-1
166 1600 m 1,4,-1
 0 1600 l 1,5,6
 38 1934 38 1934 332 1934 c 0,7,8
 428 1934 428 1934 540 1836 c 2,9,-1
 562 1816 l 2,10,11
 618 1766 618 1766 666 1766 c 0,12,13
 812 1766 812 1766 832 1934 c 1,14,-1
 1000 1934 l 1,15,16
 960 1600 960 1600 666 1600 c 0,17,18
 570 1600 570 1600 458 1698 c 2,19,-1
 436 1718 l 2,20,21
 380 1766 380 1766 332 1766 c 0,22,23
 186 1766 186 1766 166 1600 c 1,4,-1
EndSplineSet
Validated: 1
Ligature2: "'ccmp' Glyph Composition/Decomposition in Latin lookup 1 subtable" I tildecmb
EndChar

StartChar: itilde
Encoding: 297 297 259
Width: 666
GlyphClass: 1
Flags: W
LayerCount: 2
Fore
SplineSet
166 0 m 1,0,-1
 166 1166 l 1,1,-1
 500 1166 l 1,2,-1
 500 0 l 1,3,-1
 166 0 l 1,0,-1
0 1266 m 1,4,-1
 -166 1266 l 1,5,6
 -128 1600 -128 1600 166 1600 c 0,7,8
 262 1600 262 1600 374 1502 c 2,9,-1
 396 1482 l 2,10,11
 452 1434 452 1434 500 1434 c 0,12,13
 646 1434 646 1434 666 1600 c 1,14,-1
 834 1600 l 1,15,16
 794 1266 794 1266 500 1266 c 0,17,18
 404 1266 404 1266 292 1364 c 2,19,-1
 270 1384 l 2,20,21
 214 1434 214 1434 166 1434 c 0,22,23
 20 1434 20 1434 0 1266 c 1,4,-1
EndSplineSet
Validated: 1
Ligature2: "'ccmp' Glyph Composition/Decomposition in Latin lookup 1 subtable" i tildecmb
EndChar

StartChar: Imacron
Encoding: 298 298 260
Width: 1000
GlyphClass: 1
Flags: W
LayerCount: 2
Fore
SplineSet
334 0 m 1,0,-1
 334 1500 l 1,1,-1
 666 1500 l 1,2,-1
 666 0 l 1,3,-1
 334 0 l 1,0,-1
166 1600 m 1,4,-1
 166 1766 l 1,5,-1
 832 1766 l 1,6,-1
 832 1600 l 1,7,-1
 166 1600 l 1,4,-1
EndSplineSet
Validated: 1
Ligature2: "'ccmp' Glyph Composition/Decomposition in Latin lookup 1 subtable" I macroncmb
EndChar

StartChar: imacron
Encoding: 299 299 261
Width: 666
GlyphClass: 1
Flags: W
LayerCount: 2
Fore
SplineSet
166 0 m 1,0,-1
 166 1166 l 1,1,-1
 500 1166 l 1,2,-1
 500 0 l 1,3,-1
 166 0 l 1,0,-1
0 1266 m 1,4,-1
 0 1434 l 1,5,-1
 666 1434 l 1,6,-1
 666 1266 l 1,7,-1
 0 1266 l 1,4,-1
EndSplineSet
Validated: 1
Ligature2: "'ccmp' Glyph Composition/Decomposition in Latin lookup 1 subtable" i macroncmb
EndChar

StartChar: Iogonek
Encoding: 302 302 264
Width: 1000
GlyphClass: 1
Flags: W
LayerCount: 2
Fore
SplineSet
334 0 m 1,0,-1
 334 1500 l 1,1,-1
 666 1500 l 1,2,-1
 666 0 l 1,3,-1
 334 0 l 1,0,-1
660 -166 m 1,4,-1
 576 -166 l 2,5,6
 536 -166 536 -166 515 -187 c 128,-1,7
 494 -208 494 -208 494 -250 c 256,8,9
 494 -292 494 -292 514 -313 c 128,-1,10
 534 -334 534 -334 574 -334 c 0,11,12
 586 -334 586 -334 608 -328 c 1,13,-1
 672 -482 l 1,14,15
 604 -500 604 -500 566 -500 c 0,16,17
 482 -500 482 -500 404 -429 c 128,-1,18
 326 -358 326 -358 326 -250 c 0,19,20
 326 -148 326 -148 400 -74 c 128,-1,21
 474 0 474 0 576 0 c 2,22,-1
 660 0 l 1,23,-1
 660 -166 l 1,4,-1
EndSplineSet
Validated: 5
Ligature2: "'ccmp' Glyph Composition/Decomposition in Latin lookup 1 subtable" I ogonekcmb
EndChar

StartChar: iogonek
Encoding: 303 303 265
Width: 666
GlyphClass: 1
Flags: W
LayerCount: 2
Fore
SplineSet
166 1334 m 1,0,-1
 166 1500 l 1,1,-1
 500 1500 l 1,2,-1
 500 1334 l 1,3,-1
 166 1334 l 1,0,-1
166 0 m 1,4,-1
 166 1166 l 1,5,-1
 500 1166 l 1,6,-1
 500 0 l 1,7,-1
 166 0 l 1,4,-1
494 -166 m 1,8,-1
 410 -166 l 2,9,10
 370 -166 370 -166 349 -187 c 128,-1,11
 328 -208 328 -208 328 -250 c 256,12,13
 328 -292 328 -292 348 -313 c 128,-1,14
 368 -334 368 -334 408 -334 c 0,15,16
 420 -334 420 -334 442 -328 c 1,17,-1
 506 -482 l 1,18,19
 438 -500 438 -500 400 -500 c 0,20,21
 316 -500 316 -500 238 -429 c 128,-1,22
 160 -358 160 -358 160 -250 c 0,23,24
 160 -148 160 -148 234 -74 c 128,-1,25
 308 0 308 0 410 0 c 2,26,-1
 494 0 l 1,27,-1
 494 -166 l 1,8,-1
EndSplineSet
Validated: 5
Ligature2: "'ccmp' Glyph Composition/Decomposition in Latin lookup 1 subtable" i ogonekcmb
EndChar

StartChar: Idotaccent
Encoding: 304 304 266
Width: 683
GlyphClass: 1
Flags: W
LayerCount: 2
Fore
SplineSet
171 1707 m 1,0,-1
 171 1877 l 1,1,-1
 512 1877 l 1,2,-1
 512 1707 l 1,3,-1
 171 1707 l 1,0,-1
171 0 m 1,4,-1
 171 1536 l 1,5,-1
 512 1536 l 1,6,-1
 512 0 l 1,7,-1
 171 0 l 1,4,-1
EndSplineSet
Validated: 1
EndChar

StartChar: dotlessi
Encoding: 305 305 267
Width: 683
GlyphClass: 1
Flags: W
LayerCount: 2
Fore
SplineSet
171 0 m 1,0,-1
 171 1195 l 1,1,-1
 512 1195 l 1,2,-1
 512 0 l 1,3,-1
 171 0 l 1,0,-1
EndSplineSet
Validated: 1
EndChar

StartChar: IJ
Encoding: 306 306 268
Width: 2166
GlyphClass: 1
Flags: W
LayerCount: 2
Fore
SplineSet
334 0 m 1,0,-1
 334 1500 l 1,1,-1
 666 1500 l 1,2,-1
 666 0 l 1,3,-1
 334 0 l 1,0,-1
2000 1500 m 1,4,-1
 2000 334 l 2,5,6
 2000 166 2000 166 1917 83 c 128,-1,7
 1834 0 1834 0 1666 0 c 2,8,-1
 1334 0 l 2,9,10
 1166 0 1166 0 1083 83 c 128,-1,11
 1000 166 1000 166 1000 334 c 2,12,-1
 1000 666 l 1,13,-1
 1334 666 l 1,14,-1
 1334 334 l 2,15,16
 1334 264 1334 264 1383 215 c 128,-1,17
 1432 166 1432 166 1500 166 c 256,18,19
 1568 166 1568 166 1617 215 c 128,-1,20
 1666 264 1666 264 1666 334 c 2,21,-1
 1666 1500 l 1,22,-1
 2000 1500 l 1,4,-1
EndSplineSet
Validated: 1
EndChar

StartChar: ij
Encoding: 307 307 269
Width: 1666
GlyphClass: 1
Flags: W
LayerCount: 2
Fore
SplineSet
166 1334 m 1,0,-1
 166 1500 l 1,1,-1
 500 1500 l 1,2,-1
 500 1334 l 1,3,-1
 166 1334 l 1,0,-1
166 0 m 1,4,-1
 166 1166 l 1,5,-1
 500 1166 l 1,6,-1
 500 0 l 1,7,-1
 166 0 l 1,4,-1
1166 1334 m 1,8,-1
 1166 1500 l 1,9,-1
 1500 1500 l 1,10,-1
 1500 1334 l 1,11,-1
 1166 1334 l 1,8,-1
1166 1166 m 1,12,-1
 1500 1166 l 1,13,-1
 1500 0 l 2,14,15
 1500 -136 1500 -136 1402 -235 c 128,-1,16
 1304 -334 1304 -334 1166 -334 c 2,17,-1
 1000 -334 l 2,18,19
 706 -334 706 -334 666 0 c 1,20,-1
 834 0 l 1,21,22
 848 -166 848 -166 1000 -166 c 0,23,24
 1068 -166 1068 -166 1117 -117 c 128,-1,25
 1166 -68 1166 -68 1166 0 c 2,26,-1
 1166 1166 l 1,12,-1
EndSplineSet
Validated: 1
EndChar

StartChar: Jcircumflex
Encoding: 308 308 270
Width: 1166
GlyphClass: 1
Flags: W
LayerCount: 2
Fore
SplineSet
1000 1500 m 1,0,-1
 1000 334 l 2,1,2
 1000 166 1000 166 917 83 c 128,-1,3
 834 0 834 0 666 0 c 2,4,-1
 334 0 l 2,5,6
 166 0 166 0 83 83 c 128,-1,7
 0 166 0 166 0 334 c 2,8,-1
 0 666 l 1,9,-1
 334 666 l 1,10,-1
 334 334 l 2,11,12
 334 264 334 264 383 215 c 128,-1,13
 432 166 432 166 500 166 c 256,14,15
 568 166 568 166 617 215 c 128,-1,16
 666 264 666 264 666 334 c 2,17,-1
 666 1500 l 1,18,-1
 1000 1500 l 1,0,-1
462 1600 m 1,19,-1
 712 1934 l 1,20,-1
 878 1934 l 1,21,-1
 1128 1600 l 1,22,-1
 962 1600 l 1,23,-1
 796 1766 l 1,24,-1
 628 1600 l 1,25,-1
 462 1600 l 1,19,-1
EndSplineSet
Validated: 1
Ligature2: "'ccmp' Glyph Composition/Decomposition in Latin lookup 1 subtable" J circumflexcmb
EndChar

StartChar: jcircumflex
Encoding: 309 309 271
Width: 1000
GlyphClass: 1
Flags: W
LayerCount: 2
Fore
SplineSet
500 1334 m 1,0,-1
 500 1500 l 1,1,-1
 834 1500 l 1,2,-1
 834 1334 l 1,3,-1
 500 1334 l 1,0,-1
500 1166 m 1,4,-1
 834 1166 l 1,5,-1
 834 0 l 2,6,7
 834 -136 834 -136 735 -235 c 128,-1,8
 636 -334 636 -334 500 -334 c 2,9,-1
 334 -334 l 2,10,11
 38 -334 38 -334 0 0 c 1,12,-1
 166 0 l 1,13,14
 182 -166 182 -166 334 -166 c 0,15,16
 402 -166 402 -166 451 -117 c 128,-1,17
 500 -68 500 -68 500 0 c 2,18,-1
 500 1166 l 1,4,-1
326 1236 m 1,19,-1
 576 1570 l 1,20,-1
 742 1570 l 1,21,-1
 992 1236 l 1,22,-1
 826 1236 l 1,23,-1
 660 1402 l 1,24,-1
 492 1236 l 1,25,-1
 326 1236 l 1,19,-1
EndSplineSet
Validated: 5
Ligature2: "'ccmp' Glyph Composition/Decomposition in Latin lookup 1 subtable" j circumflexcmb
EndChar

StartChar: Kcommaaccent
Encoding: 310 310 272
Width: 1500
GlyphClass: 1
Flags: W
LayerCount: 2
Fore
SplineSet
166 0 m 1,0,-1
 166 1500 l 1,1,-1
 500 1500 l 1,2,-1
 500 888 l 1,3,-1
 1040 1500 l 1,4,-1
 1334 1500 l 1,5,-1
 666 750 l 1,6,-1
 1334 0 l 1,7,-1
 1000 0 l 1,8,-1
 500 584 l 1,9,-1
 500 0 l 1,10,-1
 166 0 l 1,0,-1
810 -232 m 1,11,-1
 1010 -232 l 1,12,-1
 1010 -432 l 2,13,14
 1010 -610 1010 -610 810 -632 c 1,15,-1
 810 -534 l 1,16,17
 908 -530 908 -530 910 -432 c 1,18,-1
 810 -432 l 1,19,-1
 810 -232 l 1,11,-1
EndSplineSet
Validated: 1
Ligature2: "'ccmp' Glyph Composition/Decomposition in Latin lookup 1 subtable" K cedillacmb
EndChar

StartChar: kcommaaccent
Encoding: 311 311 273
Width: 1334
GlyphClass: 1
Flags: W
LayerCount: 2
Fore
SplineSet
166 0 m 1,0,-1
 166 1500 l 1,1,-1
 500 1500 l 1,2,-1
 500 750 l 1,3,-1
 1000 1166 l 1,4,-1
 1334 1166 l 1,5,-1
 636 584 l 1,6,-1
 1334 0 l 1,7,-1
 1000 0 l 1,8,-1
 500 416 l 1,9,-1
 500 0 l 1,10,-1
 166 0 l 1,0,-1
810 -232 m 1,11,-1
 1010 -232 l 1,12,-1
 1010 -432 l 2,13,14
 1010 -610 1010 -610 810 -632 c 1,15,-1
 810 -534 l 1,16,17
 908 -530 908 -530 910 -432 c 1,18,-1
 810 -432 l 1,19,-1
 810 -232 l 1,11,-1
EndSplineSet
Validated: 1
Ligature2: "'ccmp' Glyph Composition/Decomposition in Latin lookup 1 subtable" k cedillacmb
EndChar

StartChar: kgreenlandic
Encoding: 312 312 274
Width: 1332
GlyphClass: 1
Flags: W
LayerCount: 2
Fore
SplineSet
168 0 m 1,0,-1
 168 1168 l 1,1,-1
 500 1168 l 1,2,-1
 500 750 l 1,3,-1
 1000 1168 l 1,4,-1
 1334 1168 l 1,5,-1
 636 582 l 1,6,-1
 1334 0 l 1,7,-1
 1000 0 l 1,8,-1
 500 418 l 1,9,-1
 500 0 l 1,10,-1
 168 0 l 1,0,-1
EndSplineSet
Validated: 1
EndChar

StartChar: Lacute
Encoding: 313 313 275
Width: 1168
GlyphClass: 1
Flags: W
LayerCount: 2
Fore
SplineSet
168 0 m 1,0,-1
 168 1500 l 1,1,-1
 500 1500 l 1,2,-1
 500 168 l 1,3,-1
 1000 168 l 1,4,-1
 1000 0 l 1,5,-1
 168 0 l 1,0,-1
168 1600 m 1,6,-1
 334 1934 l 1,7,-1
 500 1934 l 1,8,-1
 334 1600 l 1,9,-1
 168 1600 l 1,6,-1
EndSplineSet
Validated: 1
Ligature2: "'ccmp' Glyph Composition/Decomposition in Latin lookup 1 subtable" L acutecmb
EndChar

StartChar: lacute
Encoding: 314 314 276
Width: 668
GlyphClass: 1
Flags: W
LayerCount: 2
Fore
SplineSet
168 0 m 1,0,-1
 168 1500 l 1,1,-1
 500 1500 l 1,2,-1
 500 0 l 1,3,-1
 168 0 l 1,0,-1
166 1600 m 1,4,-1
 332 1934 l 1,5,-1
 500 1934 l 1,6,-1
 332 1600 l 1,7,-1
 166 1600 l 1,4,-1
EndSplineSet
Validated: 1
Ligature2: "'ccmp' Glyph Composition/Decomposition in Latin lookup 1 subtable" l acutecmb
EndChar

StartChar: Lcommaaccent
Encoding: 315 315 277
Width: 1000
GlyphClass: 1
Flags: W
LayerCount: 2
Fore
SplineSet
168 0 m 1,0,-1
 168 1500 l 1,1,-1
 500 1500 l 1,2,-1
 500 168 l 1,3,-1
 1000 168 l 1,4,-1
 1000 0 l 1,5,-1
 168 0 l 1,0,-1
658 -232 m 1,6,-1
 858 -232 l 1,7,-1
 858 -432 l 2,8,9
 858 -610 858 -610 658 -632 c 1,10,-1
 658 -534 l 1,11,12
 754 -530 754 -530 758 -432 c 1,13,-1
 658 -432 l 1,14,-1
 658 -232 l 1,6,-1
EndSplineSet
Validated: 1
Ligature2: "'ccmp' Glyph Composition/Decomposition in Latin lookup 1 subtable" L cedillacmb
EndChar

StartChar: lcommaaccent
Encoding: 316 316 278
Width: 668
GlyphClass: 1
Flags: W
LayerCount: 2
Fore
SplineSet
168 0 m 1,0,-1
 168 1500 l 1,1,-1
 500 1500 l 1,2,-1
 500 0 l 1,3,-1
 168 0 l 1,0,-1
394 -232 m 1,4,-1
 592 -232 l 1,5,-1
 592 -432 l 2,6,7
 592 -610 592 -610 394 -632 c 1,8,-1
 394 -534 l 1,9,10
 490 -530 490 -530 492 -432 c 1,11,-1
 394 -432 l 1,12,-1
 394 -232 l 1,4,-1
EndSplineSet
Validated: 1
Ligature2: "'ccmp' Glyph Composition/Decomposition in Latin lookup 1 subtable" l cedillacmb
EndChar

StartChar: Lcaron
Encoding: 317 317 279
Width: 1168
GlyphClass: 1
Flags: W
LayerCount: 2
Fore
SplineSet
168 0 m 1,0,-1
 168 1500 l 1,1,-1
 500 1500 l 1,2,-1
 500 168 l 1,3,-1
 1000 168 l 1,4,-1
 1000 0 l 1,5,-1
 168 0 l 1,0,-1
668 1500 m 1,6,-1
 1000 1500 l 1,7,-1
 1000 1168 l 2,8,9
 1000 872 1000 872 668 834 c 1,10,-1
 668 1000 l 1,11,12
 828 1006 828 1006 834 1168 c 1,13,-1
 668 1168 l 1,14,-1
 668 1500 l 1,6,-1
EndSplineSet
Validated: 1
Ligature2: "'ccmp' Glyph Composition/Decomposition in Latin lookup 1 subtable" L caroncmb
EndChar

StartChar: lcaron
Encoding: 318 318 280
Width: 668
GlyphClass: 1
Flags: W
LayerCount: 2
Fore
SplineSet
168 0 m 1,0,-1
 168 1500 l 1,1,-1
 500 1500 l 1,2,-1
 500 0 l 1,3,-1
 168 0 l 1,0,-1
600 1500 m 1,4,-1
 932 1500 l 1,5,-1
 932 1168 l 2,6,7
 932 872 932 872 600 834 c 1,8,-1
 600 1000 l 1,9,10
 760 1006 760 1006 766 1168 c 1,11,-1
 600 1168 l 1,12,-1
 600 1500 l 1,4,-1
EndSplineSet
Validated: 1
Ligature2: "'ccmp' Glyph Composition/Decomposition in Latin lookup 1 subtable" l caroncmb
EndChar

StartChar: Ldotaccent
Encoding: 319 319 281
Width: 1168
GlyphClass: 1
Flags: W
LayerCount: 2
Fore
SplineSet
168 0 m 1,0,-1
 168 1500 l 1,1,-1
 500 1500 l 1,2,-1
 500 168 l 1,3,-1
 1000 168 l 1,4,-1
 1000 0 l 1,5,-1
 168 0 l 1,0,-1
794 738 m 1,6,-1
 794 944 l 1,7,-1
 990 944 l 1,8,-1
 990 738 l 1,9,-1
 794 738 l 1,6,-1
EndSplineSet
Validated: 1
EndChar

StartChar: ldotaccent
Encoding: 320 320 282
Width: 668
GlyphClass: 1
Flags: W
LayerCount: 2
Fore
SplineSet
168 0 m 1,0,-1
 168 1500 l 1,1,-1
 500 1500 l 1,2,-1
 500 0 l 1,3,-1
 168 0 l 1,0,-1
620 648 m 1,4,-1
 620 854 l 1,5,-1
 816 854 l 1,6,-1
 816 648 l 1,7,-1
 620 648 l 1,4,-1
EndSplineSet
Validated: 1
EndChar

StartChar: Lslash
Encoding: 321 321 283
Width: 1195
GlyphClass: 1
Flags: W
LayerCount: 2
Fore
SplineSet
171 0 m 1,0,-1
 171 683 l 1,1,-1
 0 597 l 1,2,-1
 0 768 l 1,3,-1
 171 853 l 1,4,-1
 171 1536 l 1,5,-1
 512 1536 l 1,6,-1
 512 1024 l 1,7,-1
 683 1109 l 1,8,-1
 683 939 l 1,9,-1
 512 853 l 1,10,-1
 512 171 l 1,11,-1
 1024 171 l 1,12,-1
 1024 0 l 1,13,-1
 171 0 l 1,0,-1
EndSplineSet
Validated: 1
EndChar

StartChar: lslash
Encoding: 322 322 284
Width: 683
GlyphClass: 1
Flags: W
LayerCount: 2
Fore
SplineSet
171 0 m 1,0,-1
 171 683 l 1,1,-1
 0 597 l 1,2,-1
 0 768 l 1,3,-1
 171 853 l 1,4,-1
 171 1536 l 1,5,-1
 512 1536 l 1,6,-1
 512 1024 l 1,7,-1
 683 1109 l 1,8,-1
 683 939 l 1,9,-1
 512 853 l 1,10,-1
 512 0 l 1,11,-1
 171 0 l 1,0,-1
EndSplineSet
Validated: 1
EndChar

StartChar: Nacute
Encoding: 323 323 285
Width: 1500
GlyphClass: 1
Flags: W
LayerCount: 2
Fore
SplineSet
168 0 m 1,0,-1
 168 1500 l 1,1,-1
 242 1500 l 1,2,-1
 1168 668 l 1,3,-1
 1168 1500 l 1,4,-1
 1334 1500 l 1,5,-1
 1334 0 l 1,6,-1
 1258 0 l 1,7,-1
 334 832 l 1,8,-1
 334 0 l 1,9,-1
 168 0 l 1,0,-1
582 1600 m 1,10,-1
 750 1934 l 1,11,-1
 918 1934 l 1,12,-1
 750 1600 l 1,13,-1
 582 1600 l 1,10,-1
EndSplineSet
Validated: 1
Ligature2: "'ccmp' Glyph Composition/Decomposition in Latin lookup 1 subtable" N acutecmb
EndChar

StartChar: nacute
Encoding: 324 324 286
Width: 1332
GlyphClass: 1
Flags: W
LayerCount: 2
Fore
SplineSet
168 0 m 1,0,-1
 168 1168 l 1,1,-1
 500 1168 l 1,2,-1
 500 1000 l 1,3,4
 510 1084 510 1084 552 1126 c 128,-1,5
 594 1168 594 1168 668 1168 c 2,6,-1
 834 1168 l 2,7,8
 972 1168 972 1168 1070 1069 c 128,-1,9
 1168 970 1168 970 1168 832 c 2,10,-1
 1168 0 l 1,11,-1
 834 0 l 1,12,-1
 834 832 l 2,13,14
 834 902 834 902 785 951 c 128,-1,15
 736 1000 736 1000 668 1000 c 0,16,17
 598 1000 598 1000 549 951 c 128,-1,18
 500 902 500 902 500 832 c 2,19,-1
 500 0 l 1,20,-1
 168 0 l 1,0,-1
500 1266 m 1,21,-1
 668 1600 l 1,22,-1
 834 1600 l 1,23,-1
 668 1266 l 1,24,-1
 500 1266 l 1,21,-1
EndSplineSet
Validated: 1
Ligature2: "'ccmp' Glyph Composition/Decomposition in Latin lookup 1 subtable" n acutecmb
EndChar

StartChar: Ncommaaccent
Encoding: 325 325 287
Width: 1500
GlyphClass: 1
Flags: W
LayerCount: 2
Fore
SplineSet
168 0 m 1,0,-1
 168 1500 l 1,1,-1
 242 1500 l 1,2,-1
 1168 668 l 1,3,-1
 1168 1500 l 1,4,-1
 1334 1500 l 1,5,-1
 1334 0 l 1,6,-1
 1258 0 l 1,7,-1
 334 832 l 1,8,-1
 334 0 l 1,9,-1
 168 0 l 1,0,-1
1006 -232 m 1,10,-1
 1206 -232 l 1,11,-1
 1206 -432 l 2,12,13
 1206 -610 1206 -610 1006 -632 c 1,14,-1
 1006 -534 l 1,15,16
 1102 -530 1102 -530 1106 -432 c 1,17,-1
 1006 -432 l 1,18,-1
 1006 -232 l 1,10,-1
EndSplineSet
Validated: 1
Ligature2: "'ccmp' Glyph Composition/Decomposition in Latin lookup 1 subtable" N cedillacmb
EndChar

StartChar: ncommaaccent
Encoding: 326 326 288
Width: 1332
GlyphClass: 1
Flags: W
LayerCount: 2
Fore
SplineSet
168 0 m 1,0,-1
 168 1168 l 1,1,-1
 500 1168 l 1,2,-1
 500 1000 l 1,3,4
 510 1084 510 1084 552 1126 c 128,-1,5
 594 1168 594 1168 668 1168 c 2,6,-1
 834 1168 l 2,7,8
 972 1168 972 1168 1070 1069 c 128,-1,9
 1168 970 1168 970 1168 832 c 2,10,-1
 1168 0 l 1,11,-1
 834 0 l 1,12,-1
 834 832 l 2,13,14
 834 902 834 902 785 951 c 128,-1,15
 736 1000 736 1000 668 1000 c 0,16,17
 598 1000 598 1000 549 951 c 128,-1,18
 500 902 500 902 500 832 c 2,19,-1
 500 0 l 1,20,-1
 168 0 l 1,0,-1
840 -232 m 1,21,-1
 1038 -232 l 1,22,-1
 1038 -432 l 2,23,24
 1038 -610 1038 -610 840 -632 c 1,25,-1
 840 -534 l 1,26,27
 936 -530 936 -530 938 -432 c 1,28,-1
 840 -432 l 1,29,-1
 840 -232 l 1,21,-1
EndSplineSet
Validated: 1
Ligature2: "'ccmp' Glyph Composition/Decomposition in Latin lookup 1 subtable" n cedillacmb
EndChar

StartChar: Ncaron
Encoding: 327 327 289
Width: 1500
GlyphClass: 1
Flags: W
LayerCount: 2
Fore
SplineSet
168 0 m 1,0,-1
 168 1500 l 1,1,-1
 242 1500 l 1,2,-1
 1168 668 l 1,3,-1
 1168 1500 l 1,4,-1
 1334 1500 l 1,5,-1
 1334 0 l 1,6,-1
 1258 0 l 1,7,-1
 334 832 l 1,8,-1
 334 0 l 1,9,-1
 168 0 l 1,0,-1
1082 1932 m 1,10,-1
 832 1600 l 1,11,-1
 668 1600 l 1,12,-1
 418 1934 l 1,13,-1
 582 1934 l 1,14,-1
 750 1766 l 1,15,-1
 918 1932 l 1,16,-1
 1082 1932 l 1,10,-1
EndSplineSet
Validated: 1
Ligature2: "'ccmp' Glyph Composition/Decomposition in Latin lookup 1 subtable" N caroncmb
EndChar

StartChar: ncaron
Encoding: 328 328 290
Width: 1332
GlyphClass: 1
Flags: W
LayerCount: 2
Fore
SplineSet
168 0 m 1,0,-1
 168 1168 l 1,1,-1
 500 1168 l 1,2,-1
 500 1000 l 1,3,4
 510 1084 510 1084 552 1126 c 128,-1,5
 594 1168 594 1168 668 1168 c 2,6,-1
 834 1168 l 2,7,8
 972 1168 972 1168 1070 1069 c 128,-1,9
 1168 970 1168 970 1168 832 c 2,10,-1
 1168 0 l 1,11,-1
 834 0 l 1,12,-1
 834 832 l 2,13,14
 834 902 834 902 785 951 c 128,-1,15
 736 1000 736 1000 668 1000 c 0,16,17
 598 1000 598 1000 549 951 c 128,-1,18
 500 902 500 902 500 832 c 2,19,-1
 500 0 l 1,20,-1
 168 0 l 1,0,-1
1000 1600 m 1,21,-1
 750 1266 l 1,22,-1
 584 1266 l 1,23,-1
 334 1600 l 1,24,-1
 500 1600 l 1,25,-1
 668 1434 l 1,26,-1
 834 1600 l 1,27,-1
 1000 1600 l 1,21,-1
EndSplineSet
Validated: 1
Ligature2: "'ccmp' Glyph Composition/Decomposition in Latin lookup 1 subtable" n caroncmb
EndChar

StartChar: Omacron
Encoding: 332 332 292
Width: 1332
GlyphClass: 1
Flags: W
LayerCount: 2
Fore
SplineSet
500 1500 m 2,0,-1
 834 1500 l 2,1,2
 972 1500 972 1500 1070 1402 c 128,-1,3
 1168 1304 1168 1304 1168 1168 c 2,4,-1
 1168 332 l 2,5,6
 1168 198 1168 198 1070 99 c 128,-1,7
 972 0 972 0 834 0 c 2,8,-1
 500 0 l 2,9,10
 364 0 364 0 266 98 c 128,-1,11
 168 196 168 196 168 332 c 2,12,-1
 168 1168 l 2,13,14
 168 1304 168 1304 266 1402 c 128,-1,15
 364 1500 364 1500 500 1500 c 2,0,-1
500 1168 m 2,16,-1
 500 332 l 2,17,18
 500 266 500 266 549 217 c 128,-1,19
 598 168 598 168 668 168 c 0,20,21
 736 168 736 168 785 217 c 128,-1,22
 834 266 834 266 834 332 c 2,23,-1
 834 1168 l 2,24,25
 834 1236 834 1236 785 1284 c 128,-1,26
 736 1332 736 1332 668 1332 c 0,27,28
 598 1332 598 1332 549 1284 c 128,-1,29
 500 1236 500 1236 500 1168 c 2,16,-1
334 1600 m 1,30,-1
 334 1766 l 1,31,-1
 1000 1766 l 1,32,-1
 1000 1600 l 1,33,-1
 334 1600 l 1,30,-1
EndSplineSet
Validated: 1
Ligature2: "'ccmp' Glyph Composition/Decomposition in Latin lookup 1 subtable" O macroncmb
EndChar

StartChar: omacron
Encoding: 333 333 293
Width: 1332
GlyphClass: 1
Flags: W
LayerCount: 2
Fore
SplineSet
500 1168 m 2,0,-1
 834 1168 l 2,1,2
 972 1168 972 1168 1070 1069 c 128,-1,3
 1168 970 1168 970 1168 832 c 2,4,-1
 1168 332 l 2,5,6
 1168 198 1168 198 1070 99 c 128,-1,7
 972 0 972 0 834 0 c 2,8,-1
 500 0 l 2,9,10
 364 0 364 0 266 98 c 128,-1,11
 168 196 168 196 168 332 c 2,12,-1
 168 832 l 2,13,14
 168 972 168 972 266 1070 c 128,-1,15
 364 1168 364 1168 500 1168 c 2,0,-1
500 832 m 2,16,-1
 500 332 l 2,17,18
 500 266 500 266 549 217 c 128,-1,19
 598 168 598 168 668 168 c 0,20,21
 736 168 736 168 785 217 c 128,-1,22
 834 266 834 266 834 332 c 2,23,-1
 834 832 l 2,24,25
 834 902 834 902 785 951 c 128,-1,26
 736 1000 736 1000 668 1000 c 0,27,28
 598 1000 598 1000 549 951 c 128,-1,29
 500 902 500 902 500 832 c 2,16,-1
334 1266 m 1,30,-1
 334 1434 l 1,31,-1
 1000 1434 l 1,32,-1
 1000 1266 l 1,33,-1
 334 1266 l 1,30,-1
EndSplineSet
Validated: 1
Ligature2: "'ccmp' Glyph Composition/Decomposition in Latin lookup 1 subtable" o macroncmb
EndChar

StartChar: Obreve
Encoding: 334 334 294
Width: 1332
GlyphClass: 1
Flags: W
LayerCount: 2
Fore
SplineSet
500 1500 m 2,0,-1
 834 1500 l 2,1,2
 972 1500 972 1500 1070 1402 c 128,-1,3
 1168 1304 1168 1304 1168 1168 c 2,4,-1
 1168 332 l 2,5,6
 1168 198 1168 198 1070 99 c 128,-1,7
 972 0 972 0 834 0 c 2,8,-1
 500 0 l 2,9,10
 364 0 364 0 266 98 c 128,-1,11
 168 196 168 196 168 332 c 2,12,-1
 168 1168 l 2,13,14
 168 1304 168 1304 266 1402 c 128,-1,15
 364 1500 364 1500 500 1500 c 2,0,-1
500 1168 m 2,16,-1
 500 332 l 2,17,18
 500 266 500 266 549 217 c 128,-1,19
 598 168 598 168 668 168 c 0,20,21
 736 168 736 168 785 217 c 128,-1,22
 834 266 834 266 834 332 c 2,23,-1
 834 1168 l 2,24,25
 834 1236 834 1236 785 1284 c 128,-1,26
 736 1332 736 1332 668 1332 c 0,27,28
 598 1332 598 1332 549 1284 c 128,-1,29
 500 1236 500 1236 500 1168 c 2,16,-1
834 1934 m 1,30,-1
 1000 1934 l 1,31,32
 962 1600 962 1600 668 1600 c 256,33,34
 374 1600 374 1600 334 1934 c 1,35,-1
 500 1934 l 1,36,37
 520 1766 520 1766 668 1766 c 0,38,39
 814 1766 814 1766 834 1934 c 1,30,-1
EndSplineSet
Validated: 1
Ligature2: "'ccmp' Glyph Composition/Decomposition in Latin lookup 1 subtable" O brevecmb
EndChar

StartChar: obreve
Encoding: 335 335 295
Width: 1332
GlyphClass: 1
Flags: W
LayerCount: 2
Fore
SplineSet
500 1168 m 2,0,-1
 834 1168 l 2,1,2
 972 1168 972 1168 1070 1069 c 128,-1,3
 1168 970 1168 970 1168 832 c 2,4,-1
 1168 332 l 2,5,6
 1168 198 1168 198 1070 99 c 128,-1,7
 972 0 972 0 834 0 c 2,8,-1
 500 0 l 2,9,10
 364 0 364 0 266 98 c 128,-1,11
 168 196 168 196 168 332 c 2,12,-1
 168 832 l 2,13,14
 168 972 168 972 266 1070 c 128,-1,15
 364 1168 364 1168 500 1168 c 2,0,-1
500 832 m 2,16,-1
 500 332 l 2,17,18
 500 266 500 266 549 217 c 128,-1,19
 598 168 598 168 668 168 c 0,20,21
 736 168 736 168 785 217 c 128,-1,22
 834 266 834 266 834 332 c 2,23,-1
 834 832 l 2,24,25
 834 902 834 902 785 951 c 128,-1,26
 736 1000 736 1000 668 1000 c 0,27,28
 598 1000 598 1000 549 951 c 128,-1,29
 500 902 500 902 500 832 c 2,16,-1
834 1600 m 1,30,-1
 1000 1600 l 1,31,32
 962 1266 962 1266 668 1266 c 256,33,34
 374 1266 374 1266 334 1600 c 1,35,-1
 500 1600 l 1,36,37
 520 1434 520 1434 668 1434 c 0,38,39
 814 1434 814 1434 834 1600 c 1,30,-1
EndSplineSet
Validated: 1
Ligature2: "'ccmp' Glyph Composition/Decomposition in Latin lookup 1 subtable" o brevecmb
EndChar

StartChar: Ohungarumlaut
Encoding: 336 336 296
Width: 1332
GlyphClass: 1
Flags: W
LayerCount: 2
Fore
SplineSet
500 1500 m 2,0,-1
 834 1500 l 2,1,2
 972 1500 972 1500 1070 1402 c 128,-1,3
 1168 1304 1168 1304 1168 1168 c 2,4,-1
 1168 332 l 2,5,6
 1168 198 1168 198 1070 99 c 128,-1,7
 972 0 972 0 834 0 c 2,8,-1
 500 0 l 2,9,10
 364 0 364 0 266 98 c 128,-1,11
 168 196 168 196 168 332 c 2,12,-1
 168 1168 l 2,13,14
 168 1304 168 1304 266 1402 c 128,-1,15
 364 1500 364 1500 500 1500 c 2,0,-1
500 1168 m 2,16,-1
 500 332 l 2,17,18
 500 266 500 266 549 217 c 128,-1,19
 598 168 598 168 668 168 c 0,20,21
 736 168 736 168 785 217 c 128,-1,22
 834 266 834 266 834 332 c 2,23,-1
 834 1168 l 2,24,25
 834 1236 834 1236 785 1284 c 128,-1,26
 736 1332 736 1332 668 1332 c 0,27,28
 598 1332 598 1332 549 1284 c 128,-1,29
 500 1236 500 1236 500 1168 c 2,16,-1
418 1600 m 1,30,-1
 582 1934 l 1,31,-1
 750 1934 l 1,32,-1
 582 1600 l 1,33,-1
 418 1600 l 1,30,-1
750 1600 m 1,34,-1
 918 1934 l 1,35,-1
 1082 1934 l 1,36,-1
 918 1600 l 1,37,-1
 750 1600 l 1,34,-1
EndSplineSet
Validated: 1
Ligature2: "'ccmp' Glyph Composition/Decomposition in Latin lookup 1 subtable" O hungarumlautcmb
EndChar

StartChar: ohungarumlaut
Encoding: 337 337 297
Width: 1332
GlyphClass: 1
Flags: W
LayerCount: 2
Fore
SplineSet
500 1168 m 2,0,-1
 834 1168 l 2,1,2
 972 1168 972 1168 1070 1069 c 128,-1,3
 1168 970 1168 970 1168 832 c 2,4,-1
 1168 332 l 2,5,6
 1168 198 1168 198 1070 99 c 128,-1,7
 972 0 972 0 834 0 c 2,8,-1
 500 0 l 2,9,10
 364 0 364 0 266 98 c 128,-1,11
 168 196 168 196 168 332 c 2,12,-1
 168 832 l 2,13,14
 168 972 168 972 266 1070 c 128,-1,15
 364 1168 364 1168 500 1168 c 2,0,-1
500 832 m 2,16,-1
 500 332 l 2,17,18
 500 266 500 266 549 217 c 128,-1,19
 598 168 598 168 668 168 c 0,20,21
 736 168 736 168 785 217 c 128,-1,22
 834 266 834 266 834 332 c 2,23,-1
 834 832 l 2,24,25
 834 902 834 902 785 951 c 128,-1,26
 736 1000 736 1000 668 1000 c 0,27,28
 598 1000 598 1000 549 951 c 128,-1,29
 500 902 500 902 500 832 c 2,16,-1
418 1266 m 1,30,-1
 582 1600 l 1,31,-1
 750 1600 l 1,32,-1
 582 1266 l 1,33,-1
 418 1266 l 1,30,-1
750 1266 m 1,34,-1
 918 1600 l 1,35,-1
 1082 1600 l 1,36,-1
 918 1266 l 1,37,-1
 750 1266 l 1,34,-1
EndSplineSet
Validated: 1
Ligature2: "'ccmp' Glyph Composition/Decomposition in Latin lookup 1 subtable" o hungarumlautcmb
EndChar

StartChar: OE
Encoding: 338 338 298
Width: 1877
GlyphClass: 1
Flags: W
LayerCount: 2
Fore
SplineSet
1707 1536 m 1,0,-1
 1707 1365 l 1,1,-1
 1195 1365 l 1,2,-1
 1195 853 l 1,3,-1
 1536 853 l 1,4,-1
 1536 683 l 1,5,-1
 1195 683 l 1,6,-1
 1195 171 l 1,7,-1
 1707 171 l 1,8,-1
 1707 0 l 1,9,-1
 512 0 l 2,10,11
 372 0 372 0 271.5 100.5 c 128,-1,12
 171 201 171 201 171 341 c 2,13,-1
 171 1195 l 2,14,15
 171 1335 171 1335 271.5 1435.5 c 128,-1,16
 372 1536 372 1536 512 1536 c 2,17,-1
 1707 1536 l 1,0,-1
512 1195 m 2,18,-1
 512 341 l 2,19,20
 512 272 512 272 562 221.5 c 128,-1,21
 612 171 612 171 683 171 c 256,22,23
 754 171 754 171 804 221.5 c 128,-1,24
 854 272 854 272 854 341 c 2,25,-1
 854 1195 l 2,26,27
 854 1265 854 1265 803.5 1315 c 128,-1,28
 753 1365 753 1365 683 1365 c 256,29,30
 613 1365 613 1365 562.5 1315 c 128,-1,31
 512 1265 512 1265 512 1195 c 2,18,-1
EndSplineSet
Validated: 1
EndChar

StartChar: oe
Encoding: 339 339 299
Width: 2048
GlyphClass: 1
Flags: W
LayerCount: 2
Fore
SplineSet
1195 512 m 1,0,-1
 1195 341 l 2,1,2
 1195 272 1195 272 1245 221.5 c 128,-1,3
 1295 171 1295 171 1366 171 c 2,4,-1
 1536 171 l 2,5,6
 1707 171 1707 171 1707 341 c 1,7,-1
 1878 341 l 1,8,9
 1838 0 1838 0 1536 0 c 2,10,-1
 1195 0 l 2,11,12
 1111 0 1111 0 1024 46 c 1,13,14
 937 0 937 0 854 0 c 2,15,-1
 512 0 l 2,16,17
 372 0 372 0 271.5 100.5 c 128,-1,18
 171 201 171 201 171 341 c 2,19,-1
 171 853 l 2,20,21
 171 994 171 994 272 1094.5 c 128,-1,22
 373 1195 373 1195 512 1195 c 2,23,-1
 854 1195 l 2,24,25
 937 1195 937 1195 1024 1149 c 1,26,27
 1111 1195 1111 1195 1195 1195 c 2,28,-1
 1536 1195 l 2,29,30
 1676 1195 1676 1195 1777 1094 c 128,-1,31
 1878 993 1878 993 1878 853 c 2,32,-1
 1878 512 l 1,33,-1
 1195 512 l 1,0,-1
512 853 m 2,34,-1
 512 341 l 2,35,36
 512 272 512 272 562 221.5 c 128,-1,37
 612 171 612 171 683 171 c 256,38,39
 754 171 754 171 804 221.5 c 128,-1,40
 854 272 854 272 854 341 c 2,41,-1
 854 853 l 2,42,43
 854 923 854 923 803.5 973.5 c 128,-1,44
 753 1024 753 1024 683 1024 c 256,45,46
 613 1024 613 1024 562.5 973.5 c 128,-1,47
 512 923 512 923 512 853 c 2,34,-1
1195 683 m 1,48,-1
 1536 683 l 1,49,-1
 1536 853 l 2,50,51
 1536 922 1536 922 1485.5 973 c 128,-1,52
 1435 1024 1435 1024 1366 1024 c 0,53,54
 1296 1024 1296 1024 1245.5 973.5 c 128,-1,55
 1195 923 1195 923 1195 853 c 2,56,-1
 1195 683 l 1,48,-1
EndSplineSet
Validated: 1
EndChar

StartChar: Racute
Encoding: 340 340 300
Width: 1332
GlyphClass: 1
Flags: W
LayerCount: 2
Fore
SplineSet
168 0 m 1,0,-1
 168 1500 l 1,1,-1
 834 1500 l 2,2,3
 972 1500 972 1500 1070 1402 c 128,-1,4
 1168 1304 1168 1304 1168 1168 c 2,5,-1
 1168 1076 l 2,6,7
 1168 964 1168 964 1091 861 c 128,-1,8
 1014 758 1014 758 834 758 c 1,9,-1
 1000 758 l 2,10,11
 1068 758 1068 758 1118 709 c 128,-1,12
 1168 660 1168 660 1168 590 c 2,13,-1
 1168 0 l 1,14,-1
 834 0 l 1,15,-1
 834 500 l 2,16,17
 834 568 834 568 785 618 c 128,-1,18
 736 668 736 668 668 668 c 2,19,-1
 500 668 l 1,20,-1
 500 0 l 1,21,-1
 168 0 l 1,0,-1
500 832 m 1,22,-1
 668 832 l 2,23,24
 736 832 736 832 785 882 c 128,-1,25
 834 932 834 932 834 1000 c 2,26,-1
 834 1168 l 2,27,28
 834 1236 834 1236 785 1284 c 128,-1,29
 736 1332 736 1332 668 1332 c 2,30,-1
 500 1332 l 1,31,-1
 500 832 l 1,22,-1
500 1600 m 1,32,-1
 668 1934 l 1,33,-1
 834 1934 l 1,34,-1
 668 1600 l 1,35,-1
 500 1600 l 1,32,-1
EndSplineSet
Validated: 1
Ligature2: "'ccmp' Glyph Composition/Decomposition in Latin lookup 1 subtable" R acutecmb
EndChar

StartChar: racute
Encoding: 341 341 301
Width: 1000
GlyphClass: 1
Flags: W
LayerCount: 2
Fore
SplineSet
500 0 m 1,0,-1
 168 0 l 1,1,-1
 168 1168 l 1,2,-1
 500 1168 l 1,3,-1
 500 832 l 1,4,5
 520 1000 520 1000 603 1084 c 128,-1,6
 686 1168 686 1168 834 1168 c 2,7,-1
 1000 1168 l 1,8,-1
 1000 832 l 1,9,-1
 668 832 l 2,10,11
 598 832 598 832 549 784 c 128,-1,12
 500 736 500 736 500 668 c 2,13,-1
 500 0 l 1,0,-1
416 1266 m 1,14,-1
 582 1600 l 1,15,-1
 750 1600 l 1,16,-1
 582 1266 l 1,17,-1
 416 1266 l 1,14,-1
EndSplineSet
Validated: 1
Ligature2: "'ccmp' Glyph Composition/Decomposition in Latin lookup 1 subtable" r acutecmb
EndChar

StartChar: Rcommaaccent
Encoding: 342 342 302
Width: 1332
GlyphClass: 1
Flags: W
LayerCount: 2
Fore
SplineSet
168 0 m 1,0,-1
 168 1500 l 1,1,-1
 834 1500 l 2,2,3
 972 1500 972 1500 1070 1402 c 128,-1,4
 1168 1304 1168 1304 1168 1168 c 2,5,-1
 1168 1076 l 2,6,7
 1168 964 1168 964 1091 861 c 128,-1,8
 1014 758 1014 758 834 758 c 1,9,-1
 1000 758 l 2,10,11
 1068 758 1068 758 1118 709 c 128,-1,12
 1168 660 1168 660 1168 590 c 2,13,-1
 1168 0 l 1,14,-1
 834 0 l 1,15,-1
 834 500 l 2,16,17
 834 568 834 568 785 618 c 128,-1,18
 736 668 736 668 668 668 c 2,19,-1
 500 668 l 1,20,-1
 500 0 l 1,21,-1
 168 0 l 1,0,-1
500 832 m 1,22,-1
 668 832 l 2,23,24
 736 832 736 832 785 882 c 128,-1,25
 834 932 834 932 834 1000 c 2,26,-1
 834 1168 l 2,27,28
 834 1236 834 1236 785 1284 c 128,-1,29
 736 1332 736 1332 668 1332 c 2,30,-1
 500 1332 l 1,31,-1
 500 832 l 1,22,-1
826 -232 m 1,32,-1
 1024 -232 l 1,33,-1
 1024 -432 l 2,34,35
 1024 -610 1024 -610 826 -632 c 1,36,-1
 826 -534 l 1,37,38
 922 -530 922 -530 926 -432 c 1,39,-1
 826 -432 l 1,40,-1
 826 -232 l 1,32,-1
EndSplineSet
Validated: 1
Ligature2: "'ccmp' Glyph Composition/Decomposition in Latin lookup 1 subtable" R cedillacmb
EndChar

StartChar: rcommaaccent
Encoding: 343 343 303
Width: 1000
GlyphClass: 1
Flags: W
LayerCount: 2
Fore
SplineSet
500 0 m 1,0,-1
 168 0 l 1,1,-1
 168 1168 l 1,2,-1
 500 1168 l 1,3,-1
 500 832 l 1,4,5
 520 1000 520 1000 603 1084 c 128,-1,6
 686 1168 686 1168 834 1168 c 2,7,-1
 1000 1168 l 1,8,-1
 1000 832 l 1,9,-1
 668 832 l 2,10,11
 598 832 598 832 549 784 c 128,-1,12
 500 736 500 736 500 668 c 2,13,-1
 500 0 l 1,0,-1
394 -232 m 1,14,-1
 592 -232 l 1,15,-1
 592 -432 l 2,16,17
 592 -610 592 -610 394 -632 c 1,18,-1
 394 -534 l 1,19,20
 490 -530 490 -530 492 -432 c 1,21,-1
 394 -432 l 1,22,-1
 394 -232 l 1,14,-1
EndSplineSet
Validated: 1
Ligature2: "'ccmp' Glyph Composition/Decomposition in Latin lookup 1 subtable" r cedillacmb
EndChar

StartChar: Rcaron
Encoding: 344 344 304
Width: 1332
GlyphClass: 1
Flags: W
LayerCount: 2
Fore
SplineSet
168 0 m 1,0,-1
 168 1500 l 1,1,-1
 834 1500 l 2,2,3
 972 1500 972 1500 1070 1402 c 128,-1,4
 1168 1304 1168 1304 1168 1168 c 2,5,-1
 1168 1076 l 2,6,7
 1168 964 1168 964 1091 861 c 128,-1,8
 1014 758 1014 758 834 758 c 1,9,-1
 1000 758 l 2,10,11
 1068 758 1068 758 1118 709 c 128,-1,12
 1168 660 1168 660 1168 590 c 2,13,-1
 1168 0 l 1,14,-1
 834 0 l 1,15,-1
 834 500 l 2,16,17
 834 568 834 568 785 618 c 128,-1,18
 736 668 736 668 668 668 c 2,19,-1
 500 668 l 1,20,-1
 500 0 l 1,21,-1
 168 0 l 1,0,-1
500 832 m 1,22,-1
 668 832 l 2,23,24
 736 832 736 832 785 882 c 128,-1,25
 834 932 834 932 834 1000 c 2,26,-1
 834 1168 l 2,27,28
 834 1236 834 1236 785 1284 c 128,-1,29
 736 1332 736 1332 668 1332 c 2,30,-1
 500 1332 l 1,31,-1
 500 832 l 1,22,-1
916 1932 m 1,32,-1
 666 1600 l 1,33,-1
 500 1600 l 1,34,-1
 250 1934 l 1,35,-1
 416 1934 l 1,36,-1
 582 1766 l 1,37,-1
 750 1932 l 1,38,-1
 916 1932 l 1,32,-1
EndSplineSet
Validated: 1
Ligature2: "'ccmp' Glyph Composition/Decomposition in Latin lookup 1 subtable" R caroncmb
EndChar

StartChar: rcaron
Encoding: 345 345 305
Width: 1000
GlyphClass: 1
Flags: W
LayerCount: 2
Fore
SplineSet
500 0 m 1,0,-1
 168 0 l 1,1,-1
 168 1168 l 1,2,-1
 500 1168 l 1,3,-1
 500 832 l 1,4,5
 520 1000 520 1000 603 1084 c 128,-1,6
 686 1168 686 1168 834 1168 c 2,7,-1
 1000 1168 l 1,8,-1
 1000 832 l 1,9,-1
 668 832 l 2,10,11
 598 832 598 832 549 784 c 128,-1,12
 500 736 500 736 500 668 c 2,13,-1
 500 0 l 1,0,-1
916 1600 m 1,14,-1
 666 1266 l 1,15,-1
 500 1266 l 1,16,-1
 250 1600 l 1,17,-1
 416 1600 l 1,18,-1
 582 1434 l 1,19,-1
 750 1600 l 1,20,-1
 916 1600 l 1,14,-1
EndSplineSet
Validated: 1
Ligature2: "'ccmp' Glyph Composition/Decomposition in Latin lookup 1 subtable" r caroncmb
EndChar

StartChar: Sacute
Encoding: 346 346 306
Width: 1168
GlyphClass: 1
Flags: W
LayerCount: 2
Fore
SplineSet
1000 1168 m 1,0,-1
 834 1168 l 1,1,2
 812 1334 812 1334 676 1334 c 0,3,4
 590 1334 590 1334 545 1292 c 128,-1,5
 500 1250 500 1250 500 1166 c 0,6,7
 500 1104 500 1104 550 1050 c 2,8,-1
 902 652 l 2,9,10
 1000 542 1000 542 1000 418 c 2,11,-1
 1000 332 l 2,12,13
 1000 198 1000 198 902 99 c 128,-1,14
 804 0 804 0 668 0 c 2,15,-1
 500 0 l 2,16,17
 334 0 334 0 251 84 c 128,-1,18
 168 168 168 168 168 332 c 1,19,-1
 334 332 l 1,20,21
 332 316 332 316 332 306 c 0,22,23
 332 238 332 238 385 203 c 128,-1,24
 438 168 438 168 500 168 c 0,25,26
 590 168 590 168 629 211 c 128,-1,27
 668 254 668 254 668 336 c 0,28,29
 668 398 668 398 618 452 c 2,30,-1
 264 848 l 2,31,32
 168 956 168 956 168 1082 c 2,33,-1
 168 1168 l 2,34,35
 168 1304 168 1304 265 1402 c 128,-1,36
 362 1500 362 1500 500 1500 c 2,37,-1
 668 1500 l 2,38,39
 980 1500 980 1500 1000 1168 c 1,0,-1
416 1600 m 1,40,-1
 582 1934 l 1,41,-1
 750 1934 l 1,42,-1
 582 1600 l 1,43,-1
 416 1600 l 1,40,-1
EndSplineSet
Validated: 1
Ligature2: "'ccmp' Glyph Composition/Decomposition in Latin lookup 1 subtable" S acutecmb
EndChar

StartChar: sacute
Encoding: 347 347 307
Width: 1168
GlyphClass: 1
Flags: W
LayerCount: 2
Fore
SplineSet
1000 832 m 1,0,-1
 834 832 l 1,1,2
 812 1000 812 1000 676 1000 c 0,3,4
 588 1000 588 1000 544 965 c 128,-1,5
 500 930 500 930 500 862 c 0,6,7
 500 790 500 790 742 660 c 0,8,9
 940 554 940 554 970 484 c 128,-1,10
 1000 414 1000 414 1000 336 c 0,11,12
 1000 196 1000 196 902 98 c 128,-1,13
 804 0 804 0 668 0 c 2,14,-1
 500 0 l 2,15,16
 168 0 168 0 168 332 c 1,17,-1
 334 332 l 1,18,19
 354 166 354 166 490 166 c 0,20,21
 578 166 578 166 623 201 c 128,-1,22
 668 236 668 236 668 306 c 256,23,24
 668 376 668 376 426 508 c 0,25,26
 228 612 228 612 198 683 c 128,-1,27
 168 754 168 754 168 832 c 0,28,29
 168 972 168 972 266 1070 c 128,-1,30
 364 1168 364 1168 500 1168 c 2,31,-1
 668 1168 l 2,32,33
 980 1168 980 1168 1000 832 c 1,0,-1
416 1266 m 1,34,-1
 582 1600 l 1,35,-1
 750 1600 l 1,36,-1
 582 1266 l 1,37,-1
 416 1266 l 1,34,-1
EndSplineSet
Validated: 1
Ligature2: "'ccmp' Glyph Composition/Decomposition in Latin lookup 1 subtable" s acutecmb
EndChar

StartChar: Scircumflex
Encoding: 348 348 308
Width: 1168
GlyphClass: 1
Flags: W
LayerCount: 2
Fore
SplineSet
1000 1168 m 1,0,-1
 834 1168 l 1,1,2
 812 1334 812 1334 676 1334 c 0,3,4
 590 1334 590 1334 545 1292 c 128,-1,5
 500 1250 500 1250 500 1166 c 0,6,7
 500 1104 500 1104 550 1050 c 2,8,-1
 902 652 l 2,9,10
 1000 542 1000 542 1000 418 c 2,11,-1
 1000 332 l 2,12,13
 1000 198 1000 198 902 99 c 128,-1,14
 804 0 804 0 668 0 c 2,15,-1
 500 0 l 2,16,17
 334 0 334 0 251 84 c 128,-1,18
 168 168 168 168 168 332 c 1,19,-1
 334 332 l 1,20,21
 332 316 332 316 332 306 c 0,22,23
 332 238 332 238 385 203 c 128,-1,24
 438 168 438 168 500 168 c 0,25,26
 590 168 590 168 629 211 c 128,-1,27
 668 254 668 254 668 336 c 0,28,29
 668 398 668 398 618 452 c 2,30,-1
 264 848 l 2,31,32
 168 956 168 956 168 1082 c 2,33,-1
 168 1168 l 2,34,35
 168 1304 168 1304 265 1402 c 128,-1,36
 362 1500 362 1500 500 1500 c 2,37,-1
 668 1500 l 2,38,39
 980 1500 980 1500 1000 1168 c 1,0,-1
250 1600 m 1,40,-1
 500 1934 l 1,41,-1
 666 1934 l 1,42,-1
 916 1600 l 1,43,-1
 750 1600 l 1,44,-1
 582 1766 l 1,45,-1
 416 1600 l 1,46,-1
 250 1600 l 1,40,-1
EndSplineSet
Validated: 1
Ligature2: "'ccmp' Glyph Composition/Decomposition in Latin lookup 1 subtable" S circumflexcmb
EndChar

StartChar: scircumflex
Encoding: 349 349 309
Width: 1168
GlyphClass: 1
Flags: W
LayerCount: 2
Fore
SplineSet
1000 832 m 1,0,-1
 834 832 l 1,1,2
 812 1000 812 1000 676 1000 c 0,3,4
 588 1000 588 1000 544 965 c 128,-1,5
 500 930 500 930 500 862 c 0,6,7
 500 790 500 790 742 660 c 0,8,9
 940 554 940 554 970 484 c 128,-1,10
 1000 414 1000 414 1000 336 c 0,11,12
 1000 196 1000 196 902 98 c 128,-1,13
 804 0 804 0 668 0 c 2,14,-1
 500 0 l 2,15,16
 168 0 168 0 168 332 c 1,17,-1
 334 332 l 1,18,19
 354 166 354 166 490 166 c 0,20,21
 578 166 578 166 623 201 c 128,-1,22
 668 236 668 236 668 306 c 256,23,24
 668 376 668 376 426 508 c 0,25,26
 228 612 228 612 198 683 c 128,-1,27
 168 754 168 754 168 832 c 0,28,29
 168 972 168 972 266 1070 c 128,-1,30
 364 1168 364 1168 500 1168 c 2,31,-1
 668 1168 l 2,32,33
 980 1168 980 1168 1000 832 c 1,0,-1
250 1266 m 1,34,-1
 500 1600 l 1,35,-1
 666 1600 l 1,36,-1
 916 1266 l 1,37,-1
 750 1266 l 1,38,-1
 582 1434 l 1,39,-1
 416 1266 l 1,40,-1
 250 1266 l 1,34,-1
EndSplineSet
Validated: 1
Ligature2: "'ccmp' Glyph Composition/Decomposition in Latin lookup 1 subtable" s circumflexcmb
EndChar

StartChar: Scedilla
Encoding: 350 350 310
Width: 1195
GlyphClass: 1
Flags: W
LayerCount: 2
Fore
SplineSet
512 0 m 1,0,1
 171 28 171 28 171 341 c 1,2,-1
 342 341 l 1,3,4
 341 323 341 323 341 313 c 0,5,6
 341 243 341 243 400.5 207 c 128,-1,7
 460 171 460 171 507 171 c 0,8,9
 579 171 579 171 631 221 c 128,-1,10
 683 271 683 271 683 343 c 0,11,12
 683 408 683 408 633 463 c 2,13,-1
 271 868 l 2,14,15
 171 979 171 979 171 1109 c 2,16,-1
 171 1195 l 2,17,18
 171 1334 171 1334 271 1435 c 128,-1,19
 371 1536 371 1536 512 1536 c 2,20,-1
 683 1536 l 2,21,22
 1003 1536 1003 1536 1024 1195 c 1,23,-1
 854 1195 l 1,24,25
 832 1366 832 1366 693 1366 c 0,26,27
 603 1366 603 1366 557.5 1323 c 128,-1,28
 512 1280 512 1280 512 1194 c 0,29,30
 512 1130 512 1130 562 1074 c 2,31,-1
 924 668 l 2,32,33
 1024 556 1024 556 1024 427 c 2,34,-1
 1024 341 l 2,35,36
 1024 202 1024 202 924 101 c 128,-1,37
 824 0 824 0 683 0 c 2,38,-1
 598 0 l 1,39,40
 726 -15 726 -15 790 -79 c 128,-1,41
 854 -143 854 -143 854 -256 c 0,42,43
 854 -367 854 -367 774 -439.5 c 128,-1,44
 694 -512 694 -512 608 -512 c 0,45,46
 570 -512 570 -512 500 -493 c 1,47,-1
 565 -335 l 1,48,49
 588 -341 588 -341 601 -341 c 0,50,51
 642 -341 642 -341 662.5 -319.5 c 128,-1,52
 683 -298 683 -298 683 -256 c 0,53,54
 683 -213 683 -213 662 -192 c 128,-1,55
 641 -171 641 -171 598 -171 c 2,56,-1
 512 -171 l 1,57,-1
 512 0 l 1,0,1
EndSplineSet
Validated: 1
EndChar

StartChar: scedilla
Encoding: 351 351 311
Width: 1195
GlyphClass: 1
Flags: W
LayerCount: 2
Fore
SplineSet
512 0 m 1,0,1
 171 28 171 28 171 341 c 1,2,-1
 342 341 l 1,3,4
 341 323 341 323 341 311 c 0,5,6
 341 243 341 243 400.5 207 c 128,-1,7
 460 171 460 171 507 171 c 0,8,9
 593 171 593 171 638.5 228.5 c 128,-1,10
 684 286 684 286 684 328 c 0,11,12
 684 411 684 411 442 527 c 0,13,14
 276 608 276 608 244 645 c 128,-1,15
 212 682 212 682 191.5 736.5 c 128,-1,16
 171 791 171 791 171 851 c 0,17,18
 171 994 171 994 272 1094.5 c 128,-1,19
 373 1195 373 1195 512 1195 c 2,20,-1
 683 1195 l 2,21,22
 1003 1195 1003 1195 1024 853 c 1,23,-1
 854 853 l 1,24,25
 832 1024 832 1024 693 1024 c 0,26,27
 597 1024 597 1024 554 965.5 c 128,-1,28
 511 907 511 907 511 865 c 0,29,30
 511 784 511 784 753 667 c 0,31,32
 919 587 919 587 951 550 c 128,-1,33
 983 513 983 513 1003.5 458 c 128,-1,34
 1024 403 1024 403 1024 343 c 0,35,36
 1024 201 1024 201 923.5 100.5 c 128,-1,37
 823 0 823 0 683 0 c 2,38,-1
 598 0 l 1,39,40
 726 -15 726 -15 790 -79 c 128,-1,41
 854 -143 854 -143 854 -256 c 0,42,43
 854 -367 854 -367 774 -439.5 c 128,-1,44
 694 -512 694 -512 608 -512 c 0,45,46
 570 -512 570 -512 500 -493 c 1,47,-1
 565 -335 l 1,48,49
 588 -341 588 -341 601 -341 c 0,50,51
 642 -341 642 -341 662.5 -319.5 c 128,-1,52
 683 -298 683 -298 683 -256 c 0,53,54
 683 -213 683 -213 662 -192 c 128,-1,55
 641 -171 641 -171 598 -171 c 2,56,-1
 512 -171 l 1,57,-1
 512 0 l 1,0,1
EndSplineSet
Validated: 1
EndChar

StartChar: Tcedilla
Encoding: 354 354 314
Width: 1000
GlyphClass: 1
Flags: W
LayerCount: 2
Fore
SplineSet
332 0 m 1,0,-1
 332 1332 l 1,1,-1
 0 1332 l 1,2,-1
 0 1500 l 1,3,-1
 1000 1500 l 1,4,-1
 1000 1332 l 1,5,-1
 668 1332 l 1,6,-1
 668 0 l 1,7,-1
 332 0 l 1,0,-1
340 -168 m 1,8,-1
 340 0 l 1,9,-1
 422 0 l 2,10,11
 526 0 526 0 599 -74 c 128,-1,12
 672 -148 672 -148 672 -250 c 0,13,14
 672 -358 672 -358 594 -429 c 128,-1,15
 516 -500 516 -500 432 -500 c 0,16,17
 396 -500 396 -500 328 -482 c 1,18,-1
 390 -328 l 1,19,20
 414 -332 414 -332 426 -332 c 0,21,22
 466 -332 466 -332 486 -312 c 128,-1,23
 506 -292 506 -292 506 -250 c 256,24,25
 506 -208 506 -208 485 -188 c 128,-1,26
 464 -168 464 -168 422 -168 c 2,27,-1
 340 -168 l 1,8,-1
EndSplineSet
Validated: 5
Ligature2: "'ccmp' Glyph Composition/Decomposition in Latin lookup 1 subtable" T cedillacmb
EndChar

StartChar: tcedilla
Encoding: 355 355 315
Width: 1000
GlyphClass: 1
Flags: W
LayerCount: 2
Fore
SplineSet
334 1500 m 1,0,-1
 668 1500 l 1,1,-1
 668 1168 l 1,2,-1
 834 1168 l 1,3,-1
 834 1000 l 1,4,-1
 668 1000 l 1,5,-1
 668 332 l 2,6,7
 668 252 668 252 721 210 c 128,-1,8
 774 168 774 168 818 168 c 2,9,-1
 834 168 l 1,10,-1
 834 0 l 1,11,-1
 668 0 l 2,12,13
 530 0 530 0 432 98 c 128,-1,14
 334 196 334 196 334 332 c 2,15,-1
 334 1000 l 1,16,-1
 168 1000 l 1,17,-1
 168 1168 l 1,18,-1
 334 1168 l 1,19,-1
 334 1500 l 1,0,-1
516 -128 m 1,20,-1
 516 40 l 1,21,-1
 600 40 l 2,22,23
 702 40 702 40 776 -34 c 128,-1,24
 850 -108 850 -108 850 -210 c 0,25,26
 850 -318 850 -318 772 -389 c 128,-1,27
 694 -460 694 -460 610 -460 c 0,28,29
 572 -460 572 -460 504 -442 c 1,30,-1
 568 -288 l 1,31,32
 590 -292 590 -292 602 -292 c 0,33,34
 642 -292 642 -292 662 -271 c 128,-1,35
 682 -250 682 -250 682 -210 c 0,36,37
 682 -168 682 -168 662 -148 c 128,-1,38
 642 -128 642 -128 600 -128 c 2,39,-1
 516 -128 l 1,20,-1
EndSplineSet
Validated: 5
Ligature2: "'ccmp' Glyph Composition/Decomposition in Latin lookup 1 subtable" t cedillacmb
EndChar

StartChar: Tcaron
Encoding: 356 356 316
Width: 1000
GlyphClass: 1
Flags: W
LayerCount: 2
Fore
SplineSet
332 0 m 1,0,-1
 332 1332 l 1,1,-1
 0 1332 l 1,2,-1
 0 1500 l 1,3,-1
 1000 1500 l 1,4,-1
 1000 1332 l 1,5,-1
 668 1332 l 1,6,-1
 668 0 l 1,7,-1
 332 0 l 1,0,-1
832 1932 m 1,8,-1
 582 1600 l 1,9,-1
 418 1600 l 1,10,-1
 168 1934 l 1,11,-1
 332 1934 l 1,12,-1
 500 1766 l 1,13,-1
 668 1932 l 1,14,-1
 832 1932 l 1,8,-1
EndSplineSet
Validated: 1
Ligature2: "'ccmp' Glyph Composition/Decomposition in Latin lookup 1 subtable" T caroncmb
EndChar

StartChar: tcaron
Encoding: 357 357 317
Width: 1000
GlyphClass: 1
Flags: W
LayerCount: 2
Fore
SplineSet
334 1500 m 1,0,-1
 668 1500 l 1,1,-1
 668 1168 l 1,2,-1
 834 1168 l 1,3,-1
 834 1000 l 1,4,-1
 668 1000 l 1,5,-1
 668 332 l 2,6,7
 668 252 668 252 721 210 c 128,-1,8
 774 168 774 168 818 168 c 2,9,-1
 834 168 l 1,10,-1
 834 0 l 1,11,-1
 668 0 l 2,12,13
 530 0 530 0 432 98 c 128,-1,14
 334 196 334 196 334 332 c 2,15,-1
 334 1000 l 1,16,-1
 168 1000 l 1,17,-1
 168 1168 l 1,18,-1
 334 1168 l 1,19,-1
 334 1500 l 1,0,-1
834 1832 m 1,20,-1
 1168 1832 l 1,21,-1
 1168 1500 l 2,22,23
 1168 1204 1168 1204 834 1168 c 1,24,-1
 834 1332 l 1,25,26
 996 1340 996 1340 1000 1500 c 1,27,-1
 834 1500 l 1,28,-1
 834 1832 l 1,20,-1
EndSplineSet
Validated: 5
Ligature2: "'ccmp' Glyph Composition/Decomposition in Latin lookup 1 subtable" t caroncmb
EndChar

StartChar: Tbar
Encoding: 358 358 318
Width: 1000
GlyphClass: 1
Flags: W
LayerCount: 2
Fore
SplineSet
332 0 m 1,0,-1
 332 1332 l 1,1,-1
 0 1332 l 1,2,-1
 0 1500 l 1,3,-1
 1000 1500 l 1,4,-1
 1000 1332 l 1,5,-1
 668 1332 l 1,6,-1
 668 0 l 1,7,-1
 332 0 l 1,0,-1
168 668 m 1,8,-1
 168 834 l 1,9,-1
 832 834 l 1,10,-1
 832 668 l 1,11,-1
 168 668 l 1,8,-1
EndSplineSet
Validated: 5
EndChar

StartChar: tbar
Encoding: 359 359 319
Width: 1000
GlyphClass: 1
Flags: W
LayerCount: 2
Fore
SplineSet
334 1500 m 1,0,-1
 668 1500 l 1,1,-1
 668 1168 l 1,2,-1
 834 1168 l 1,3,-1
 834 1000 l 1,4,-1
 668 1000 l 1,5,-1
 668 332 l 2,6,7
 668 252 668 252 721 210 c 128,-1,8
 774 168 774 168 818 168 c 2,9,-1
 834 168 l 1,10,-1
 834 0 l 1,11,-1
 668 0 l 2,12,13
 530 0 530 0 432 98 c 128,-1,14
 334 196 334 196 334 332 c 2,15,-1
 334 1000 l 1,16,-1
 168 1000 l 1,17,-1
 168 1168 l 1,18,-1
 334 1168 l 1,19,-1
 334 1500 l 1,0,-1
168 668 m 1,20,-1
 168 834 l 1,21,-1
 832 834 l 1,22,-1
 832 668 l 1,23,-1
 168 668 l 1,20,-1
EndSplineSet
Validated: 5
EndChar

StartChar: Utilde
Encoding: 360 360 320
Width: 1332
GlyphClass: 1
Flags: W
LayerCount: 2
Fore
SplineSet
834 1500 m 1,0,-1
 1168 1500 l 1,1,-1
 1168 332 l 2,2,3
 1168 198 1168 198 1070 99 c 128,-1,4
 972 0 972 0 834 0 c 2,5,-1
 500 0 l 2,6,7
 364 0 364 0 266 98 c 128,-1,8
 168 196 168 196 168 332 c 2,9,-1
 168 1500 l 1,10,-1
 500 1500 l 1,11,-1
 500 332 l 2,12,13
 500 266 500 266 549 217 c 128,-1,14
 598 168 598 168 668 168 c 0,15,16
 736 168 736 168 785 217 c 128,-1,17
 834 266 834 266 834 332 c 2,18,-1
 834 1500 l 1,0,-1
334 1600 m 1,19,-1
 168 1600 l 1,20,21
 206 1934 206 1934 500 1934 c 0,22,23
 596 1934 596 1934 708 1836 c 2,24,-1
 730 1816 l 2,25,26
 786 1766 786 1766 834 1766 c 0,27,28
 980 1766 980 1766 1000 1934 c 1,29,-1
 1168 1934 l 1,30,31
 1128 1600 1128 1600 834 1600 c 0,32,33
 738 1600 738 1600 626 1698 c 2,34,-1
 604 1718 l 2,35,36
 548 1766 548 1766 500 1766 c 0,37,38
 354 1766 354 1766 334 1600 c 1,19,-1
EndSplineSet
Validated: 1
Ligature2: "'ccmp' Glyph Composition/Decomposition in Latin lookup 1 subtable" U tildecmb
EndChar

StartChar: utilde
Encoding: 361 361 321
Width: 1332
GlyphClass: 1
Flags: W
LayerCount: 2
Fore
SplineSet
1168 1168 m 1,0,-1
 1168 0 l 1,1,-1
 834 0 l 1,2,-1
 834 168 l 1,3,4
 814 0 814 0 668 0 c 2,5,-1
 500 0 l 2,6,7
 364 0 364 0 266 98 c 128,-1,8
 168 196 168 196 168 332 c 2,9,-1
 168 1168 l 1,10,-1
 500 1168 l 1,11,-1
 500 332 l 2,12,13
 500 266 500 266 549 217 c 128,-1,14
 598 168 598 168 668 168 c 0,15,16
 736 168 736 168 785 217 c 128,-1,17
 834 266 834 266 834 332 c 2,18,-1
 834 1168 l 1,19,-1
 1168 1168 l 1,0,-1
334 1266 m 1,20,-1
 168 1266 l 1,21,22
 206 1600 206 1600 500 1600 c 0,23,24
 596 1600 596 1600 708 1504 c 1,25,-1
 730 1482 l 1,26,27
 786 1434 786 1434 834 1434 c 0,28,29
 980 1434 980 1434 1000 1600 c 1,30,-1
 1168 1600 l 1,31,32
 1128 1266 1128 1266 834 1266 c 0,33,34
 738 1266 738 1266 626 1364 c 1,35,-1
 604 1386 l 1,36,37
 548 1434 548 1434 500 1434 c 0,38,39
 354 1434 354 1434 334 1266 c 1,20,-1
EndSplineSet
Validated: 1
Ligature2: "'ccmp' Glyph Composition/Decomposition in Latin lookup 1 subtable" u tildecmb
EndChar

StartChar: Umacron
Encoding: 362 362 322
Width: 1332
GlyphClass: 1
Flags: W
LayerCount: 2
Fore
SplineSet
834 1500 m 1,0,-1
 1168 1500 l 1,1,-1
 1168 332 l 2,2,3
 1168 198 1168 198 1070 99 c 128,-1,4
 972 0 972 0 834 0 c 2,5,-1
 500 0 l 2,6,7
 364 0 364 0 266 98 c 128,-1,8
 168 196 168 196 168 332 c 2,9,-1
 168 1500 l 1,10,-1
 500 1500 l 1,11,-1
 500 332 l 2,12,13
 500 266 500 266 549 217 c 128,-1,14
 598 168 598 168 668 168 c 0,15,16
 736 168 736 168 785 217 c 128,-1,17
 834 266 834 266 834 332 c 2,18,-1
 834 1500 l 1,0,-1
334 1600 m 1,19,-1
 334 1766 l 1,20,-1
 1000 1766 l 1,21,-1
 1000 1600 l 1,22,-1
 334 1600 l 1,19,-1
EndSplineSet
Validated: 1
Ligature2: "'ccmp' Glyph Composition/Decomposition in Latin lookup 1 subtable" U macroncmb
EndChar

StartChar: umacron
Encoding: 363 363 323
Width: 1332
GlyphClass: 1
Flags: W
LayerCount: 2
Fore
SplineSet
1168 1168 m 1,0,-1
 1168 0 l 1,1,-1
 834 0 l 1,2,-1
 834 168 l 1,3,4
 814 0 814 0 668 0 c 2,5,-1
 500 0 l 2,6,7
 364 0 364 0 266 98 c 128,-1,8
 168 196 168 196 168 332 c 2,9,-1
 168 1168 l 1,10,-1
 500 1168 l 1,11,-1
 500 332 l 2,12,13
 500 266 500 266 549 217 c 128,-1,14
 598 168 598 168 668 168 c 0,15,16
 736 168 736 168 785 217 c 128,-1,17
 834 266 834 266 834 332 c 2,18,-1
 834 1168 l 1,19,-1
 1168 1168 l 1,0,-1
334 1266 m 1,20,-1
 334 1434 l 1,21,-1
 1000 1434 l 1,22,-1
 1000 1266 l 1,23,-1
 334 1266 l 1,20,-1
EndSplineSet
Validated: 1
Ligature2: "'ccmp' Glyph Composition/Decomposition in Latin lookup 1 subtable" u macroncmb
EndChar

StartChar: Ubreve
Encoding: 364 364 324
Width: 1332
GlyphClass: 1
Flags: W
LayerCount: 2
Fore
SplineSet
834 1500 m 1,0,-1
 1168 1500 l 1,1,-1
 1168 332 l 2,2,3
 1168 198 1168 198 1070 99 c 128,-1,4
 972 0 972 0 834 0 c 2,5,-1
 500 0 l 2,6,7
 364 0 364 0 266 98 c 128,-1,8
 168 196 168 196 168 332 c 2,9,-1
 168 1500 l 1,10,-1
 500 1500 l 1,11,-1
 500 332 l 2,12,13
 500 266 500 266 549 217 c 128,-1,14
 598 168 598 168 668 168 c 0,15,16
 736 168 736 168 785 217 c 128,-1,17
 834 266 834 266 834 332 c 2,18,-1
 834 1500 l 1,0,-1
834 1934 m 1,19,-1
 1000 1934 l 1,20,21
 962 1600 962 1600 668 1600 c 256,22,23
 374 1600 374 1600 334 1934 c 1,24,-1
 500 1934 l 1,25,26
 520 1766 520 1766 668 1766 c 0,27,28
 814 1766 814 1766 834 1934 c 1,19,-1
EndSplineSet
Validated: 1
Ligature2: "'ccmp' Glyph Composition/Decomposition in Latin lookup 1 subtable" U brevecmb
EndChar

StartChar: ubreve
Encoding: 365 365 325
Width: 1332
GlyphClass: 1
Flags: W
LayerCount: 2
Fore
SplineSet
1168 1168 m 1,0,-1
 1168 0 l 1,1,-1
 834 0 l 1,2,-1
 834 168 l 1,3,4
 814 0 814 0 668 0 c 2,5,-1
 500 0 l 2,6,7
 364 0 364 0 266 98 c 128,-1,8
 168 196 168 196 168 332 c 2,9,-1
 168 1168 l 1,10,-1
 500 1168 l 1,11,-1
 500 332 l 2,12,13
 500 266 500 266 549 217 c 128,-1,14
 598 168 598 168 668 168 c 0,15,16
 736 168 736 168 785 217 c 128,-1,17
 834 266 834 266 834 332 c 2,18,-1
 834 1168 l 1,19,-1
 1168 1168 l 1,0,-1
834 1600 m 1,20,-1
 1000 1600 l 1,21,22
 962 1266 962 1266 668 1266 c 256,23,24
 374 1266 374 1266 334 1600 c 1,25,-1
 500 1600 l 1,26,27
 520 1434 520 1434 668 1434 c 0,28,29
 814 1434 814 1434 834 1600 c 1,20,-1
EndSplineSet
Validated: 1
Ligature2: "'ccmp' Glyph Composition/Decomposition in Latin lookup 1 subtable" u brevecmb
EndChar

StartChar: Uring
Encoding: 366 366 326
Width: 1332
GlyphClass: 1
Flags: W
LayerCount: 2
Fore
SplineSet
834 1500 m 1,0,-1
 1168 1500 l 1,1,-1
 1168 332 l 2,2,3
 1168 198 1168 198 1070 99 c 128,-1,4
 972 0 972 0 834 0 c 2,5,-1
 500 0 l 2,6,7
 364 0 364 0 266 98 c 128,-1,8
 168 196 168 196 168 332 c 2,9,-1
 168 1500 l 1,10,-1
 500 1500 l 1,11,-1
 500 332 l 2,12,13
 500 266 500 266 549 217 c 128,-1,14
 598 168 598 168 668 168 c 0,15,16
 736 168 736 168 785 217 c 128,-1,17
 834 266 834 266 834 332 c 2,18,-1
 834 1500 l 1,0,-1
334 1934 m 256,19,20
 334 2070 334 2070 432 2168 c 128,-1,21
 530 2266 530 2266 668 2266 c 0,22,23
 804 2266 804 2266 902 2168 c 128,-1,24
 1000 2070 1000 2070 1000 1932 c 0,25,26
 1000 1798 1000 1798 902 1699 c 128,-1,27
 804 1600 804 1600 668 1600 c 0,28,29
 530 1600 530 1600 432 1699 c 128,-1,30
 334 1798 334 1798 334 1934 c 256,19,20
500 1934 m 256,31,32
 500 1866 500 1866 549 1816 c 128,-1,33
 598 1766 598 1766 668 1766 c 0,34,35
 736 1766 736 1766 785 1816 c 128,-1,36
 834 1866 834 1866 834 1934 c 256,37,38
 834 2002 834 2002 785 2051 c 128,-1,39
 736 2100 736 2100 668 2100 c 0,40,41
 598 2100 598 2100 549 2051 c 128,-1,42
 500 2002 500 2002 500 1934 c 256,31,32
EndSplineSet
Validated: 1
Ligature2: "'ccmp' Glyph Composition/Decomposition in Latin lookup 1 subtable" U ringcmb
EndChar

StartChar: uring
Encoding: 367 367 327
Width: 1332
GlyphClass: 1
Flags: W
LayerCount: 2
Fore
SplineSet
1168 1168 m 1,0,-1
 1168 0 l 1,1,-1
 834 0 l 1,2,-1
 834 168 l 1,3,4
 814 0 814 0 668 0 c 2,5,-1
 500 0 l 2,6,7
 364 0 364 0 266 98 c 128,-1,8
 168 196 168 196 168 332 c 2,9,-1
 168 1168 l 1,10,-1
 500 1168 l 1,11,-1
 500 332 l 2,12,13
 500 266 500 266 549 217 c 128,-1,14
 598 168 598 168 668 168 c 0,15,16
 736 168 736 168 785 217 c 128,-1,17
 834 266 834 266 834 332 c 2,18,-1
 834 1168 l 1,19,-1
 1168 1168 l 1,0,-1
334 1600 m 0,20,21
 334 1738 334 1738 432 1836 c 128,-1,22
 530 1934 530 1934 668 1934 c 0,23,24
 804 1934 804 1934 902 1836 c 128,-1,25
 1000 1738 1000 1738 1000 1600 c 0,26,27
 1000 1464 1000 1464 902 1365 c 128,-1,28
 804 1266 804 1266 668 1266 c 0,29,30
 530 1266 530 1266 432 1365 c 128,-1,31
 334 1464 334 1464 334 1600 c 0,20,21
500 1600 m 256,32,33
 500 1532 500 1532 549 1483 c 128,-1,34
 598 1434 598 1434 668 1434 c 0,35,36
 736 1434 736 1434 785 1483 c 128,-1,37
 834 1532 834 1532 834 1600 c 256,38,39
 834 1668 834 1668 785 1717 c 128,-1,40
 736 1766 736 1766 668 1766 c 0,41,42
 598 1766 598 1766 549 1717 c 128,-1,43
 500 1668 500 1668 500 1600 c 256,32,33
EndSplineSet
Validated: 1
Ligature2: "'ccmp' Glyph Composition/Decomposition in Latin lookup 1 subtable" u ringcmb
EndChar

StartChar: Uhungarumlaut
Encoding: 368 368 328
Width: 1332
GlyphClass: 1
Flags: W
LayerCount: 2
Fore
SplineSet
834 1500 m 1,0,-1
 1168 1500 l 1,1,-1
 1168 332 l 2,2,3
 1168 198 1168 198 1070 99 c 128,-1,4
 972 0 972 0 834 0 c 2,5,-1
 500 0 l 2,6,7
 364 0 364 0 266 98 c 128,-1,8
 168 196 168 196 168 332 c 2,9,-1
 168 1500 l 1,10,-1
 500 1500 l 1,11,-1
 500 332 l 2,12,13
 500 266 500 266 549 217 c 128,-1,14
 598 168 598 168 668 168 c 0,15,16
 736 168 736 168 785 217 c 128,-1,17
 834 266 834 266 834 332 c 2,18,-1
 834 1500 l 1,0,-1
418 1600 m 1,19,-1
 582 1934 l 1,20,-1
 750 1934 l 1,21,-1
 582 1600 l 1,22,-1
 418 1600 l 1,19,-1
750 1600 m 1,23,-1
 918 1934 l 1,24,-1
 1082 1934 l 1,25,-1
 918 1600 l 1,26,-1
 750 1600 l 1,23,-1
EndSplineSet
Validated: 1
Ligature2: "'ccmp' Glyph Composition/Decomposition in Latin lookup 1 subtable" U hungarumlautcmb
EndChar

StartChar: uhungarumlaut
Encoding: 369 369 329
Width: 1332
GlyphClass: 1
Flags: W
LayerCount: 2
Fore
SplineSet
1168 1168 m 1,0,-1
 1168 0 l 1,1,-1
 834 0 l 1,2,-1
 834 168 l 1,3,4
 814 0 814 0 668 0 c 2,5,-1
 500 0 l 2,6,7
 364 0 364 0 266 98 c 128,-1,8
 168 196 168 196 168 332 c 2,9,-1
 168 1168 l 1,10,-1
 500 1168 l 1,11,-1
 500 332 l 2,12,13
 500 266 500 266 549 217 c 128,-1,14
 598 168 598 168 668 168 c 0,15,16
 736 168 736 168 785 217 c 128,-1,17
 834 266 834 266 834 332 c 2,18,-1
 834 1168 l 1,19,-1
 1168 1168 l 1,0,-1
418 1266 m 1,20,-1
 582 1600 l 1,21,-1
 750 1600 l 1,22,-1
 582 1266 l 1,23,-1
 418 1266 l 1,20,-1
750 1266 m 1,24,-1
 918 1600 l 1,25,-1
 1082 1600 l 1,26,-1
 918 1266 l 1,27,-1
 750 1266 l 1,24,-1
EndSplineSet
Validated: 1
Ligature2: "'ccmp' Glyph Composition/Decomposition in Latin lookup 1 subtable" u hungarumlautcmb
EndChar

StartChar: Uogonek
Encoding: 370 370 330
Width: 1332
GlyphClass: 1
Flags: W
LayerCount: 2
Fore
SplineSet
834 1500 m 1,0,-1
 1168 1500 l 1,1,-1
 1168 332 l 2,2,3
 1168 198 1168 198 1070 99 c 128,-1,4
 972 0 972 0 834 0 c 2,5,-1
 500 0 l 2,6,7
 364 0 364 0 266 98 c 128,-1,8
 168 196 168 196 168 332 c 2,9,-1
 168 1500 l 1,10,-1
 500 1500 l 1,11,-1
 500 332 l 2,12,13
 500 266 500 266 549 217 c 128,-1,14
 598 168 598 168 668 168 c 0,15,16
 736 168 736 168 785 217 c 128,-1,17
 834 266 834 266 834 332 c 2,18,-1
 834 1500 l 1,0,-1
828 -168 m 1,19,-1
 744 -168 l 2,20,21
 704 -168 704 -168 682 -188 c 128,-1,22
 660 -208 660 -208 660 -250 c 256,23,24
 660 -292 660 -292 681 -312 c 128,-1,25
 702 -332 702 -332 742 -332 c 0,26,27
 754 -332 754 -332 776 -328 c 1,28,-1
 840 -482 l 1,29,30
 772 -500 772 -500 734 -500 c 0,31,32
 650 -500 650 -500 572 -429 c 128,-1,33
 494 -358 494 -358 494 -250 c 0,34,35
 494 -148 494 -148 568 -74 c 128,-1,36
 642 0 642 0 744 0 c 2,37,-1
 828 0 l 1,38,-1
 828 -168 l 1,19,-1
EndSplineSet
Validated: 5
Ligature2: "'ccmp' Glyph Composition/Decomposition in Latin lookup 1 subtable" U ogonekcmb
EndChar

